<svg width="300" height="457" viewBox="0 0 300 457" fill="none" xmlns="http://www.w3.org/2000/svg">
<rect x="37" y="172" width="212" height="77" fill="#EEEEEE"/>
<path d="M88.8154 218V202.359H93.2305C94.5911 202.359 95.7943 202.66 96.8398 203.262C97.8854 203.863 98.6911 204.719 99.2568 205.829C99.8298 206.939 100.12 208.214 100.127 209.653V210.652C100.127 212.128 99.8405 213.42 99.2676 214.53C98.7018 215.64 97.889 216.493 96.8291 217.087C95.7764 217.681 94.5482 217.986 93.1445 218H88.8154ZM90.8779 204.057V216.313H93.0479C94.6377 216.313 95.873 215.819 96.7539 214.831C97.6419 213.843 98.0859 212.436 98.0859 210.609V209.696C98.0859 207.92 97.667 206.542 96.8291 205.561C95.9984 204.572 94.8167 204.071 93.2842 204.057H90.8779ZM110.117 218C110.003 217.771 109.91 217.363 109.838 216.775C108.914 217.735 107.811 218.215 106.529 218.215C105.383 218.215 104.442 217.893 103.704 217.248C102.974 216.596 102.608 215.773 102.608 214.777C102.608 213.567 103.067 212.629 103.983 211.963C104.907 211.29 106.203 210.953 107.872 210.953H109.806V210.04C109.806 209.345 109.598 208.794 109.183 208.386C108.767 207.97 108.155 207.763 107.346 207.763C106.637 207.763 106.042 207.942 105.562 208.3C105.083 208.658 104.843 209.091 104.843 209.6H102.845C102.845 209.02 103.049 208.461 103.457 207.924C103.872 207.38 104.431 206.95 105.133 206.635C105.842 206.32 106.619 206.162 107.464 206.162C108.803 206.162 109.852 206.499 110.611 207.172C111.37 207.838 111.764 208.758 111.793 209.933V215.282C111.793 216.349 111.929 217.198 112.201 217.828V218H110.117ZM106.819 216.485C107.442 216.485 108.033 216.324 108.592 216.002C109.15 215.68 109.555 215.261 109.806 214.745V212.36H108.248C105.813 212.36 104.596 213.073 104.596 214.498C104.596 215.121 104.803 215.608 105.219 215.959C105.634 216.31 106.168 216.485 106.819 216.485ZM117.604 203.562V206.377H119.774V207.913H117.604V215.121C117.604 215.587 117.701 215.938 117.895 216.174C118.088 216.403 118.417 216.518 118.883 216.518C119.112 216.518 119.427 216.475 119.828 216.389V218C119.305 218.143 118.797 218.215 118.303 218.215C117.415 218.215 116.745 217.946 116.294 217.409C115.843 216.872 115.617 216.109 115.617 215.121V207.913H113.501V206.377H115.617V203.562H117.604ZM129.281 218C129.167 217.771 129.074 217.363 129.002 216.775C128.078 217.735 126.975 218.215 125.693 218.215C124.548 218.215 123.606 217.893 122.868 217.248C122.138 216.596 121.772 215.773 121.772 214.777C121.772 213.567 122.231 212.629 123.147 211.963C124.071 211.29 125.368 210.953 127.036 210.953H128.97V210.04C128.97 209.345 128.762 208.794 128.347 208.386C127.931 207.97 127.319 207.763 126.51 207.763C125.801 207.763 125.206 207.942 124.727 208.3C124.247 208.658 124.007 209.091 124.007 209.6H122.009C122.009 209.02 122.213 208.461 122.621 207.924C123.036 207.38 123.595 206.95 124.297 206.635C125.006 206.32 125.783 206.162 126.628 206.162C127.967 206.162 129.016 206.499 129.775 207.172C130.535 207.838 130.928 208.758 130.957 209.933V215.282C130.957 216.349 131.093 217.198 131.365 217.828V218H129.281ZM125.983 216.485C126.606 216.485 127.197 216.324 127.756 216.002C128.314 215.68 128.719 215.261 128.97 214.745V212.36H127.412C124.977 212.36 123.76 213.073 123.76 214.498C123.76 215.121 123.967 215.608 124.383 215.959C124.798 216.31 125.332 216.485 125.983 216.485ZM141.914 216.313H149.326V218H139.841V202.359H141.914V216.313ZM158.543 218C158.428 217.771 158.335 217.363 158.264 216.775C157.34 217.735 156.237 218.215 154.955 218.215C153.809 218.215 152.868 217.893 152.13 217.248C151.399 216.596 151.034 215.773 151.034 214.777C151.034 213.567 151.493 212.629 152.409 211.963C153.333 211.29 154.629 210.953 156.298 210.953H158.231V210.04C158.231 209.345 158.024 208.794 157.608 208.386C157.193 207.97 156.581 207.763 155.771 207.763C155.062 207.763 154.468 207.942 153.988 208.3C153.508 208.658 153.269 209.091 153.269 209.6H151.271C151.271 209.02 151.475 208.461 151.883 207.924C152.298 207.38 152.857 206.95 153.559 206.635C154.268 206.32 155.045 206.162 155.89 206.162C157.229 206.162 158.278 206.499 159.037 207.172C159.796 207.838 160.19 208.758 160.219 209.933V215.282C160.219 216.349 160.355 217.198 160.627 217.828V218H158.543ZM155.245 216.485C155.868 216.485 156.459 216.324 157.018 216.002C157.576 215.68 157.981 215.261 158.231 214.745V212.36H156.674C154.239 212.36 153.021 213.073 153.021 214.498C153.021 215.121 153.229 215.608 153.645 215.959C154.06 216.31 154.593 216.485 155.245 216.485ZM166.965 215.089L169.672 206.377H171.799L167.126 219.794C166.403 221.728 165.253 222.694 163.678 222.694L163.302 222.662L162.561 222.522V220.911L163.098 220.954C163.771 220.954 164.294 220.818 164.666 220.546C165.046 220.274 165.357 219.776 165.601 219.053L166.041 217.871L161.895 206.377H164.064L166.965 215.089ZM178.255 218.215C176.679 218.215 175.397 217.699 174.409 216.668C173.421 215.63 172.927 214.244 172.927 212.511V212.146C172.927 210.993 173.145 209.965 173.582 209.062C174.026 208.153 174.642 207.444 175.43 206.936C176.225 206.42 177.084 206.162 178.008 206.162C179.519 206.162 180.693 206.66 181.531 207.655C182.369 208.651 182.788 210.076 182.788 211.931V212.758H174.914C174.943 213.904 175.276 214.831 175.913 215.54C176.558 216.242 177.374 216.593 178.362 216.593C179.064 216.593 179.659 216.45 180.146 216.163C180.632 215.877 181.059 215.497 181.424 215.024L182.638 215.97C181.664 217.466 180.203 218.215 178.255 218.215ZM178.008 207.795C177.206 207.795 176.533 208.089 175.988 208.676C175.444 209.256 175.107 210.072 174.979 211.125H180.801V210.975C180.743 209.965 180.471 209.184 179.984 208.633C179.497 208.074 178.839 207.795 178.008 207.795ZM190.716 208.16C190.415 208.11 190.089 208.085 189.738 208.085C188.435 208.085 187.55 208.64 187.085 209.75V218H185.098V206.377H187.031L187.063 207.72C187.715 206.681 188.639 206.162 189.835 206.162C190.222 206.162 190.515 206.212 190.716 206.312V208.16Z" fill="black"/>
<path d="M144.061 78.9393C143.475 78.3536 142.525 78.3536 141.939 78.9393L132.393 88.4853C131.808 89.0711 131.808 90.0208 132.393 90.6066C132.979 91.1924 133.929 91.1924 134.515 90.6066L143 82.1213L151.485 90.6066C152.071 91.1924 153.021 91.1924 153.607 90.6066C154.192 90.0208 154.192 89.0711 153.607 88.4853L144.061 78.9393ZM141.939 173.061C142.525 173.646 143.475 173.646 144.061 173.061L153.607 163.515C154.192 162.929 154.192 161.979 153.607 161.393C153.021 160.808 152.071 160.808 151.485 161.393L143 169.879L134.515 161.393C133.929 160.808 132.979 160.808 132.393 161.393C131.808 161.979 131.808 162.929 132.393 163.515L141.939 173.061ZM141.5 80V172H144.5V80H141.5Z" fill="black"/>
<path d="M140.061 247.939C139.475 247.354 138.525 247.354 137.939 247.939L128.393 257.485C127.808 258.071 127.808 259.021 128.393 259.607C128.979 260.192 129.929 260.192 130.515 259.607L139 251.121L147.485 259.607C148.071 260.192 149.021 260.192 149.607 259.607C150.192 259.021 150.192 258.071 149.607 257.485L140.061 247.939ZM137.939 301.061C138.525 301.646 139.475 301.646 140.061 301.061L149.607 291.515C150.192 290.929 150.192 289.979 149.607 289.393C149.021 288.808 148.071 288.808 147.485 289.393L139 297.879L130.515 289.393C129.929 288.808 128.979 288.808 128.393 289.393C127.808 289.979 127.808 290.929 128.393 291.515L137.939 301.061ZM137.5 249V300H140.5V249H137.5Z" fill="black"/>
<path opacity="0.4" d="M174 320.997V327.878C174 333.931 158.765 338.875 140 338.875C121.235 338.875 106 333.931 106 327.878V320.997C106 314.944 121.235 310 140 310C158.765 310 174 314.944 174 320.997Z" fill="#3F5666"/>
<path d="M140 343.781C126.681 343.781 113.305 341.45 106 336.469V351.94C106 357.993 121.235 362.938 140 362.938C158.765 362.938 174 357.993 174 351.94V336.469C166.695 341.45 153.319 343.781 140 343.781ZM106 360.531V376.003C106 382.056 121.235 387 140 387C158.765 387 174 382.056 174 376.003V360.531C166.695 365.513 153.319 367.844 140 367.844C126.681 367.844 113.305 365.513 106 360.531Z" fill="#3F5666"/>
<path d="M19.8154 425V409.359H24.2305C25.5911 409.359 26.7943 409.66 27.8398 410.262C28.8854 410.863 29.6911 411.719 30.2568 412.829C30.8298 413.939 31.1198 415.214 31.127 416.653V417.652C31.127 419.128 30.8405 420.42 30.2676 421.53C29.7018 422.64 28.889 423.493 27.8291 424.087C26.7764 424.681 25.5482 424.986 24.1445 425H19.8154ZM21.8779 411.057V423.313H24.0479C25.6377 423.313 26.873 422.819 27.7539 421.831C28.6419 420.843 29.0859 419.436 29.0859 417.609V416.696C29.0859 414.92 28.667 413.542 27.8291 412.561C26.9984 411.572 25.8167 411.071 24.2842 411.057H21.8779ZM41.1172 425C41.0026 424.771 40.9095 424.363 40.8379 423.775C39.9141 424.735 38.8112 425.215 37.5293 425.215C36.3835 425.215 35.4417 424.893 34.7041 424.248C33.9736 423.596 33.6084 422.773 33.6084 421.777C33.6084 420.567 34.0667 419.629 34.9834 418.963C35.9072 418.29 37.2035 417.953 38.8721 417.953H40.8057V417.04C40.8057 416.345 40.598 415.794 40.1826 415.386C39.7673 414.97 39.1549 414.763 38.3457 414.763C37.6367 414.763 37.0423 414.942 36.5625 415.3C36.0827 415.658 35.8428 416.091 35.8428 416.6H33.8447C33.8447 416.02 34.0488 415.461 34.457 414.924C34.8724 414.38 35.431 413.95 36.1328 413.635C36.8418 413.32 37.6188 413.162 38.4639 413.162C39.8031 413.162 40.8522 413.499 41.6113 414.172C42.3704 414.838 42.7643 415.758 42.793 416.933V422.282C42.793 423.349 42.929 424.198 43.2012 424.828V425H41.1172ZM37.8193 423.485C38.4424 423.485 39.0332 423.324 39.5918 423.002C40.1504 422.68 40.555 422.261 40.8057 421.745V419.36H39.248C36.8132 419.36 35.5957 420.073 35.5957 421.498C35.5957 422.121 35.8034 422.608 36.2188 422.959C36.6341 423.31 37.1676 423.485 37.8193 423.485ZM48.6045 410.562V413.377H50.7744V414.913H48.6045V422.121C48.6045 422.587 48.7012 422.938 48.8945 423.174C49.0879 423.403 49.4173 423.518 49.8828 423.518C50.112 423.518 50.4271 423.475 50.8281 423.389V425C50.3053 425.143 49.7969 425.215 49.3027 425.215C48.4147 425.215 47.7451 424.946 47.2939 424.409C46.8428 423.872 46.6172 423.109 46.6172 422.121V414.913H44.501V413.377H46.6172V410.562H48.6045ZM60.2812 425C60.1667 424.771 60.0736 424.363 60.002 423.775C59.0781 424.735 57.9753 425.215 56.6934 425.215C55.5475 425.215 54.6058 424.893 53.8682 424.248C53.1377 423.596 52.7725 422.773 52.7725 421.777C52.7725 420.567 53.2308 419.629 54.1475 418.963C55.0713 418.29 56.3675 417.953 58.0361 417.953H59.9697V417.04C59.9697 416.345 59.762 415.794 59.3467 415.386C58.9313 414.97 58.319 414.763 57.5098 414.763C56.8008 414.763 56.2064 414.942 55.7266 415.3C55.2467 415.658 55.0068 416.091 55.0068 416.6H53.0088C53.0088 416.02 53.2129 415.461 53.6211 414.924C54.0365 414.38 54.5951 413.95 55.2969 413.635C56.0059 413.32 56.7829 413.162 57.6279 413.162C58.9671 413.162 60.0163 413.499 60.7754 414.172C61.5345 414.838 61.9284 415.758 61.957 416.933V422.282C61.957 423.349 62.0931 424.198 62.3652 424.828V425H60.2812ZM56.9834 423.485C57.6064 423.485 58.1973 423.324 58.7559 423.002C59.3145 422.68 59.7191 422.261 59.9697 421.745V419.36H58.4121C55.9772 419.36 54.7598 420.073 54.7598 421.498C54.7598 422.121 54.9674 422.608 55.3828 422.959C55.7982 423.31 56.3317 423.485 56.9834 423.485ZM74.9121 419.317C74.9121 421.093 74.5039 422.522 73.6875 423.604C72.8711 424.678 71.7754 425.215 70.4004 425.215C68.9323 425.215 67.7972 424.696 66.9951 423.657L66.8984 425H65.0723V408.5H67.0596V414.655C67.8617 413.66 68.9681 413.162 70.3789 413.162C71.7897 413.162 72.8962 413.696 73.6982 414.763C74.5075 415.83 74.9121 417.291 74.9121 419.146V419.317ZM72.9248 419.092C72.9248 417.738 72.6634 416.693 72.1406 415.955C71.6178 415.217 70.8659 414.849 69.8848 414.849C68.5742 414.849 67.6325 415.457 67.0596 416.675V421.702C67.6683 422.92 68.6172 423.528 69.9062 423.528C70.8587 423.528 71.5999 423.16 72.1299 422.422C72.6598 421.684 72.9248 420.574 72.9248 419.092ZM84.6016 425C84.487 424.771 84.3939 424.363 84.3223 423.775C83.3984 424.735 82.2956 425.215 81.0137 425.215C79.8678 425.215 78.9261 424.893 78.1885 424.248C77.458 423.596 77.0928 422.773 77.0928 421.777C77.0928 420.567 77.5511 419.629 78.4678 418.963C79.3916 418.29 80.6878 417.953 82.3564 417.953H84.29V417.04C84.29 416.345 84.0824 415.794 83.667 415.386C83.2516 414.97 82.6393 414.763 81.8301 414.763C81.1211 414.763 80.5267 414.942 80.0469 415.3C79.5671 415.658 79.3271 416.091 79.3271 416.6H77.3291C77.3291 416.02 77.5332 415.461 77.9414 414.924C78.3568 414.38 78.9154 413.95 79.6172 413.635C80.3262 413.32 81.1032 413.162 81.9482 413.162C83.2874 413.162 84.3366 413.499 85.0957 414.172C85.8548 414.838 86.2487 415.758 86.2773 416.933V422.282C86.2773 423.349 86.4134 424.198 86.6855 424.828V425H84.6016ZM81.3037 423.485C81.9268 423.485 82.5176 423.324 83.0762 423.002C83.6348 422.68 84.0394 422.261 84.29 421.745V419.36H82.7324C80.2975 419.36 79.0801 420.073 79.0801 421.498C79.0801 422.121 79.2878 422.608 79.7031 422.959C80.1185 423.31 80.652 423.485 81.3037 423.485ZM96.1602 421.917C96.1602 421.38 95.9561 420.965 95.5479 420.671C95.1468 420.37 94.4414 420.112 93.4316 419.897C92.429 419.683 91.6305 419.425 91.0361 419.124C90.4489 418.823 90.012 418.465 89.7256 418.05C89.4463 417.634 89.3066 417.14 89.3066 416.567C89.3066 415.615 89.7077 414.809 90.5098 414.15C91.319 413.492 92.3503 413.162 93.6035 413.162C94.9212 413.162 95.9883 413.502 96.8047 414.183C97.6283 414.863 98.04 415.733 98.04 416.793H96.042C96.042 416.249 95.8092 415.78 95.3438 415.386C94.8854 414.992 94.3053 414.795 93.6035 414.795C92.8802 414.795 92.3145 414.952 91.9062 415.268C91.498 415.583 91.2939 415.994 91.2939 416.503C91.2939 416.983 91.4837 417.344 91.8633 417.588C92.2428 417.831 92.9268 418.064 93.915 418.286C94.9105 418.508 95.7161 418.773 96.332 419.081C96.9479 419.389 97.4027 419.761 97.6963 420.198C97.9971 420.628 98.1475 421.154 98.1475 421.777C98.1475 422.816 97.7321 423.65 96.9014 424.28C96.0706 424.903 94.9928 425.215 93.668 425.215C92.737 425.215 91.9134 425.05 91.1973 424.721C90.4811 424.391 89.9189 423.933 89.5107 423.346C89.1097 422.751 88.9092 422.11 88.9092 421.423H90.8965C90.9323 422.089 91.1973 422.619 91.6914 423.013C92.1927 423.399 92.8516 423.593 93.668 423.593C94.4199 423.593 95.0215 423.442 95.4727 423.142C95.931 422.834 96.1602 422.425 96.1602 421.917ZM105.56 425.215C103.984 425.215 102.702 424.699 101.714 423.668C100.726 422.63 100.231 421.244 100.231 419.511V419.146C100.231 417.993 100.45 416.965 100.887 416.062C101.331 415.153 101.947 414.444 102.734 413.936C103.529 413.42 104.389 413.162 105.312 413.162C106.824 413.162 107.998 413.66 108.836 414.655C109.674 415.651 110.093 417.076 110.093 418.931V419.758H102.219C102.247 420.904 102.58 421.831 103.218 422.54C103.862 423.242 104.679 423.593 105.667 423.593C106.369 423.593 106.963 423.45 107.45 423.163C107.937 422.877 108.363 422.497 108.729 422.024L109.942 422.97C108.968 424.466 107.507 425.215 105.56 425.215ZM105.312 414.795C104.51 414.795 103.837 415.089 103.293 415.676C102.749 416.256 102.412 417.072 102.283 418.125H108.105V417.975C108.048 416.965 107.776 416.184 107.289 415.633C106.802 415.074 106.143 414.795 105.312 414.795ZM119.17 421.917C119.17 421.38 118.966 420.965 118.558 420.671C118.157 420.37 117.451 420.112 116.441 419.897C115.439 419.683 114.64 419.425 114.046 419.124C113.459 418.823 113.022 418.465 112.735 418.05C112.456 417.634 112.316 417.14 112.316 416.567C112.316 415.615 112.717 414.809 113.52 414.15C114.329 413.492 115.36 413.162 116.613 413.162C117.931 413.162 118.998 413.502 119.814 414.183C120.638 414.863 121.05 415.733 121.05 416.793H119.052C119.052 416.249 118.819 415.78 118.354 415.386C117.895 414.992 117.315 414.795 116.613 414.795C115.89 414.795 115.324 414.952 114.916 415.268C114.508 415.583 114.304 415.994 114.304 416.503C114.304 416.983 114.493 417.344 114.873 417.588C115.253 417.831 115.937 418.064 116.925 418.286C117.92 418.508 118.726 418.773 119.342 419.081C119.958 419.389 120.412 419.761 120.706 420.198C121.007 420.628 121.157 421.154 121.157 421.777C121.157 422.816 120.742 423.65 119.911 424.28C119.08 424.903 118.003 425.215 116.678 425.215C115.747 425.215 114.923 425.05 114.207 424.721C113.491 424.391 112.929 423.933 112.521 423.346C112.119 422.751 111.919 422.11 111.919 421.423H113.906C113.942 422.089 114.207 422.619 114.701 423.013C115.202 423.399 115.861 423.593 116.678 423.593C117.43 423.593 118.031 423.442 118.482 423.142C118.941 422.834 119.17 422.425 119.17 421.917ZM128.784 420.8C128.784 420.048 128.992 419.357 129.407 418.727C129.83 418.096 130.632 417.362 131.813 416.524C131.119 415.679 130.653 414.999 130.417 414.483C130.181 413.968 130.062 413.456 130.062 412.947C130.062 411.758 130.413 410.827 131.115 410.154C131.817 409.481 132.77 409.145 133.973 409.145C135.047 409.145 135.935 409.46 136.637 410.09C137.339 410.713 137.689 411.501 137.689 412.453C137.689 413.083 137.528 413.667 137.206 414.204C136.891 414.734 136.336 415.293 135.541 415.88L134.392 416.729L137.872 420.886C138.359 419.955 138.603 418.92 138.603 417.781H140.396C140.396 419.607 139.956 421.122 139.075 422.325L141.31 425H138.925L137.883 423.765C137.353 424.237 136.73 424.599 136.014 424.85C135.305 425.093 134.581 425.215 133.844 425.215C132.318 425.215 131.094 424.81 130.17 424.001C129.246 423.192 128.784 422.125 128.784 420.8ZM133.844 423.593C134.896 423.593 135.86 423.192 136.733 422.39L132.92 417.824L132.565 418.082C131.369 418.963 130.771 419.869 130.771 420.8C130.771 421.645 131.044 422.322 131.588 422.83C132.139 423.339 132.891 423.593 133.844 423.593ZM132.05 412.883C132.05 413.57 132.472 414.43 133.317 415.461L134.585 414.569C135.072 414.226 135.405 413.9 135.584 413.592C135.763 413.277 135.853 412.897 135.853 412.453C135.853 411.973 135.674 411.576 135.315 411.261C134.957 410.938 134.506 410.777 133.962 410.777C133.375 410.777 132.909 410.978 132.565 411.379C132.222 411.773 132.05 412.274 132.05 412.883ZM160.688 417.685C160.688 419.217 160.431 420.556 159.915 421.702C159.399 422.841 158.669 423.711 157.724 424.312C156.778 424.914 155.675 425.215 154.415 425.215C153.183 425.215 152.091 424.914 151.139 424.312C150.186 423.704 149.445 422.841 148.915 421.724C148.392 420.599 148.124 419.299 148.109 417.824V416.696C148.109 415.192 148.371 413.864 148.894 412.711C149.416 411.558 150.154 410.677 151.106 410.068C152.066 409.452 153.162 409.145 154.394 409.145C155.647 409.145 156.75 409.449 157.702 410.058C158.662 410.659 159.399 411.536 159.915 412.689C160.431 413.835 160.688 415.171 160.688 416.696V417.685ZM158.637 416.675C158.637 414.82 158.264 413.398 157.52 412.41C156.775 411.415 155.733 410.917 154.394 410.917C153.09 410.917 152.062 411.415 151.311 412.41C150.566 413.398 150.183 414.773 150.161 416.535V417.685C150.161 419.482 150.537 420.896 151.289 421.928C152.048 422.952 153.09 423.464 154.415 423.464C155.747 423.464 156.778 422.98 157.509 422.014C158.239 421.04 158.615 419.647 158.637 417.835V416.675ZM173.311 419.317C173.311 421.093 172.902 422.522 172.086 423.604C171.27 424.678 170.174 425.215 168.799 425.215C167.331 425.215 166.196 424.696 165.394 423.657L165.297 425H163.471V408.5H165.458V414.655C166.26 413.66 167.367 413.162 168.777 413.162C170.188 413.162 171.295 413.696 172.097 414.763C172.906 415.83 173.311 417.291 173.311 419.146V419.317ZM171.323 419.092C171.323 417.738 171.062 416.693 170.539 415.955C170.016 415.217 169.264 414.849 168.283 414.849C166.973 414.849 166.031 415.457 165.458 416.675V421.702C166.067 422.92 167.016 423.528 168.305 423.528C169.257 423.528 169.998 423.16 170.528 422.422C171.058 421.684 171.323 420.574 171.323 419.092ZM177.876 413.377V426.343C177.876 428.577 176.863 429.694 174.836 429.694C174.399 429.694 173.994 429.63 173.622 429.501V427.911C173.851 427.968 174.152 427.997 174.524 427.997C174.968 427.997 175.305 427.875 175.534 427.632C175.771 427.396 175.889 426.98 175.889 426.386V413.377H177.876ZM175.685 410.294C175.685 409.979 175.781 409.71 175.975 409.488C176.175 409.259 176.465 409.145 176.845 409.145C177.231 409.145 177.525 409.256 177.726 409.478C177.926 409.7 178.026 409.972 178.026 410.294C178.026 410.616 177.926 410.885 177.726 411.1C177.525 411.314 177.231 411.422 176.845 411.422C176.458 411.422 176.168 411.314 175.975 411.1C175.781 410.885 175.685 410.616 175.685 410.294ZM185.911 425.215C184.336 425.215 183.054 424.699 182.065 423.668C181.077 422.63 180.583 421.244 180.583 419.511V419.146C180.583 417.993 180.801 416.965 181.238 416.062C181.682 415.153 182.298 414.444 183.086 413.936C183.881 413.42 184.74 413.162 185.664 413.162C187.175 413.162 188.35 413.66 189.188 414.655C190.025 415.651 190.444 417.076 190.444 418.931V419.758H182.57C182.599 420.904 182.932 421.831 183.569 422.54C184.214 423.242 185.03 423.593 186.019 423.593C186.72 423.593 187.315 423.45 187.802 423.163C188.289 422.877 188.715 422.497 189.08 422.024L190.294 422.97C189.32 424.466 187.859 425.215 185.911 425.215ZM185.664 414.795C184.862 414.795 184.189 415.089 183.645 415.676C183.1 416.256 182.764 417.072 182.635 418.125H188.457V417.975C188.4 416.965 188.128 416.184 187.641 415.633C187.154 415.074 186.495 414.795 185.664 414.795ZM197.416 423.593C198.125 423.593 198.744 423.378 199.274 422.948C199.804 422.519 200.098 421.981 200.155 421.337H202.035C201.999 422.003 201.77 422.637 201.348 423.238C200.925 423.84 200.359 424.32 199.65 424.678C198.949 425.036 198.204 425.215 197.416 425.215C195.833 425.215 194.573 424.688 193.635 423.636C192.704 422.576 192.238 421.129 192.238 419.296V418.963C192.238 417.831 192.446 416.825 192.861 415.944C193.277 415.063 193.871 414.38 194.645 413.893C195.425 413.406 196.345 413.162 197.405 413.162C198.709 413.162 199.79 413.552 200.649 414.333C201.516 415.114 201.978 416.127 202.035 417.373H200.155C200.098 416.621 199.812 416.005 199.296 415.525C198.787 415.038 198.157 414.795 197.405 414.795C196.396 414.795 195.611 415.16 195.053 415.891C194.501 416.614 194.226 417.663 194.226 419.038V419.414C194.226 420.753 194.501 421.785 195.053 422.508C195.604 423.231 196.392 423.593 197.416 423.593ZM206.966 410.562V413.377H209.136V414.913H206.966V422.121C206.966 422.587 207.062 422.938 207.256 423.174C207.449 423.403 207.779 423.518 208.244 423.518C208.473 423.518 208.788 423.475 209.189 423.389V425C208.667 425.143 208.158 425.215 207.664 425.215C206.776 425.215 206.106 424.946 205.655 424.409C205.204 423.872 204.979 423.109 204.979 422.121V414.913H202.862V413.377H204.979V410.562H206.966ZM223.691 421.917C223.691 421.38 223.487 420.965 223.079 420.671C222.678 420.37 221.973 420.112 220.963 419.897C219.96 419.683 219.162 419.425 218.567 419.124C217.98 418.823 217.543 418.465 217.257 418.05C216.978 417.634 216.838 417.14 216.838 416.567C216.838 415.615 217.239 414.809 218.041 414.15C218.85 413.492 219.882 413.162 221.135 413.162C222.452 413.162 223.52 413.502 224.336 414.183C225.16 414.863 225.571 415.733 225.571 416.793H223.573C223.573 416.249 223.34 415.78 222.875 415.386C222.417 414.992 221.837 414.795 221.135 414.795C220.411 414.795 219.846 414.952 219.438 415.268C219.029 415.583 218.825 415.994 218.825 416.503C218.825 416.983 219.015 417.344 219.395 417.588C219.774 417.831 220.458 418.064 221.446 418.286C222.442 418.508 223.247 418.773 223.863 419.081C224.479 419.389 224.934 419.761 225.228 420.198C225.528 420.628 225.679 421.154 225.679 421.777C225.679 422.816 225.263 423.65 224.433 424.28C223.602 424.903 222.524 425.215 221.199 425.215C220.268 425.215 219.445 425.05 218.729 424.721C218.012 424.391 217.45 423.933 217.042 423.346C216.641 422.751 216.44 422.11 216.44 421.423H218.428C218.464 422.089 218.729 422.619 219.223 423.013C219.724 423.399 220.383 423.593 221.199 423.593C221.951 423.593 222.553 423.442 223.004 423.142C223.462 422.834 223.691 422.425 223.691 421.917ZM230.964 410.562V413.377H233.134V414.913H230.964V422.121C230.964 422.587 231.061 422.938 231.254 423.174C231.447 423.403 231.777 423.518 232.242 423.518C232.471 423.518 232.786 423.475 233.188 423.389V425C232.665 425.143 232.156 425.215 231.662 425.215C230.774 425.215 230.104 424.946 229.653 424.409C229.202 423.872 228.977 423.109 228.977 422.121V414.913H226.86V413.377H228.977V410.562H230.964ZM234.724 419.081C234.724 417.942 234.946 416.918 235.39 416.009C235.841 415.099 236.464 414.397 237.259 413.903C238.061 413.409 238.974 413.162 239.998 413.162C241.581 413.162 242.859 413.71 243.833 414.806C244.814 415.901 245.305 417.359 245.305 419.178V419.317C245.305 420.449 245.086 421.466 244.649 422.368C244.22 423.263 243.6 423.962 242.791 424.463C241.989 424.964 241.065 425.215 240.02 425.215C238.444 425.215 237.166 424.667 236.185 423.571C235.211 422.476 234.724 421.025 234.724 419.221V419.081ZM236.722 419.317C236.722 420.606 237.019 421.641 237.613 422.422C238.215 423.202 239.017 423.593 240.02 423.593C241.029 423.593 241.831 423.199 242.426 422.411C243.02 421.616 243.317 420.506 243.317 419.081C243.317 417.806 243.013 416.775 242.404 415.987C241.803 415.192 241.001 414.795 239.998 414.795C239.017 414.795 238.226 415.185 237.624 415.966C237.022 416.746 236.722 417.864 236.722 419.317ZM253.415 415.16C253.114 415.11 252.788 415.085 252.438 415.085C251.134 415.085 250.25 415.64 249.784 416.75V425H247.797V413.377H249.73L249.763 414.72C250.414 413.681 251.338 413.162 252.534 413.162C252.921 413.162 253.215 413.212 253.415 413.312V415.16ZM259.86 425.215C258.285 425.215 257.003 424.699 256.015 423.668C255.026 422.63 254.532 421.244 254.532 419.511V419.146C254.532 417.993 254.751 416.965 255.188 416.062C255.632 415.153 256.247 414.444 257.035 413.936C257.83 413.42 258.689 413.162 259.613 413.162C261.124 413.162 262.299 413.66 263.137 414.655C263.975 415.651 264.394 417.076 264.394 418.931V419.758H256.52C256.548 420.904 256.881 421.831 257.519 422.54C258.163 423.242 258.979 423.593 259.968 423.593C260.67 423.593 261.264 423.45 261.751 423.163C262.238 422.877 262.664 422.497 263.029 422.024L264.243 422.97C263.269 424.466 261.808 425.215 259.86 425.215ZM259.613 414.795C258.811 414.795 258.138 415.089 257.594 415.676C257.049 416.256 256.713 417.072 256.584 418.125H262.406V417.975C262.349 416.965 262.077 416.184 261.59 415.633C261.103 415.074 260.444 414.795 259.613 414.795ZM273.471 421.917C273.471 421.38 273.267 420.965 272.858 420.671C272.457 420.37 271.752 420.112 270.742 419.897C269.74 419.683 268.941 419.425 268.347 419.124C267.759 418.823 267.323 418.465 267.036 418.05C266.757 417.634 266.617 417.14 266.617 416.567C266.617 415.615 267.018 414.809 267.82 414.15C268.63 413.492 269.661 413.162 270.914 413.162C272.232 413.162 273.299 413.502 274.115 414.183C274.939 414.863 275.351 415.733 275.351 416.793H273.353C273.353 416.249 273.12 415.78 272.654 415.386C272.196 414.992 271.616 414.795 270.914 414.795C270.191 414.795 269.625 414.952 269.217 415.268C268.809 415.583 268.604 415.994 268.604 416.503C268.604 416.983 268.794 417.344 269.174 417.588C269.553 417.831 270.237 418.064 271.226 418.286C272.221 418.508 273.027 418.773 273.643 419.081C274.258 419.389 274.713 419.761 275.007 420.198C275.308 420.628 275.458 421.154 275.458 421.777C275.458 422.816 275.043 423.65 274.212 424.28C273.381 424.903 272.303 425.215 270.979 425.215C270.048 425.215 269.224 425.05 268.508 424.721C267.792 424.391 267.229 423.933 266.821 423.346C266.42 422.751 266.22 422.11 266.22 421.423H268.207C268.243 422.089 268.508 422.619 269.002 423.013C269.503 423.399 270.162 423.593 270.979 423.593C271.73 423.593 272.332 423.442 272.783 423.142C273.242 422.834 273.471 422.425 273.471 421.917Z" fill="black"/>
<path d="M0.90918 448.96C0.90918 447.93 1.0459 446.941 1.31934 445.993C1.59733 445.045 2.00977 444.184 2.55664 443.409C3.10352 442.634 3.6709 442.088 4.25879 441.769L4.51855 442.603C3.85319 443.113 3.30632 443.892 2.87793 444.94C2.4541 445.989 2.22168 447.162 2.18066 448.461L2.17383 449.042C2.17383 450.801 2.49512 452.328 3.1377 453.622C3.52507 454.397 3.98535 455.003 4.51855 455.44L4.25879 456.213C3.65267 455.876 3.07389 455.311 2.52246 454.518C1.44694 452.968 0.90918 451.116 0.90918 448.96ZM7.25293 449.104V453H5.94043V443.047H9.61133C10.7005 443.047 11.5527 443.325 12.168 443.881C12.7878 444.437 13.0977 445.173 13.0977 446.089C13.0977 447.055 12.7946 447.8 12.1885 448.324C11.5869 448.844 10.7233 449.104 9.59766 449.104H7.25293ZM7.25293 448.03H9.61133C10.3132 448.03 10.8509 447.866 11.2246 447.538C11.5983 447.205 11.7852 446.727 11.7852 446.103C11.7852 445.51 11.5983 445.036 11.2246 444.681C10.8509 444.325 10.3382 444.141 9.68652 444.127H7.25293V448.03ZM14.1436 449.233C14.1436 448.509 14.2848 447.857 14.5674 447.278C14.8545 446.7 15.251 446.253 15.7568 445.938C16.2673 445.624 16.8483 445.467 17.5 445.467C18.5072 445.467 19.3206 445.815 19.9404 446.513C20.5648 447.21 20.877 448.137 20.877 449.295V449.384C20.877 450.104 20.738 450.751 20.46 451.325C20.1865 451.895 19.7923 452.339 19.2773 452.658C18.7669 452.977 18.179 453.137 17.5137 453.137C16.5111 453.137 15.6976 452.788 15.0732 452.091C14.4535 451.394 14.1436 450.471 14.1436 449.322V449.233ZM15.415 449.384C15.415 450.204 15.6042 450.863 15.9824 451.359C16.3652 451.856 16.8757 452.104 17.5137 452.104C18.1562 452.104 18.6667 451.854 19.0449 451.353C19.4232 450.847 19.6123 450.14 19.6123 449.233C19.6123 448.422 19.4186 447.766 19.0312 447.265C18.6484 446.759 18.138 446.506 17.5 446.506C16.8757 446.506 16.3721 446.754 15.9893 447.251C15.6064 447.748 15.415 448.459 15.415 449.384ZM26.7695 451.038C26.7695 450.696 26.6396 450.432 26.3799 450.245C26.1247 450.054 25.6758 449.89 25.0332 449.753C24.3952 449.616 23.887 449.452 23.5088 449.261C23.1351 449.069 22.8571 448.841 22.6748 448.577C22.4971 448.313 22.4082 447.998 22.4082 447.634C22.4082 447.028 22.6634 446.515 23.1738 446.096C23.6888 445.676 24.3451 445.467 25.1426 445.467C25.9811 445.467 26.6602 445.683 27.1797 446.116C27.7038 446.549 27.9658 447.103 27.9658 447.777H26.6943C26.6943 447.431 26.5462 447.132 26.25 446.882C25.9583 446.631 25.5892 446.506 25.1426 446.506C24.6823 446.506 24.3223 446.606 24.0625 446.807C23.8027 447.007 23.6729 447.269 23.6729 447.593C23.6729 447.898 23.7936 448.128 24.0352 448.283C24.2767 448.438 24.7119 448.586 25.3408 448.728C25.9743 448.869 26.487 449.037 26.8789 449.233C27.2708 449.429 27.5602 449.666 27.7471 449.944C27.9385 450.218 28.0342 450.553 28.0342 450.949C28.0342 451.61 27.7699 452.141 27.2412 452.542C26.7126 452.938 26.0267 453.137 25.1836 453.137C24.5911 453.137 24.0671 453.032 23.6113 452.822C23.1556 452.613 22.7979 452.321 22.5381 451.947C22.2829 451.569 22.1553 451.161 22.1553 450.724H23.4199C23.4427 451.147 23.6113 451.485 23.9258 451.735C24.2448 451.981 24.6641 452.104 25.1836 452.104C25.6621 452.104 26.0449 452.009 26.332 451.817C26.6237 451.621 26.7695 451.362 26.7695 451.038ZM31.3975 443.812V445.604H32.7783V446.581H31.3975V451.168C31.3975 451.464 31.459 451.688 31.582 451.838C31.7051 451.984 31.9147 452.057 32.2109 452.057C32.3568 452.057 32.5573 452.029 32.8125 451.975V453C32.4798 453.091 32.1562 453.137 31.8418 453.137C31.2767 453.137 30.8506 452.966 30.5635 452.624C30.2764 452.282 30.1328 451.797 30.1328 451.168V446.581H28.7861V445.604H30.1328V443.812H31.3975ZM33.9609 449.24C33.9609 448.087 34.2275 447.171 34.7607 446.492C35.2939 445.809 36.0003 445.467 36.8799 445.467C37.7822 445.467 38.4863 445.786 38.9922 446.424L39.0537 445.604H40.209V452.822C40.209 453.779 39.9242 454.534 39.3545 455.085C38.7894 455.636 38.0283 455.912 37.0713 455.912C36.5381 455.912 36.0163 455.798 35.5059 455.57C34.9954 455.342 34.6058 455.03 34.3369 454.634L34.9932 453.875C35.5355 454.545 36.1986 454.88 36.9824 454.88C37.5977 454.88 38.0762 454.707 38.418 454.36C38.7643 454.014 38.9375 453.526 38.9375 452.897V452.262C38.4316 452.845 37.7412 453.137 36.8662 453.137C36.0003 453.137 35.2985 452.788 34.7607 452.091C34.2275 451.394 33.9609 450.443 33.9609 449.24ZM35.2324 449.384C35.2324 450.218 35.4033 450.874 35.7451 451.353C36.0869 451.826 36.5654 452.063 37.1807 452.063C37.9782 452.063 38.5638 451.701 38.9375 450.977V447.6C38.5501 446.893 37.9691 446.54 37.1943 446.54C36.5791 446.54 36.0983 446.779 35.752 447.258C35.4056 447.736 35.2324 448.445 35.2324 449.384ZM45.6982 446.738C45.5068 446.706 45.2995 446.69 45.0762 446.69C44.2467 446.69 43.6839 447.044 43.3877 447.75V453H42.123V445.604H43.3535L43.374 446.458C43.7887 445.797 44.3766 445.467 45.1377 445.467C45.3838 445.467 45.5706 445.499 45.6982 445.562V446.738ZM49.7998 453.137C48.7972 453.137 47.9814 452.809 47.3525 452.152C46.7236 451.492 46.4092 450.61 46.4092 449.507V449.274C46.4092 448.541 46.5482 447.887 46.8262 447.312C47.1087 446.734 47.5007 446.283 48.002 445.959C48.5078 445.631 49.0547 445.467 49.6426 445.467C50.6042 445.467 51.3516 445.784 51.8848 446.417C52.418 447.05 52.6846 447.957 52.6846 449.138V449.664H47.6738C47.6921 450.393 47.904 450.983 48.3096 451.435C48.7197 451.881 49.2393 452.104 49.8682 452.104C50.3148 452.104 50.693 452.013 51.0029 451.831C51.3128 451.649 51.584 451.407 51.8164 451.106L52.5889 451.708C51.9691 452.66 51.0394 453.137 49.7998 453.137ZM49.6426 446.506C49.1322 446.506 48.7038 446.693 48.3574 447.066C48.0111 447.436 47.7969 447.955 47.7148 448.625H51.4199V448.529C51.3835 447.887 51.2103 447.39 50.9004 447.039C50.5905 446.684 50.1712 446.506 49.6426 446.506ZM57.2852 448.563C56.1595 448.24 55.3392 447.843 54.8242 447.374C54.3138 446.9 54.0586 446.317 54.0586 445.624C54.0586 444.84 54.3708 444.193 54.9951 443.683C55.624 443.168 56.4398 442.91 57.4424 442.91C58.126 442.91 58.7344 443.042 59.2676 443.307C59.8053 443.571 60.2201 443.936 60.5117 444.4C60.8079 444.865 60.9561 445.373 60.9561 445.925H59.6367C59.6367 445.323 59.4453 444.852 59.0625 444.51C58.6797 444.163 58.1396 443.99 57.4424 443.99C56.7952 443.99 56.2894 444.134 55.9248 444.421C55.5648 444.703 55.3848 445.098 55.3848 445.604C55.3848 446.009 55.5557 446.353 55.8975 446.636C56.2438 446.914 56.8294 447.169 57.6543 447.401C58.4837 447.634 59.1309 447.891 59.5957 448.174C60.0651 448.452 60.4115 448.778 60.6348 449.151C60.8626 449.525 60.9766 449.965 60.9766 450.471C60.9766 451.277 60.6621 451.924 60.0332 452.412C59.4043 452.895 58.5635 453.137 57.5107 453.137C56.8271 453.137 56.1891 453.007 55.5967 452.747C55.0042 452.483 54.5462 452.123 54.2227 451.667C53.9036 451.211 53.7441 450.694 53.7441 450.115H55.0635C55.0635 450.717 55.2845 451.193 55.7266 451.544C56.1732 451.89 56.7679 452.063 57.5107 452.063C58.2035 452.063 58.7344 451.922 59.1035 451.64C59.4727 451.357 59.6572 450.972 59.6572 450.484C59.6572 449.997 59.4863 449.621 59.1445 449.356C58.8027 449.088 58.1829 448.823 57.2852 448.563ZM70.2666 448.345C70.2666 449.306 70.1139 450.136 69.8086 450.833C69.5033 451.526 69.0749 452.068 68.5234 452.46L70.3008 453.854L69.4053 454.682L67.3066 453.014C66.9785 453.096 66.6322 453.137 66.2676 453.137C65.4837 453.137 64.7887 452.945 64.1826 452.562C63.5765 452.175 63.1048 451.626 62.7676 450.915C62.4349 450.2 62.264 449.372 62.2549 448.434V447.716C62.2549 446.759 62.4212 445.913 62.7539 445.18C63.0866 444.446 63.556 443.885 64.1621 443.498C64.7728 443.106 65.4701 442.91 66.2539 442.91C67.056 442.91 67.7601 443.104 68.3662 443.491C68.9769 443.879 69.4463 444.437 69.7744 445.166C70.1025 445.891 70.2666 446.738 70.2666 447.709V448.345ZM68.9541 447.702C68.9541 446.531 68.7194 445.629 68.25 444.995C67.7852 444.357 67.1198 444.038 66.2539 444.038C65.429 444.038 64.7773 444.355 64.2988 444.988C63.8249 445.617 63.5811 446.492 63.5674 447.613V448.345C63.5674 449.484 63.8044 450.382 64.2783 451.038C64.7568 451.694 65.4199 452.022 66.2676 452.022C67.1152 452.022 67.7715 451.715 68.2363 451.1C68.7012 450.48 68.9404 449.593 68.9541 448.44V447.702ZM73.6094 451.927H78.3262V453H72.29V443.047H73.6094V451.927ZM79.584 454.982L78.8662 454.49C79.2946 453.893 79.5179 453.278 79.5361 452.645V451.503H80.7734V452.494C80.7734 452.954 80.6595 453.415 80.4316 453.875C80.2083 454.335 79.9258 454.704 79.584 454.982ZM89.6943 448.974H87.3564V453H86.0371V443.047H89.332C90.4531 443.047 91.3145 443.302 91.916 443.812C92.5221 444.323 92.8252 445.066 92.8252 446.041C92.8252 446.661 92.6566 447.201 92.3193 447.661C91.9867 448.121 91.5218 448.465 90.9248 448.693L93.2627 452.918V453H91.8545L89.6943 448.974ZM87.3564 447.9H89.373C90.0247 447.9 90.542 447.732 90.9248 447.395C91.3122 447.057 91.5059 446.606 91.5059 446.041C91.5059 445.426 91.3213 444.954 90.9521 444.626C90.5876 444.298 90.0589 444.132 89.3662 444.127H87.3564V447.9ZM97.542 453.137C96.5394 453.137 95.7236 452.809 95.0947 452.152C94.4658 451.492 94.1514 450.61 94.1514 449.507V449.274C94.1514 448.541 94.2904 447.887 94.5684 447.312C94.8509 446.734 95.2428 446.283 95.7441 445.959C96.25 445.631 96.7969 445.467 97.3848 445.467C98.3464 445.467 99.0938 445.784 99.627 446.417C100.16 447.05 100.427 447.957 100.427 449.138V449.664H95.416C95.4342 450.393 95.6462 450.983 96.0518 451.435C96.4619 451.881 96.9814 452.104 97.6104 452.104C98.057 452.104 98.4352 452.013 98.7451 451.831C99.055 451.649 99.3262 451.407 99.5586 451.106L100.331 451.708C99.7113 452.66 98.7816 453.137 97.542 453.137ZM97.3848 446.506C96.8743 446.506 96.446 446.693 96.0996 447.066C95.7533 447.436 95.5391 447.955 95.457 448.625H99.1621V448.529C99.1257 447.887 98.9525 447.39 98.6426 447.039C98.3327 446.684 97.9134 446.506 97.3848 446.506ZM101.589 449.24C101.589 448.105 101.858 447.194 102.396 446.506C102.933 445.813 103.637 445.467 104.508 445.467C105.374 445.467 106.06 445.763 106.565 446.355V442.5H107.83V453H106.668L106.606 452.207C106.101 452.827 105.396 453.137 104.494 453.137C103.637 453.137 102.938 452.786 102.396 452.084C101.858 451.382 101.589 450.466 101.589 449.336V449.24ZM102.854 449.384C102.854 450.222 103.027 450.879 103.373 451.353C103.719 451.826 104.198 452.063 104.809 452.063C105.611 452.063 106.196 451.703 106.565 450.983V447.586C106.187 446.889 105.606 446.54 104.822 446.54C104.202 446.54 103.719 446.779 103.373 447.258C103.027 447.736 102.854 448.445 102.854 449.384ZM111.173 453H109.908V445.604H111.173V453ZM109.806 443.642C109.806 443.437 109.867 443.263 109.99 443.122C110.118 442.981 110.305 442.91 110.551 442.91C110.797 442.91 110.984 442.981 111.111 443.122C111.239 443.263 111.303 443.437 111.303 443.642C111.303 443.847 111.239 444.018 111.111 444.154C110.984 444.291 110.797 444.359 110.551 444.359C110.305 444.359 110.118 444.291 109.99 444.154C109.867 444.018 109.806 443.847 109.806 443.642ZM117.51 451.038C117.51 450.696 117.38 450.432 117.12 450.245C116.865 450.054 116.416 449.89 115.773 449.753C115.135 449.616 114.627 449.452 114.249 449.261C113.875 449.069 113.597 448.841 113.415 448.577C113.237 448.313 113.148 447.998 113.148 447.634C113.148 447.028 113.404 446.515 113.914 446.096C114.429 445.676 115.085 445.467 115.883 445.467C116.721 445.467 117.4 445.683 117.92 446.116C118.444 446.549 118.706 447.103 118.706 447.777H117.435C117.435 447.431 117.286 447.132 116.99 446.882C116.699 446.631 116.329 446.506 115.883 446.506C115.423 446.506 115.062 446.606 114.803 446.807C114.543 447.007 114.413 447.269 114.413 447.593C114.413 447.898 114.534 448.128 114.775 448.283C115.017 448.438 115.452 448.586 116.081 448.728C116.715 448.869 117.227 449.037 117.619 449.233C118.011 449.429 118.3 449.666 118.487 449.944C118.679 450.218 118.774 450.553 118.774 450.949C118.774 451.61 118.51 452.141 117.981 452.542C117.453 452.938 116.767 453.137 115.924 453.137C115.331 453.137 114.807 453.032 114.352 452.822C113.896 452.613 113.538 452.321 113.278 451.947C113.023 451.569 112.896 451.161 112.896 450.724H114.16C114.183 451.147 114.352 451.485 114.666 451.735C114.985 451.981 115.404 452.104 115.924 452.104C116.402 452.104 116.785 452.009 117.072 451.817C117.364 451.621 117.51 451.362 117.51 451.038ZM120.381 454.982L119.663 454.49C120.091 453.893 120.315 453.278 120.333 452.645V451.503H121.57V452.494C121.57 452.954 121.456 453.415 121.229 453.875C121.005 454.335 120.723 454.704 120.381 454.982ZM132.467 448.399H128.153V451.927H133.164V453H126.841V443.047H133.096V444.127H128.153V447.326H132.467V448.399ZM135.974 453H134.709V442.5H135.974V453ZM142.57 453C142.497 452.854 142.438 452.594 142.393 452.221C141.805 452.831 141.103 453.137 140.287 453.137C139.558 453.137 138.959 452.932 138.489 452.521C138.024 452.107 137.792 451.583 137.792 450.949C137.792 450.179 138.084 449.582 138.667 449.158C139.255 448.73 140.08 448.516 141.142 448.516H142.372V447.935C142.372 447.493 142.24 447.142 141.976 446.882C141.711 446.618 141.322 446.485 140.807 446.485C140.355 446.485 139.977 446.599 139.672 446.827C139.367 447.055 139.214 447.331 139.214 447.654H137.942C137.942 447.285 138.072 446.93 138.332 446.588C138.596 446.242 138.952 445.968 139.398 445.768C139.85 445.567 140.344 445.467 140.882 445.467C141.734 445.467 142.402 445.681 142.885 446.109C143.368 446.533 143.618 447.119 143.637 447.866V451.271C143.637 451.95 143.723 452.49 143.896 452.891V453H142.57ZM140.472 452.036C140.868 452.036 141.244 451.934 141.6 451.729C141.955 451.523 142.213 451.257 142.372 450.929V449.411H141.381C139.831 449.411 139.057 449.865 139.057 450.771C139.057 451.168 139.189 451.478 139.453 451.701C139.717 451.924 140.057 452.036 140.472 452.036ZM149.926 451.038C149.926 450.696 149.796 450.432 149.536 450.245C149.281 450.054 148.832 449.89 148.189 449.753C147.551 449.616 147.043 449.452 146.665 449.261C146.291 449.069 146.013 448.841 145.831 448.577C145.653 448.313 145.564 447.998 145.564 447.634C145.564 447.028 145.82 446.515 146.33 446.096C146.845 445.676 147.501 445.467 148.299 445.467C149.137 445.467 149.816 445.683 150.336 446.116C150.86 446.549 151.122 447.103 151.122 447.777H149.851C149.851 447.431 149.702 447.132 149.406 446.882C149.115 446.631 148.745 446.506 148.299 446.506C147.839 446.506 147.479 446.606 147.219 446.807C146.959 447.007 146.829 447.269 146.829 447.593C146.829 447.898 146.95 448.128 147.191 448.283C147.433 448.438 147.868 448.586 148.497 448.728C149.131 448.869 149.643 449.037 150.035 449.233C150.427 449.429 150.716 449.666 150.903 449.944C151.095 450.218 151.19 450.553 151.19 450.949C151.19 451.61 150.926 452.141 150.397 452.542C149.869 452.938 149.183 453.137 148.34 453.137C147.747 453.137 147.223 453.032 146.768 452.822C146.312 452.613 145.954 452.321 145.694 451.947C145.439 451.569 145.312 451.161 145.312 450.724H146.576C146.599 451.147 146.768 451.485 147.082 451.735C147.401 451.981 147.82 452.104 148.34 452.104C148.818 452.104 149.201 452.009 149.488 451.817C149.78 451.621 149.926 451.362 149.926 451.038ZM154.554 443.812V445.604H155.935V446.581H154.554V451.168C154.554 451.464 154.615 451.688 154.738 451.838C154.861 451.984 155.071 452.057 155.367 452.057C155.513 452.057 155.714 452.029 155.969 451.975V453C155.636 453.091 155.312 453.137 154.998 453.137C154.433 453.137 154.007 452.966 153.72 452.624C153.433 452.282 153.289 451.797 153.289 451.168V446.581H151.942V445.604H153.289V443.812H154.554ZM158.792 453H157.527V445.604H158.792V453ZM157.425 443.642C157.425 443.437 157.486 443.263 157.609 443.122C157.737 442.981 157.924 442.91 158.17 442.91C158.416 442.91 158.603 442.981 158.73 443.122C158.858 443.263 158.922 443.437 158.922 443.642C158.922 443.847 158.858 444.018 158.73 444.154C158.603 444.291 158.416 444.359 158.17 444.359C157.924 444.359 157.737 444.291 157.609 444.154C157.486 444.018 157.425 443.847 157.425 443.642ZM163.789 452.104C164.24 452.104 164.634 451.968 164.972 451.694C165.309 451.421 165.496 451.079 165.532 450.669H166.729C166.706 451.093 166.56 451.496 166.291 451.879C166.022 452.262 165.662 452.567 165.211 452.795C164.764 453.023 164.29 453.137 163.789 453.137C162.782 453.137 161.98 452.802 161.383 452.132C160.79 451.457 160.494 450.537 160.494 449.37V449.158C160.494 448.438 160.626 447.798 160.891 447.237C161.155 446.677 161.533 446.242 162.025 445.932C162.522 445.622 163.108 445.467 163.782 445.467C164.612 445.467 165.3 445.715 165.847 446.212C166.398 446.709 166.692 447.354 166.729 448.146H165.532C165.496 447.668 165.313 447.276 164.985 446.971C164.662 446.661 164.261 446.506 163.782 446.506C163.14 446.506 162.641 446.738 162.285 447.203C161.934 447.663 161.759 448.331 161.759 449.206V449.445C161.759 450.298 161.934 450.954 162.285 451.414C162.636 451.874 163.137 452.104 163.789 452.104ZM172.457 451.038C172.457 450.696 172.327 450.432 172.067 450.245C171.812 450.054 171.363 449.89 170.721 449.753C170.083 449.616 169.575 449.452 169.196 449.261C168.823 449.069 168.545 448.841 168.362 448.577C168.185 448.313 168.096 447.998 168.096 447.634C168.096 447.028 168.351 446.515 168.861 446.096C169.376 445.676 170.033 445.467 170.83 445.467C171.669 445.467 172.348 445.683 172.867 446.116C173.391 446.549 173.653 447.103 173.653 447.777H172.382C172.382 447.431 172.234 447.132 171.938 446.882C171.646 446.631 171.277 446.506 170.83 446.506C170.37 446.506 170.01 446.606 169.75 446.807C169.49 447.007 169.36 447.269 169.36 447.593C169.36 447.898 169.481 448.128 169.723 448.283C169.964 448.438 170.399 448.586 171.028 448.728C171.662 448.869 172.174 449.037 172.566 449.233C172.958 449.429 173.248 449.666 173.435 449.944C173.626 450.218 173.722 450.553 173.722 450.949C173.722 451.61 173.457 452.141 172.929 452.542C172.4 452.938 171.714 453.137 170.871 453.137C170.279 453.137 169.755 453.032 169.299 452.822C168.843 452.613 168.485 452.321 168.226 451.947C167.97 451.569 167.843 451.161 167.843 450.724H169.107C169.13 451.147 169.299 451.485 169.613 451.735C169.932 451.981 170.352 452.104 170.871 452.104C171.35 452.104 171.732 452.009 172.02 451.817C172.311 451.621 172.457 451.362 172.457 451.038ZM178.438 453.137C177.436 453.137 176.62 452.809 175.991 452.152C175.362 451.492 175.048 450.61 175.048 449.507V449.274C175.048 448.541 175.187 447.887 175.465 447.312C175.747 446.734 176.139 446.283 176.641 445.959C177.146 445.631 177.693 445.467 178.281 445.467C179.243 445.467 179.99 445.784 180.523 446.417C181.057 447.05 181.323 447.957 181.323 449.138V449.664H176.312C176.331 450.393 176.543 450.983 176.948 451.435C177.358 451.881 177.878 452.104 178.507 452.104C178.953 452.104 179.332 452.013 179.642 451.831C179.951 451.649 180.223 451.407 180.455 451.106L181.228 451.708C180.608 452.66 179.678 453.137 178.438 453.137ZM178.281 446.506C177.771 446.506 177.342 446.693 176.996 447.066C176.65 447.436 176.436 447.955 176.354 448.625H180.059V448.529C180.022 447.887 179.849 447.39 179.539 447.039C179.229 446.684 178.81 446.506 178.281 446.506ZM187.359 453C187.286 452.854 187.227 452.594 187.182 452.221C186.594 452.831 185.892 453.137 185.076 453.137C184.347 453.137 183.748 452.932 183.278 452.521C182.813 452.107 182.581 451.583 182.581 450.949C182.581 450.179 182.873 449.582 183.456 449.158C184.044 448.73 184.869 448.516 185.931 448.516H187.161V447.935C187.161 447.493 187.029 447.142 186.765 446.882C186.5 446.618 186.111 446.485 185.596 446.485C185.145 446.485 184.766 446.599 184.461 446.827C184.156 447.055 184.003 447.331 184.003 447.654H182.731C182.731 447.285 182.861 446.93 183.121 446.588C183.385 446.242 183.741 445.968 184.188 445.768C184.639 445.567 185.133 445.467 185.671 445.467C186.523 445.467 187.191 445.681 187.674 446.109C188.157 446.533 188.408 447.119 188.426 447.866V451.271C188.426 451.95 188.512 452.49 188.686 452.891V453H187.359ZM185.261 452.036C185.657 452.036 186.033 451.934 186.389 451.729C186.744 451.523 187.002 451.257 187.161 450.929V449.411H186.17C184.62 449.411 183.846 449.865 183.846 450.771C183.846 451.168 183.978 451.478 184.242 451.701C184.507 451.924 184.846 452.036 185.261 452.036ZM193.983 446.738C193.792 446.706 193.585 446.69 193.361 446.69C192.532 446.69 191.969 447.044 191.673 447.75V453H190.408V445.604H191.639L191.659 446.458C192.074 445.797 192.662 445.467 193.423 445.467C193.669 445.467 193.856 445.499 193.983 445.562V446.738ZM197.982 452.104C198.434 452.104 198.828 451.968 199.165 451.694C199.502 451.421 199.689 451.079 199.726 450.669H200.922C200.899 451.093 200.753 451.496 200.484 451.879C200.215 452.262 199.855 452.567 199.404 452.795C198.958 453.023 198.484 453.137 197.982 453.137C196.975 453.137 196.173 452.802 195.576 452.132C194.984 451.457 194.688 450.537 194.688 449.37V449.158C194.688 448.438 194.82 447.798 195.084 447.237C195.348 446.677 195.727 446.242 196.219 445.932C196.715 445.622 197.301 445.467 197.976 445.467C198.805 445.467 199.493 445.715 200.04 446.212C200.591 446.709 200.885 447.354 200.922 448.146H199.726C199.689 447.668 199.507 447.276 199.179 446.971C198.855 446.661 198.454 446.506 197.976 446.506C197.333 446.506 196.834 446.738 196.479 447.203C196.128 447.663 195.952 448.331 195.952 449.206V449.445C195.952 450.298 196.128 450.954 196.479 451.414C196.829 451.874 197.331 452.104 197.982 452.104ZM203.608 446.499C204.169 445.811 204.898 445.467 205.796 445.467C207.359 445.467 208.147 446.349 208.161 448.112V453H206.896V448.105C206.892 447.572 206.769 447.178 206.527 446.923C206.29 446.668 205.919 446.54 205.413 446.54C205.003 446.54 204.643 446.649 204.333 446.868C204.023 447.087 203.782 447.374 203.608 447.729V453H202.344V442.5H203.608V446.499ZM210.014 454.982L209.296 454.49C209.724 453.893 209.948 453.278 209.966 452.645V451.503H211.203V452.494C211.203 452.954 211.089 453.415 210.861 453.875C210.638 454.335 210.355 454.704 210.014 454.982ZM223.795 449.842C223.672 450.895 223.282 451.708 222.626 452.282C221.974 452.852 221.106 453.137 220.021 453.137C218.846 453.137 217.902 452.715 217.191 451.872C216.485 451.029 216.132 449.901 216.132 448.488V447.531C216.132 446.606 216.296 445.793 216.624 445.091C216.957 444.389 217.426 443.851 218.032 443.478C218.638 443.099 219.34 442.91 220.138 442.91C221.195 442.91 222.043 443.206 222.681 443.799C223.319 444.387 223.69 445.202 223.795 446.246H222.476C222.362 445.453 222.113 444.879 221.73 444.523C221.352 444.168 220.821 443.99 220.138 443.99C219.299 443.99 218.641 444.3 218.162 444.92C217.688 445.54 217.451 446.422 217.451 447.565V448.529C217.451 449.609 217.677 450.468 218.128 451.106C218.579 451.744 219.21 452.063 220.021 452.063C220.751 452.063 221.309 451.899 221.696 451.571C222.088 451.239 222.348 450.662 222.476 449.842H223.795ZM226.769 453H225.504V442.5H226.769V453ZM230.173 453H228.908V445.604H230.173V453ZM228.806 443.642C228.806 443.437 228.867 443.263 228.99 443.122C229.118 442.981 229.305 442.91 229.551 442.91C229.797 442.91 229.984 442.981 230.111 443.122C230.239 443.263 230.303 443.437 230.303 443.642C230.303 443.847 230.239 444.018 230.111 444.154C229.984 444.291 229.797 444.359 229.551 444.359C229.305 444.359 229.118 444.291 228.99 444.154C228.867 444.018 228.806 443.847 228.806 443.642ZM235.17 452.104C235.621 452.104 236.015 451.968 236.353 451.694C236.69 451.421 236.877 451.079 236.913 450.669H238.109C238.087 451.093 237.941 451.496 237.672 451.879C237.403 452.262 237.043 452.567 236.592 452.795C236.145 453.023 235.671 453.137 235.17 453.137C234.163 453.137 233.361 452.802 232.764 452.132C232.171 451.457 231.875 450.537 231.875 449.37V449.158C231.875 448.438 232.007 447.798 232.271 447.237C232.536 446.677 232.914 446.242 233.406 445.932C233.903 445.622 234.489 445.467 235.163 445.467C235.993 445.467 236.681 445.715 237.228 446.212C237.779 446.709 238.073 447.354 238.109 448.146H236.913C236.877 447.668 236.694 447.276 236.366 446.971C236.043 446.661 235.642 446.506 235.163 446.506C234.521 446.506 234.021 446.738 233.666 447.203C233.315 447.663 233.14 448.331 233.14 449.206V449.445C233.14 450.298 233.315 450.954 233.666 451.414C234.017 451.874 234.518 452.104 235.17 452.104ZM241.596 449.575L240.803 450.402V453H239.538V442.5H240.803V448.851L241.479 448.037L243.783 445.604H245.321L242.443 448.693L245.656 453H244.173L241.596 449.575ZM247.892 446.499C248.452 445.811 249.181 445.467 250.079 445.467C251.642 445.467 252.431 446.349 252.444 448.112V453H251.18V448.105C251.175 447.572 251.052 447.178 250.811 446.923C250.574 446.668 250.202 446.54 249.696 446.54C249.286 446.54 248.926 446.649 248.616 446.868C248.306 447.087 248.065 447.374 247.892 447.729V453H246.627V442.5H247.892V446.499ZM254.003 449.233C254.003 448.509 254.144 447.857 254.427 447.278C254.714 446.7 255.11 446.253 255.616 445.938C256.127 445.624 256.708 445.467 257.359 445.467C258.367 445.467 259.18 445.815 259.8 446.513C260.424 447.21 260.736 448.137 260.736 449.295V449.384C260.736 450.104 260.597 450.751 260.319 451.325C260.046 451.895 259.652 452.339 259.137 452.658C258.626 452.977 258.038 453.137 257.373 453.137C256.37 453.137 255.557 452.788 254.933 452.091C254.313 451.394 254.003 450.471 254.003 449.322V449.233ZM255.274 449.384C255.274 450.204 255.464 450.863 255.842 451.359C256.225 451.856 256.735 452.104 257.373 452.104C258.016 452.104 258.526 451.854 258.904 451.353C259.283 450.847 259.472 450.14 259.472 449.233C259.472 448.422 259.278 447.766 258.891 447.265C258.508 446.759 257.997 446.506 257.359 446.506C256.735 446.506 256.231 446.754 255.849 447.251C255.466 447.748 255.274 448.459 255.274 449.384ZM266.889 452.269C266.396 452.847 265.674 453.137 264.722 453.137C263.933 453.137 263.332 452.909 262.917 452.453C262.507 451.993 262.299 451.314 262.295 450.416V445.604H263.56V450.382C263.56 451.503 264.015 452.063 264.927 452.063C265.893 452.063 266.535 451.703 266.854 450.983V445.604H268.119V453H266.916L266.889 452.269ZM274.354 451.038C274.354 450.696 274.224 450.432 273.964 450.245C273.709 450.054 273.26 449.89 272.617 449.753C271.979 449.616 271.471 449.452 271.093 449.261C270.719 449.069 270.441 448.841 270.259 448.577C270.081 448.313 269.992 447.998 269.992 447.634C269.992 447.028 270.247 446.515 270.758 446.096C271.273 445.676 271.929 445.467 272.727 445.467C273.565 445.467 274.244 445.683 274.764 446.116C275.288 446.549 275.55 447.103 275.55 447.777H274.278C274.278 447.431 274.13 447.132 273.834 446.882C273.542 446.631 273.173 446.506 272.727 446.506C272.266 446.506 271.906 446.606 271.646 446.807C271.387 447.007 271.257 447.269 271.257 447.593C271.257 447.898 271.378 448.128 271.619 448.283C271.861 448.438 272.296 448.586 272.925 448.728C273.558 448.869 274.071 449.037 274.463 449.233C274.855 449.429 275.144 449.666 275.331 449.944C275.522 450.218 275.618 450.553 275.618 450.949C275.618 451.61 275.354 452.141 274.825 452.542C274.297 452.938 273.611 453.137 272.768 453.137C272.175 453.137 271.651 453.032 271.195 452.822C270.74 452.613 270.382 452.321 270.122 451.947C269.867 451.569 269.739 451.161 269.739 450.724H271.004C271.027 451.147 271.195 451.485 271.51 451.735C271.829 451.981 272.248 452.104 272.768 452.104C273.246 452.104 273.629 452.009 273.916 451.817C274.208 451.621 274.354 451.362 274.354 451.038ZM280.335 453.137C279.332 453.137 278.517 452.809 277.888 452.152C277.259 451.492 276.944 450.61 276.944 449.507V449.274C276.944 448.541 277.083 447.887 277.361 447.312C277.644 446.734 278.036 446.283 278.537 445.959C279.043 445.631 279.59 445.467 280.178 445.467C281.139 445.467 281.887 445.784 282.42 446.417C282.953 447.05 283.22 447.957 283.22 449.138V449.664H278.209C278.227 450.393 278.439 450.983 278.845 451.435C279.255 451.881 279.774 452.104 280.403 452.104C280.85 452.104 281.228 452.013 281.538 451.831C281.848 451.649 282.119 451.407 282.352 451.106L283.124 451.708C282.504 452.66 281.575 453.137 280.335 453.137ZM280.178 446.506C279.667 446.506 279.239 446.693 278.893 447.066C278.546 447.436 278.332 447.955 278.25 448.625H281.955V448.529C281.919 447.887 281.745 447.39 281.436 447.039C281.126 446.684 280.706 446.506 280.178 446.506ZM284.717 452.337C284.717 452.118 284.781 451.936 284.908 451.79C285.04 451.644 285.236 451.571 285.496 451.571C285.756 451.571 285.952 451.644 286.084 451.79C286.221 451.936 286.289 452.118 286.289 452.337C286.289 452.547 286.221 452.722 286.084 452.863C285.952 453.005 285.756 453.075 285.496 453.075C285.236 453.075 285.04 453.005 284.908 452.863C284.781 452.722 284.717 452.547 284.717 452.337ZM288.408 452.337C288.408 452.118 288.472 451.936 288.6 451.79C288.732 451.644 288.928 451.571 289.188 451.571C289.447 451.571 289.643 451.644 289.775 451.79C289.912 451.936 289.98 452.118 289.98 452.337C289.98 452.547 289.912 452.722 289.775 452.863C289.643 453.005 289.447 453.075 289.188 453.075C288.928 453.075 288.732 453.005 288.6 452.863C288.472 452.722 288.408 452.547 288.408 452.337ZM292.1 452.337C292.1 452.118 292.163 451.936 292.291 451.79C292.423 451.644 292.619 451.571 292.879 451.571C293.139 451.571 293.335 451.644 293.467 451.79C293.604 451.936 293.672 452.118 293.672 452.337C293.672 452.547 293.604 452.722 293.467 452.863C293.335 453.005 293.139 453.075 292.879 453.075C292.619 453.075 292.423 453.005 292.291 452.863C292.163 452.722 292.1 452.547 292.1 452.337ZM298.683 449.028C298.683 450.045 298.548 451.02 298.279 451.954C298.015 452.884 297.607 453.743 297.056 454.531C296.509 455.32 295.935 455.88 295.333 456.213L295.066 455.44C295.768 454.903 296.331 454.069 296.755 452.938C297.183 451.804 297.402 450.546 297.411 449.165V448.946C297.411 447.989 297.311 447.101 297.11 446.28C296.91 445.455 296.63 444.717 296.27 444.065C295.914 443.414 295.513 442.906 295.066 442.541L295.333 441.769C295.935 442.101 296.507 442.657 297.049 443.437C297.596 444.216 298.004 445.075 298.272 446.014C298.546 446.952 298.683 447.957 298.683 449.028Z" fill="black"/>
<rect x="96" y="114" width="105" height="33" fill="white"/>
<path d="M79.8398 129.662C78.2318 129.2 77.0599 128.633 76.3242 127.963C75.5951 127.286 75.2305 126.452 75.2305 125.463C75.2305 124.343 75.6764 123.419 76.5684 122.689C77.4668 121.954 78.6322 121.586 80.0645 121.586C81.041 121.586 81.9102 121.775 82.6719 122.152C83.4401 122.53 84.0326 123.051 84.4492 123.715C84.8724 124.379 85.084 125.105 85.084 125.893H83.1992C83.1992 125.033 82.9258 124.359 82.3789 123.871C81.832 123.376 81.0605 123.129 80.0645 123.129C79.14 123.129 78.4173 123.334 77.8965 123.744C77.3822 124.148 77.125 124.711 77.125 125.434C77.125 126.013 77.3691 126.505 77.8574 126.908C78.3522 127.305 79.1888 127.67 80.3672 128.002C81.5521 128.334 82.4766 128.702 83.1406 129.105C83.8112 129.503 84.306 129.968 84.625 130.502C84.9505 131.036 85.1133 131.664 85.1133 132.387C85.1133 133.539 84.6641 134.464 83.7656 135.16C82.8672 135.85 81.666 136.195 80.1621 136.195C79.1855 136.195 78.2741 136.01 77.4277 135.639C76.5814 135.261 75.9271 134.747 75.4648 134.096C75.0091 133.445 74.7812 132.706 74.7812 131.879H76.666C76.666 132.738 76.9818 133.419 77.6133 133.92C78.2513 134.415 79.1009 134.662 80.1621 134.662C81.1517 134.662 81.9102 134.46 82.4375 134.057C82.9648 133.653 83.2285 133.103 83.2285 132.406C83.2285 131.71 82.9844 131.173 82.4961 130.795C82.0078 130.411 81.1224 130.033 79.8398 129.662ZM91.627 136.195C90.1947 136.195 89.0293 135.727 88.1309 134.789C87.2324 133.845 86.7832 132.585 86.7832 131.01V130.678C86.7832 129.63 86.9818 128.695 87.3789 127.875C87.7826 127.048 88.3424 126.404 89.0586 125.941C89.7812 125.473 90.5625 125.238 91.4023 125.238C92.776 125.238 93.8438 125.691 94.6055 126.596C95.3672 127.501 95.748 128.796 95.748 130.482V131.234H88.5898C88.6159 132.276 88.9186 133.119 89.498 133.764C90.084 134.402 90.8262 134.721 91.7246 134.721C92.3626 134.721 92.903 134.59 93.3457 134.33C93.7884 134.07 94.1758 133.725 94.5078 133.295L95.6113 134.154C94.7259 135.515 93.3978 136.195 91.627 136.195ZM91.4023 126.723C90.6732 126.723 90.0612 126.99 89.5664 127.523C89.0716 128.051 88.7656 128.793 88.6484 129.75H93.9414V129.613C93.8893 128.695 93.6419 127.986 93.1992 127.484C92.7565 126.977 92.1576 126.723 91.4023 126.723ZM102.955 127.055C102.682 127.009 102.385 126.986 102.066 126.986C100.882 126.986 100.077 127.491 99.6543 128.5V136H97.8477V125.434H99.6055L99.6348 126.654C100.227 125.71 101.067 125.238 102.154 125.238C102.506 125.238 102.773 125.284 102.955 125.375V127.055ZM108.287 133.549L110.904 125.434H112.75L108.961 136H107.584L103.756 125.434H105.602L108.287 133.549ZM116.451 136H114.645V125.434H116.451V136ZM114.498 122.631C114.498 122.338 114.586 122.09 114.762 121.889C114.944 121.687 115.211 121.586 115.562 121.586C115.914 121.586 116.181 121.687 116.363 121.889C116.546 122.09 116.637 122.338 116.637 122.631C116.637 122.924 116.546 123.168 116.363 123.363C116.181 123.559 115.914 123.656 115.562 123.656C115.211 123.656 114.944 123.559 114.762 123.363C114.586 123.168 114.498 122.924 114.498 122.631ZM123.59 134.721C124.234 134.721 124.798 134.525 125.279 134.135C125.761 133.744 126.028 133.256 126.08 132.67H127.789C127.757 133.275 127.548 133.852 127.164 134.398C126.78 134.945 126.266 135.382 125.621 135.707C124.983 136.033 124.306 136.195 123.59 136.195C122.151 136.195 121.005 135.717 120.152 134.76C119.306 133.796 118.883 132.481 118.883 130.814V130.512C118.883 129.483 119.072 128.568 119.449 127.768C119.827 126.967 120.367 126.345 121.07 125.902C121.78 125.46 122.617 125.238 123.58 125.238C124.765 125.238 125.748 125.593 126.529 126.303C127.317 127.012 127.737 127.934 127.789 129.066H126.08C126.028 128.383 125.768 127.823 125.299 127.387C124.837 126.944 124.264 126.723 123.58 126.723C122.662 126.723 121.949 127.055 121.441 127.719C120.94 128.376 120.689 129.33 120.689 130.58V130.922C120.689 132.139 120.94 133.077 121.441 133.734C121.943 134.392 122.659 134.721 123.59 134.721ZM134.205 136.195C132.773 136.195 131.607 135.727 130.709 134.789C129.811 133.845 129.361 132.585 129.361 131.01V130.678C129.361 129.63 129.56 128.695 129.957 127.875C130.361 127.048 130.921 126.404 131.637 125.941C132.359 125.473 133.141 125.238 133.98 125.238C135.354 125.238 136.422 125.691 137.184 126.596C137.945 127.501 138.326 128.796 138.326 130.482V131.234H131.168C131.194 132.276 131.497 133.119 132.076 133.764C132.662 134.402 133.404 134.721 134.303 134.721C134.941 134.721 135.481 134.59 135.924 134.33C136.367 134.07 136.754 133.725 137.086 133.295L138.189 134.154C137.304 135.515 135.976 136.195 134.205 136.195ZM133.98 126.723C133.251 126.723 132.639 126.99 132.145 127.523C131.65 128.051 131.344 128.793 131.227 129.75H136.52V129.613C136.467 128.695 136.22 127.986 135.777 127.484C135.335 126.977 134.736 126.723 133.98 126.723ZM156.129 131.488C155.953 132.992 155.396 134.154 154.459 134.975C153.528 135.788 152.288 136.195 150.738 136.195C149.059 136.195 147.711 135.593 146.695 134.389C145.686 133.184 145.182 131.573 145.182 129.555V128.188C145.182 126.866 145.416 125.704 145.885 124.701C146.36 123.699 147.031 122.93 147.896 122.396C148.762 121.856 149.765 121.586 150.904 121.586C152.415 121.586 153.626 122.009 154.537 122.855C155.449 123.695 155.979 124.861 156.129 126.352H154.244C154.081 125.219 153.727 124.398 153.18 123.891C152.639 123.383 151.881 123.129 150.904 123.129C149.706 123.129 148.766 123.572 148.082 124.457C147.405 125.342 147.066 126.602 147.066 128.236V129.613C147.066 131.156 147.389 132.383 148.033 133.295C148.678 134.206 149.579 134.662 150.738 134.662C151.78 134.662 152.577 134.428 153.131 133.959C153.691 133.484 154.062 132.66 154.244 131.488H156.129ZM157.936 130.619C157.936 129.584 158.137 128.653 158.541 127.826C158.951 126.999 159.518 126.361 160.24 125.912C160.969 125.463 161.799 125.238 162.73 125.238C164.169 125.238 165.331 125.736 166.217 126.732C167.109 127.729 167.555 129.053 167.555 130.707V130.834C167.555 131.863 167.356 132.787 166.959 133.607C166.568 134.421 166.005 135.056 165.27 135.512C164.54 135.967 163.701 136.195 162.75 136.195C161.318 136.195 160.156 135.697 159.264 134.701C158.378 133.705 157.936 132.387 157.936 130.746V130.619ZM159.752 130.834C159.752 132.006 160.022 132.947 160.562 133.656C161.109 134.366 161.839 134.721 162.75 134.721C163.668 134.721 164.397 134.363 164.938 133.646C165.478 132.924 165.748 131.915 165.748 130.619C165.748 129.46 165.471 128.523 164.918 127.807C164.371 127.084 163.642 126.723 162.73 126.723C161.839 126.723 161.119 127.077 160.572 127.787C160.025 128.497 159.752 129.512 159.752 130.834ZM171.529 125.434L171.588 126.762C172.395 125.746 173.45 125.238 174.752 125.238C176.985 125.238 178.111 126.498 178.131 129.018V136H176.324V129.008C176.318 128.246 176.142 127.683 175.797 127.318C175.458 126.954 174.928 126.771 174.205 126.771C173.619 126.771 173.105 126.928 172.662 127.24C172.219 127.553 171.874 127.963 171.627 128.471V136H169.82V125.434H171.529ZM183.307 122.875V125.434H185.279V126.83H183.307V133.383C183.307 133.806 183.395 134.125 183.57 134.34C183.746 134.548 184.046 134.652 184.469 134.652C184.677 134.652 184.964 134.613 185.328 134.535V136C184.853 136.13 184.391 136.195 183.941 136.195C183.134 136.195 182.525 135.951 182.115 135.463C181.705 134.975 181.5 134.281 181.5 133.383V126.83H179.576V125.434H181.5V122.875H183.307ZM191.783 136.195C190.351 136.195 189.186 135.727 188.287 134.789C187.389 133.845 186.939 132.585 186.939 131.01V130.678C186.939 129.63 187.138 128.695 187.535 127.875C187.939 127.048 188.499 126.404 189.215 125.941C189.938 125.473 190.719 125.238 191.559 125.238C192.932 125.238 194 125.691 194.762 126.596C195.523 127.501 195.904 128.796 195.904 130.482V131.234H188.746C188.772 132.276 189.075 133.119 189.654 133.764C190.24 134.402 190.982 134.721 191.881 134.721C192.519 134.721 193.059 134.59 193.502 134.33C193.945 134.07 194.332 133.725 194.664 133.295L195.768 134.154C194.882 135.515 193.554 136.195 191.783 136.195ZM191.559 126.723C190.829 126.723 190.217 126.99 189.723 127.523C189.228 128.051 188.922 128.793 188.805 129.75H194.098V129.613C194.046 128.695 193.798 127.986 193.355 127.484C192.913 126.977 192.314 126.723 191.559 126.723ZM201.549 129.291L203.893 125.434H206.002L202.545 130.658L206.109 136H204.02L201.578 132.045L199.137 136H197.037L200.602 130.658L197.145 125.434H199.234L201.549 129.291ZM210.377 122.875V125.434H212.35V126.83H210.377V133.383C210.377 133.806 210.465 134.125 210.641 134.34C210.816 134.548 211.116 134.652 211.539 134.652C211.747 134.652 212.034 134.613 212.398 134.535V136C211.923 136.13 211.461 136.195 211.012 136.195C210.204 136.195 209.596 135.951 209.186 135.463C208.775 134.975 208.57 134.281 208.57 133.383V126.83H206.646V125.434H208.57V122.875H210.377Z" fill="black"/>
<rect x="39" width="212" height="80" fill="#EEEEEE"/>
<path d="M88.3633 43.9482C87.8333 44.7074 87.0921 45.2767 86.1396 45.6562C85.1943 46.0286 84.0915 46.2148 82.8311 46.2148C81.5563 46.2148 80.4248 45.9176 79.4365 45.3232C78.4482 44.7217 77.682 43.8695 77.1377 42.7666C76.6006 41.6637 76.3249 40.3854 76.3105 38.9316V37.5674C76.3105 35.2113 76.8584 33.3851 77.9541 32.0889C79.057 30.7926 80.6038 30.1445 82.5947 30.1445C84.2275 30.1445 85.5417 30.5635 86.5371 31.4014C87.5326 32.2321 88.1413 33.4137 88.3633 34.9463H86.3008C85.9141 32.8766 84.6823 31.8418 82.6055 31.8418C81.2233 31.8418 80.1742 32.3288 79.458 33.3027C78.749 34.2695 78.391 35.6732 78.3838 37.5137V38.792C78.3838 40.5465 78.7848 41.943 79.5869 42.9814C80.389 44.0127 81.474 44.5283 82.8418 44.5283C83.6152 44.5283 84.292 44.4424 84.8721 44.2705C85.4521 44.0986 85.932 43.8086 86.3115 43.4004V39.8877H82.6914V38.2119H88.3633V43.9482ZM97.1182 36.1602C96.8174 36.11 96.4915 36.085 96.1406 36.085C94.8372 36.085 93.9528 36.64 93.4873 37.75V46H91.5V34.377H93.4336L93.4658 35.7197C94.1175 34.6813 95.0413 34.1621 96.2373 34.1621C96.624 34.1621 96.9176 34.2122 97.1182 34.3125V36.1602ZM105.701 46C105.587 45.7708 105.493 45.3626 105.422 44.7754C104.498 45.735 103.395 46.2148 102.113 46.2148C100.967 46.2148 100.026 45.8926 99.2881 45.248C98.5576 44.5964 98.1924 43.7728 98.1924 42.7773C98.1924 41.5671 98.6507 40.6289 99.5674 39.9629C100.491 39.2897 101.787 38.9531 103.456 38.9531H105.39V38.04C105.39 37.3454 105.182 36.7939 104.767 36.3857C104.351 35.9704 103.739 35.7627 102.93 35.7627C102.221 35.7627 101.626 35.9417 101.146 36.2998C100.667 36.6579 100.427 37.0911 100.427 37.5996H98.4287C98.4287 37.0195 98.6328 36.4609 99.041 35.9238C99.4564 35.3796 100.015 34.9499 100.717 34.6348C101.426 34.3197 102.203 34.1621 103.048 34.1621C104.387 34.1621 105.436 34.4987 106.195 35.1719C106.954 35.8379 107.348 36.7581 107.377 37.9326V43.2822C107.377 44.3493 107.513 45.1979 107.785 45.8281V46H105.701ZM102.403 44.4854C103.026 44.4854 103.617 44.3242 104.176 44.002C104.734 43.6797 105.139 43.2607 105.39 42.7451V40.3604H103.832C101.397 40.3604 100.18 41.0729 100.18 42.498C100.18 43.1211 100.387 43.6081 100.803 43.959C101.218 44.3099 101.752 44.4854 102.403 44.4854ZM120.311 40.3174C120.311 42.0863 119.906 43.5114 119.097 44.5928C118.287 45.6742 117.192 46.2148 115.81 46.2148C114.399 46.2148 113.289 45.7673 112.479 44.8721V50.4688H110.492V34.377H112.308L112.404 35.666C113.214 34.6634 114.338 34.1621 115.777 34.1621C117.174 34.1621 118.277 34.6885 119.086 35.7412C119.902 36.7939 120.311 38.2585 120.311 40.1348V40.3174ZM118.323 40.0918C118.323 38.7812 118.044 37.7464 117.485 36.9873C116.927 36.2282 116.16 35.8486 115.187 35.8486C113.983 35.8486 113.081 36.3822 112.479 37.4492V43.0029C113.074 44.0628 113.983 44.5928 115.208 44.5928C116.16 44.5928 116.916 44.2168 117.475 43.4648C118.04 42.7057 118.323 41.5814 118.323 40.0918ZM124.833 35.7842C125.714 34.7028 126.86 34.1621 128.271 34.1621C130.727 34.1621 131.966 35.5479 131.987 38.3193V46H130V38.3086C129.993 37.4707 129.799 36.8512 129.42 36.4502C129.048 36.0492 128.464 35.8486 127.669 35.8486C127.024 35.8486 126.459 36.0205 125.972 36.3643C125.485 36.708 125.105 37.1592 124.833 37.7178V46H122.846V29.5H124.833V35.7842ZM147.22 38.6846C147.22 40.1956 146.98 41.499 146.5 42.5947C146.02 43.6833 145.347 44.5355 144.48 45.1514L147.273 47.3428L145.866 48.6426L142.568 46.0215C142.053 46.1504 141.508 46.2148 140.936 46.2148C139.704 46.2148 138.612 45.9141 137.659 45.3125C136.707 44.7038 135.965 43.8408 135.436 42.7236C134.913 41.5993 134.644 40.2995 134.63 38.8242V37.6963C134.63 36.1924 134.891 34.8639 135.414 33.7109C135.937 32.5579 136.674 31.6771 137.627 31.0684C138.587 30.4525 139.682 30.1445 140.914 30.1445C142.174 30.1445 143.281 30.4489 144.233 31.0576C145.193 31.6663 145.931 32.5436 146.446 33.6895C146.962 34.8281 147.22 36.1602 147.22 37.6855V38.6846ZM145.157 37.6748C145.157 35.8343 144.788 34.4163 144.051 33.4209C143.32 32.4183 142.275 31.917 140.914 31.917C139.618 31.917 138.594 32.4147 137.842 33.4102C137.097 34.3984 136.714 35.7734 136.692 37.5352V38.6846C136.692 40.4749 137.065 41.8857 137.81 42.917C138.562 43.9482 139.604 44.4639 140.936 44.4639C142.268 44.4639 143.299 43.9805 144.029 43.0137C144.76 42.0397 145.136 40.6468 145.157 38.835V37.6748ZM152.473 44.3135H159.885V46H150.399V30.3594H152.473V44.3135ZM169.768 44.3135H177.18V46H167.694V30.3594H169.768V44.3135ZM186.396 46C186.282 45.7708 186.189 45.3626 186.117 44.7754C185.193 45.735 184.09 46.2148 182.809 46.2148C181.663 46.2148 180.721 45.8926 179.983 45.248C179.253 44.5964 178.888 43.7728 178.888 42.7773C178.888 41.5671 179.346 40.6289 180.263 39.9629C181.187 39.2897 182.483 38.9531 184.151 38.9531H186.085V38.04C186.085 37.3454 185.877 36.7939 185.462 36.3857C185.047 35.9704 184.434 35.7627 183.625 35.7627C182.916 35.7627 182.322 35.9417 181.842 36.2998C181.362 36.6579 181.122 37.0911 181.122 37.5996H179.124C179.124 37.0195 179.328 36.4609 179.736 35.9238C180.152 35.3796 180.71 34.9499 181.412 34.6348C182.121 34.3197 182.898 34.1621 183.743 34.1621C185.082 34.1621 186.132 34.4987 186.891 35.1719C187.65 35.8379 188.044 36.7581 188.072 37.9326V43.2822C188.072 44.3493 188.208 45.1979 188.48 45.8281V46H186.396ZM183.099 44.4854C183.722 44.4854 184.312 44.3242 184.871 44.002C185.43 43.6797 185.834 43.2607 186.085 42.7451V40.3604H184.527C182.092 40.3604 180.875 41.0729 180.875 42.498C180.875 43.1211 181.083 43.6081 181.498 43.959C181.913 44.3099 182.447 44.4854 183.099 44.4854ZM194.818 43.0889L197.525 34.377H199.652L194.979 47.7939C194.256 49.7275 193.107 50.6943 191.531 50.6943L191.155 50.6621L190.414 50.5225V48.9111L190.951 48.9541C191.624 48.9541 192.147 48.818 192.52 48.5459C192.899 48.2738 193.211 47.776 193.454 47.0527L193.895 45.8711L189.748 34.377H191.918L194.818 43.0889ZM206.108 46.2148C204.533 46.2148 203.251 45.6992 202.263 44.668C201.274 43.6296 200.78 42.2438 200.78 40.5107V40.1455C200.78 38.9925 200.999 37.9648 201.436 37.0625C201.88 36.153 202.495 35.444 203.283 34.9355C204.078 34.4199 204.938 34.1621 205.861 34.1621C207.372 34.1621 208.547 34.6598 209.385 35.6553C210.223 36.6507 210.642 38.0758 210.642 39.9307V40.7578H202.768C202.796 41.9036 203.129 42.8311 203.767 43.54C204.411 44.2419 205.228 44.5928 206.216 44.5928C206.918 44.5928 207.512 44.4495 207.999 44.1631C208.486 43.8766 208.912 43.4971 209.277 43.0244L210.491 43.9697C209.517 45.4665 208.056 46.2148 206.108 46.2148ZM205.861 35.7949C205.059 35.7949 204.386 36.0885 203.842 36.6758C203.298 37.2559 202.961 38.0723 202.832 39.125H208.654V38.9746C208.597 37.9648 208.325 37.1842 207.838 36.6328C207.351 36.0742 206.692 35.7949 205.861 35.7949ZM218.569 36.1602C218.269 36.11 217.943 36.085 217.592 36.085C216.288 36.085 215.404 36.64 214.938 37.75V46H212.951V34.377H214.885L214.917 35.7197C215.569 34.6813 216.493 34.1621 217.688 34.1621C218.075 34.1621 218.369 34.2122 218.569 34.3125V36.1602Z" fill="black"/>
</svg>
