<svg width="221" height="435" viewBox="0 0 221 435" fill="none" xmlns="http://www.w3.org/2000/svg">
<rect x="19" width="178" height="81" fill="#EEEEEE"/>
<path d="M62.1885 46.0693L62.4893 48.1318L62.9297 46.2734L66.0234 35.3594H67.7637L70.7822 46.2734L71.2119 48.1641L71.5449 46.0586L73.9727 35.3594H76.0459L72.2539 51H70.374L67.1514 39.6025L66.9043 38.4102L66.6572 39.6025L63.3164 51H61.4365L57.6553 35.3594H59.7178L62.1885 46.0693ZM82.5127 51.2148C80.9372 51.2148 79.6553 50.6992 78.667 49.668C77.6787 48.6296 77.1846 47.2438 77.1846 45.5107V45.1455C77.1846 43.9925 77.403 42.9648 77.8398 42.0625C78.2839 41.153 78.8997 40.444 79.6875 39.9355C80.4824 39.4199 81.3418 39.1621 82.2656 39.1621C83.7767 39.1621 84.9512 39.6598 85.7891 40.6553C86.627 41.6507 87.0459 43.0758 87.0459 44.9307V45.7578H79.1719C79.2005 46.9036 79.5335 47.8311 80.1709 48.54C80.8154 49.2419 81.6318 49.5928 82.6201 49.5928C83.3219 49.5928 83.9163 49.4495 84.4033 49.1631C84.8903 48.8766 85.3164 48.4971 85.6816 48.0244L86.8955 48.9697C85.9215 50.4665 84.4606 51.2148 82.5127 51.2148ZM82.2656 40.7949C81.4635 40.7949 80.7904 41.0885 80.2461 41.6758C79.7018 42.2559 79.3652 43.0723 79.2363 44.125H85.0586V43.9746C85.0013 42.9648 84.7292 42.1842 84.2422 41.6328C83.7552 41.0742 83.0964 40.7949 82.2656 40.7949ZM99.1953 45.3174C99.1953 47.0934 98.7871 48.5221 97.9707 49.6035C97.1543 50.6777 96.0586 51.2148 94.6836 51.2148C93.2155 51.2148 92.0804 50.6956 91.2783 49.6572L91.1816 51H89.3555V34.5H91.3428V40.6553C92.1449 39.6598 93.2513 39.1621 94.6621 39.1621C96.0729 39.1621 97.1794 39.6956 97.9814 40.7627C98.7907 41.8298 99.1953 43.2907 99.1953 45.1455V45.3174ZM97.208 45.0918C97.208 43.7383 96.9466 42.6927 96.4238 41.9551C95.901 41.2174 95.1491 40.8486 94.168 40.8486C92.8574 40.8486 91.9157 41.4574 91.3428 42.6748V47.7021C91.9515 48.9196 92.9004 49.5283 94.1895 49.5283C95.1419 49.5283 95.8831 49.1595 96.4131 48.4219C96.943 47.6842 97.208 46.5742 97.208 45.0918ZM109.551 49.3135H116.963V51H107.478V35.3594H109.551V49.3135ZM126.18 51C126.065 50.7708 125.972 50.3626 125.9 49.7754C124.977 50.735 123.874 51.2148 122.592 51.2148C121.446 51.2148 120.504 50.8926 119.767 50.248C119.036 49.5964 118.671 48.7728 118.671 47.7773C118.671 46.5671 119.129 45.6289 120.046 44.9629C120.97 44.2897 122.266 43.9531 123.935 43.9531H125.868V43.04C125.868 42.3454 125.66 41.7939 125.245 41.3857C124.83 40.9704 124.217 40.7627 123.408 40.7627C122.699 40.7627 122.105 40.9417 121.625 41.2998C121.145 41.6579 120.905 42.0911 120.905 42.5996H118.907C118.907 42.0195 119.111 41.4609 119.52 40.9238C119.935 40.3796 120.493 39.9499 121.195 39.6348C121.904 39.3197 122.681 39.1621 123.526 39.1621C124.866 39.1621 125.915 39.4987 126.674 40.1719C127.433 40.8379 127.827 41.7581 127.855 42.9326V48.2822C127.855 49.3493 127.992 50.1979 128.264 50.8281V51H126.18ZM122.882 49.4854C123.505 49.4854 124.096 49.3242 124.654 49.002C125.213 48.6797 125.618 48.2607 125.868 47.7451V45.3604H124.311C121.876 45.3604 120.658 46.0729 120.658 47.498C120.658 48.1211 120.866 48.6081 121.281 48.959C121.697 49.3099 122.23 49.4854 122.882 49.4854ZM134.602 48.0889L137.309 39.377H139.436L134.763 52.7939C134.039 54.7275 132.89 55.6943 131.314 55.6943L130.938 55.6621L130.197 55.5225V53.9111L130.734 53.9541C131.408 53.9541 131.93 53.818 132.303 53.5459C132.682 53.2738 132.994 52.776 133.237 52.0527L133.678 50.8711L129.531 39.377H131.701L134.602 48.0889ZM145.892 51.2148C144.316 51.2148 143.034 50.6992 142.046 49.668C141.058 48.6296 140.563 47.2438 140.563 45.5107V45.1455C140.563 43.9925 140.782 42.9648 141.219 42.0625C141.663 41.153 142.279 40.444 143.066 39.9355C143.861 39.4199 144.721 39.1621 145.645 39.1621C147.156 39.1621 148.33 39.6598 149.168 40.6553C150.006 41.6507 150.425 43.0758 150.425 44.9307V45.7578H142.551C142.579 46.9036 142.912 47.8311 143.55 48.54C144.194 49.2419 145.011 49.5928 145.999 49.5928C146.701 49.5928 147.295 49.4495 147.782 49.1631C148.269 48.8766 148.695 48.4971 149.061 48.0244L150.274 48.9697C149.3 50.4665 147.84 51.2148 145.892 51.2148ZM145.645 40.7949C144.842 40.7949 144.169 41.0885 143.625 41.6758C143.081 42.2559 142.744 43.0723 142.615 44.125H148.438V43.9746C148.38 42.9648 148.108 42.1842 147.621 41.6328C147.134 41.0742 146.475 40.7949 145.645 40.7949ZM158.353 41.1602C158.052 41.11 157.726 41.085 157.375 41.085C156.072 41.085 155.187 41.64 154.722 42.75V51H152.734V39.377H154.668L154.7 40.7197C155.352 39.6813 156.276 39.1621 157.472 39.1621C157.858 39.1621 158.152 39.2122 158.353 39.3125V41.1602Z" fill="black"/>
<path d="M107.061 83.9393C106.475 83.3536 105.525 83.3536 104.939 83.9393L95.3934 93.4853C94.8076 94.0711 94.8076 95.0208 95.3934 95.6066C95.9792 96.1924 96.9289 96.1924 97.5147 95.6066L106 87.1213L114.485 95.6066C115.071 96.1924 116.021 96.1924 116.607 95.6066C117.192 95.0208 117.192 94.0711 116.607 93.4853L107.061 83.9393ZM104.939 184.061C105.525 184.646 106.475 184.646 107.061 184.061L116.607 174.515C117.192 173.929 117.192 172.979 116.607 172.393C116.021 171.808 115.071 171.808 114.485 172.393L106 180.879L97.5147 172.393C96.9289 171.808 95.9792 171.808 95.3934 172.393C94.8076 172.979 94.8076 173.929 95.3934 174.515L104.939 184.061ZM104.5 85V183H107.5V85H104.5Z" fill="black"/>
<rect x="54" y="118" width="105" height="33" fill="white"/>
<path d="M22.1484 140.135C21.6667 140.825 20.9928 141.342 20.127 141.688C19.2676 142.026 18.265 142.195 17.1191 142.195C15.9603 142.195 14.9316 141.925 14.0332 141.385C13.1348 140.838 12.4382 140.063 11.9434 139.061C11.4551 138.058 11.2044 136.896 11.1914 135.574V134.334C11.1914 132.192 11.6895 130.532 12.6855 129.354C13.6882 128.175 15.0944 127.586 16.9043 127.586C18.3887 127.586 19.5833 127.967 20.4883 128.729C21.3932 129.484 21.9466 130.558 22.1484 131.951H20.2734C19.9219 130.07 18.8021 129.129 16.9141 129.129C15.6576 129.129 14.7038 129.572 14.0527 130.457C13.4082 131.336 13.0827 132.612 13.0762 134.285V135.447C13.0762 137.042 13.4408 138.312 14.1699 139.256C14.8991 140.193 15.8854 140.662 17.1289 140.662C17.832 140.662 18.4473 140.584 18.9746 140.428C19.502 140.271 19.9382 140.008 20.2832 139.637V136.443H16.9922V134.92H22.1484V140.135ZM30.1074 133.055C29.834 133.009 29.5378 132.986 29.2188 132.986C28.0339 132.986 27.2298 133.491 26.8066 134.5V142H25V131.434H26.7578L26.7871 132.654C27.3796 131.71 28.2194 131.238 29.3066 131.238C29.6582 131.238 29.9251 131.284 30.1074 131.375V133.055ZM37.9102 142C37.806 141.792 37.7214 141.421 37.6562 140.887C36.8164 141.759 35.8138 142.195 34.6484 142.195C33.6068 142.195 32.7507 141.902 32.0801 141.316C31.416 140.724 31.084 139.975 31.084 139.07C31.084 137.97 31.5007 137.117 32.334 136.512C33.1738 135.9 34.3522 135.594 35.8691 135.594H37.627V134.764C37.627 134.132 37.4382 133.631 37.0605 133.26C36.6829 132.882 36.1263 132.693 35.3906 132.693C34.7461 132.693 34.2057 132.856 33.7695 133.182C33.3333 133.507 33.1152 133.901 33.1152 134.363H31.2988C31.2988 133.836 31.4844 133.328 31.8555 132.84C32.2331 132.345 32.7409 131.954 33.3789 131.668C34.0234 131.382 34.7298 131.238 35.498 131.238C36.7155 131.238 37.6693 131.544 38.3594 132.156C39.0495 132.762 39.4076 133.598 39.4336 134.666V139.529C39.4336 140.499 39.5573 141.271 39.8047 141.844V142H37.9102ZM34.9121 140.623C35.4785 140.623 36.0156 140.477 36.5234 140.184C37.0312 139.891 37.3991 139.51 37.627 139.041V136.873H36.2109C33.9974 136.873 32.8906 137.521 32.8906 138.816C32.8906 139.383 33.0794 139.826 33.457 140.145C33.8346 140.464 34.3197 140.623 34.9121 140.623ZM51.1914 136.834C51.1914 138.442 50.8236 139.738 50.0879 140.721C49.3522 141.704 48.3561 142.195 47.0996 142.195C45.8171 142.195 44.8079 141.788 44.0723 140.975V146.062H42.2656V131.434H43.916L44.0039 132.605C44.7396 131.694 45.7617 131.238 47.0703 131.238C48.3398 131.238 49.3424 131.717 50.0781 132.674C50.8203 133.631 51.1914 134.962 51.1914 136.668V136.834ZM49.3848 136.629C49.3848 135.438 49.1309 134.497 48.623 133.807C48.1152 133.117 47.4186 132.771 46.5332 132.771C45.4395 132.771 44.6191 133.257 44.0723 134.227V139.275C44.6126 140.239 45.4395 140.721 46.5527 140.721C47.4186 140.721 48.1055 140.379 48.6133 139.695C49.1276 139.005 49.3848 137.983 49.3848 136.629ZM55.3027 132.713C56.1035 131.73 57.1452 131.238 58.4277 131.238C60.6608 131.238 61.7871 132.498 61.8066 135.018V142H60V135.008C59.9935 134.246 59.8177 133.683 59.4727 133.318C59.1341 132.954 58.6035 132.771 57.8809 132.771C57.2949 132.771 56.7806 132.928 56.3379 133.24C55.8952 133.553 55.5501 133.963 55.3027 134.471V142H53.4961V127H55.3027V132.713ZM75.6543 135.35C75.6543 136.723 75.4362 137.908 75 138.904C74.5638 139.894 73.9518 140.669 73.1641 141.229L75.7031 143.221L74.4238 144.402L71.4258 142.02C70.957 142.137 70.4622 142.195 69.9414 142.195C68.8216 142.195 67.8288 141.922 66.9629 141.375C66.097 140.822 65.4232 140.037 64.9414 139.021C64.4661 137.999 64.222 136.818 64.209 135.477V134.451C64.209 133.084 64.4466 131.876 64.9219 130.828C65.3971 129.78 66.0677 128.979 66.9336 128.426C67.806 127.866 68.8021 127.586 69.9219 127.586C71.0677 127.586 72.0736 127.863 72.9395 128.416C73.8118 128.969 74.4824 129.767 74.9512 130.809C75.4199 131.844 75.6543 133.055 75.6543 134.441V135.35ZM73.7793 134.432C73.7793 132.758 73.444 131.469 72.7734 130.564C72.1094 129.653 71.1589 129.197 69.9219 129.197C68.7435 129.197 67.8125 129.65 67.1289 130.555C66.4518 131.453 66.1035 132.703 66.084 134.305V135.35C66.084 136.977 66.4225 138.26 67.0996 139.197C67.7832 140.135 68.7305 140.604 69.9414 140.604C71.1523 140.604 72.0898 140.164 72.7539 139.285C73.418 138.4 73.7598 137.133 73.7793 135.486V134.432ZM80.4297 140.467H87.168V142H78.5449V127.781H80.4297V140.467ZM100.137 139.197C100.137 138.709 99.9512 138.331 99.5801 138.064C99.2155 137.791 98.5742 137.557 97.6562 137.361C96.7448 137.166 96.0189 136.932 95.4785 136.658C94.9447 136.385 94.5475 136.059 94.2871 135.682C94.0332 135.304 93.9062 134.855 93.9062 134.334C93.9062 133.468 94.2708 132.736 95 132.137C95.7357 131.538 96.6732 131.238 97.8125 131.238C99.0104 131.238 99.9805 131.548 100.723 132.166C101.471 132.785 101.846 133.576 101.846 134.539H100.029C100.029 134.044 99.8177 133.618 99.3945 133.26C98.9779 132.902 98.4505 132.723 97.8125 132.723C97.1549 132.723 96.6406 132.866 96.2695 133.152C95.8984 133.439 95.7129 133.813 95.7129 134.275C95.7129 134.712 95.8854 135.04 96.2305 135.262C96.5755 135.483 97.1973 135.695 98.0957 135.896C99.0007 136.098 99.7331 136.339 100.293 136.619C100.853 136.899 101.266 137.238 101.533 137.635C101.807 138.025 101.943 138.504 101.943 139.07C101.943 140.014 101.566 140.773 100.811 141.346C100.055 141.912 99.0755 142.195 97.8711 142.195C97.0247 142.195 96.276 142.046 95.625 141.746C94.974 141.447 94.4629 141.03 94.0918 140.496C93.7272 139.956 93.5449 139.373 93.5449 138.748H95.3516C95.3841 139.354 95.625 139.835 96.0742 140.193C96.5299 140.545 97.1289 140.721 97.8711 140.721C98.5547 140.721 99.1016 140.584 99.5117 140.311C99.9284 140.031 100.137 139.66 100.137 139.197ZM106.748 128.875V131.434H108.721V132.83H106.748V139.383C106.748 139.806 106.836 140.125 107.012 140.34C107.188 140.548 107.487 140.652 107.91 140.652C108.118 140.652 108.405 140.613 108.77 140.535V142C108.294 142.13 107.832 142.195 107.383 142.195C106.576 142.195 105.967 141.951 105.557 141.463C105.146 140.975 104.941 140.281 104.941 139.383V132.83H103.018V131.434H104.941V128.875H106.748ZM115.947 133.055C115.674 133.009 115.378 132.986 115.059 132.986C113.874 132.986 113.07 133.491 112.646 134.5V142H110.84V131.434H112.598L112.627 132.654C113.219 131.71 114.059 131.238 115.146 131.238C115.498 131.238 115.765 131.284 115.947 131.375V133.055ZM119.58 142H117.773V131.434H119.58V142ZM117.627 128.631C117.627 128.338 117.715 128.09 117.891 127.889C118.073 127.687 118.34 127.586 118.691 127.586C119.043 127.586 119.31 127.687 119.492 127.889C119.674 128.09 119.766 128.338 119.766 128.631C119.766 128.924 119.674 129.168 119.492 129.363C119.31 129.559 119.043 129.656 118.691 129.656C118.34 129.656 118.073 129.559 117.891 129.363C117.715 129.168 117.627 128.924 117.627 128.631ZM124.189 131.434L124.248 132.762C125.055 131.746 126.11 131.238 127.412 131.238C129.645 131.238 130.771 132.498 130.791 135.018V142H128.984V135.008C128.978 134.246 128.802 133.683 128.457 133.318C128.118 132.954 127.588 132.771 126.865 132.771C126.279 132.771 125.765 132.928 125.322 133.24C124.88 133.553 124.535 133.963 124.287 134.471V142H122.48V131.434H124.189ZM133.086 136.629C133.086 134.982 133.467 133.673 134.229 132.703C134.99 131.727 135.999 131.238 137.256 131.238C138.545 131.238 139.551 131.694 140.273 132.605L140.361 131.434H142.012V141.746C142.012 143.113 141.605 144.191 140.791 144.979C139.984 145.766 138.896 146.16 137.529 146.16C136.768 146.16 136.022 145.997 135.293 145.672C134.564 145.346 134.007 144.9 133.623 144.334L134.561 143.25C135.335 144.207 136.283 144.686 137.402 144.686C138.281 144.686 138.965 144.438 139.453 143.943C139.948 143.449 140.195 142.752 140.195 141.854V140.945C139.473 141.779 138.486 142.195 137.236 142.195C135.999 142.195 134.997 141.697 134.229 140.701C133.467 139.705 133.086 138.348 133.086 136.629ZM134.902 136.834C134.902 138.025 135.146 138.963 135.635 139.646C136.123 140.324 136.807 140.662 137.686 140.662C138.825 140.662 139.661 140.145 140.195 139.109V134.285C139.642 133.276 138.812 132.771 137.705 132.771C136.826 132.771 136.139 133.113 135.645 133.797C135.15 134.48 134.902 135.493 134.902 136.834ZM151.67 142H149.863V131.434H151.67V142ZM149.717 128.631C149.717 128.338 149.805 128.09 149.98 127.889C150.163 127.687 150.43 127.586 150.781 127.586C151.133 127.586 151.4 127.687 151.582 127.889C151.764 128.09 151.855 128.338 151.855 128.631C151.855 128.924 151.764 129.168 151.582 129.363C151.4 129.559 151.133 129.656 150.781 129.656C150.43 129.656 150.163 129.559 149.98 129.363C149.805 129.168 149.717 128.924 149.717 128.631ZM156.279 131.434L156.338 132.762C157.145 131.746 158.2 131.238 159.502 131.238C161.735 131.238 162.861 132.498 162.881 135.018V142H161.074V135.008C161.068 134.246 160.892 133.683 160.547 133.318C160.208 132.954 159.678 132.771 158.955 132.771C158.369 132.771 157.855 132.928 157.412 133.24C156.969 133.553 156.624 133.963 156.377 134.471V142H154.57V131.434H156.279ZM176.807 127.781H178.691V137.85C178.691 139.21 178.281 140.275 177.461 141.043C176.647 141.811 175.56 142.195 174.199 142.195C172.786 142.195 171.686 141.834 170.898 141.111C170.111 140.389 169.717 139.376 169.717 138.074H171.592C171.592 138.888 171.813 139.523 172.256 139.979C172.705 140.434 173.353 140.662 174.199 140.662C174.974 140.662 175.599 140.418 176.074 139.93C176.556 139.441 176.8 138.758 176.807 137.879V127.781ZM186.074 135.662C184.466 135.2 183.294 134.633 182.559 133.963C181.829 133.286 181.465 132.452 181.465 131.463C181.465 130.343 181.911 129.419 182.803 128.689C183.701 127.954 184.867 127.586 186.299 127.586C187.275 127.586 188.145 127.775 188.906 128.152C189.674 128.53 190.267 129.051 190.684 129.715C191.107 130.379 191.318 131.105 191.318 131.893H189.434C189.434 131.033 189.16 130.359 188.613 129.871C188.066 129.376 187.295 129.129 186.299 129.129C185.374 129.129 184.652 129.334 184.131 129.744C183.617 130.148 183.359 130.711 183.359 131.434C183.359 132.013 183.604 132.505 184.092 132.908C184.587 133.305 185.423 133.67 186.602 134.002C187.786 134.334 188.711 134.702 189.375 135.105C190.046 135.503 190.54 135.968 190.859 136.502C191.185 137.036 191.348 137.664 191.348 138.387C191.348 139.539 190.898 140.464 190 141.16C189.102 141.85 187.9 142.195 186.396 142.195C185.42 142.195 184.508 142.01 183.662 141.639C182.816 141.261 182.161 140.747 181.699 140.096C181.243 139.445 181.016 138.706 181.016 137.879H182.9C182.9 138.738 183.216 139.419 183.848 139.92C184.486 140.415 185.335 140.662 186.396 140.662C187.386 140.662 188.145 140.46 188.672 140.057C189.199 139.653 189.463 139.103 189.463 138.406C189.463 137.71 189.219 137.173 188.73 136.795C188.242 136.411 187.357 136.033 186.074 135.662ZM204.697 135.35C204.697 136.743 204.463 137.96 203.994 139.002C203.525 140.037 202.861 140.828 202.002 141.375C201.143 141.922 200.14 142.195 198.994 142.195C197.874 142.195 196.882 141.922 196.016 141.375C195.15 140.822 194.476 140.037 193.994 139.021C193.519 137.999 193.275 136.818 193.262 135.477V134.451C193.262 133.084 193.499 131.876 193.975 130.828C194.45 129.78 195.12 128.979 195.986 128.426C196.859 127.866 197.855 127.586 198.975 127.586C200.114 127.586 201.117 127.863 201.982 128.416C202.855 128.963 203.525 129.76 203.994 130.809C204.463 131.85 204.697 133.064 204.697 134.451V135.35ZM202.832 134.432C202.832 132.745 202.493 131.453 201.816 130.555C201.139 129.65 200.192 129.197 198.975 129.197C197.79 129.197 196.855 129.65 196.172 130.555C195.495 131.453 195.146 132.703 195.127 134.305V135.35C195.127 136.984 195.469 138.27 196.152 139.207C196.842 140.138 197.79 140.604 198.994 140.604C200.205 140.604 201.143 140.164 201.807 139.285C202.471 138.4 202.812 137.133 202.832 135.486V134.432ZM218.438 142H216.553L209.395 131.043V142H207.51V127.781H209.395L216.572 138.787V127.781H218.438V142Z" fill="black"/>
<rect y="358" width="212" height="77" fill="#EEEEEE"/>
<path d="M51.8154 404V388.359H56.2305C57.5911 388.359 58.7943 388.66 59.8398 389.262C60.8854 389.863 61.6911 390.719 62.2568 391.829C62.8298 392.939 63.1198 394.214 63.127 395.653V396.652C63.127 398.128 62.8405 399.42 62.2676 400.53C61.7018 401.64 60.889 402.493 59.8291 403.087C58.7764 403.681 57.5482 403.986 56.1445 404H51.8154ZM53.8779 390.057V402.313H56.0479C57.6377 402.313 58.873 401.819 59.7539 400.831C60.6419 399.843 61.0859 398.436 61.0859 396.609V395.696C61.0859 393.92 60.667 392.542 59.8291 391.561C58.9984 390.572 57.8167 390.071 56.2842 390.057H53.8779ZM73.1172 404C73.0026 403.771 72.9095 403.363 72.8379 402.775C71.9141 403.735 70.8112 404.215 69.5293 404.215C68.3835 404.215 67.4417 403.893 66.7041 403.248C65.9736 402.596 65.6084 401.773 65.6084 400.777C65.6084 399.567 66.0667 398.629 66.9834 397.963C67.9072 397.29 69.2035 396.953 70.8721 396.953H72.8057V396.04C72.8057 395.345 72.598 394.794 72.1826 394.386C71.7673 393.97 71.1549 393.763 70.3457 393.763C69.6367 393.763 69.0423 393.942 68.5625 394.3C68.0827 394.658 67.8428 395.091 67.8428 395.6H65.8447C65.8447 395.02 66.0488 394.461 66.457 393.924C66.8724 393.38 67.431 392.95 68.1328 392.635C68.8418 392.32 69.6188 392.162 70.4639 392.162C71.8031 392.162 72.8522 392.499 73.6113 393.172C74.3704 393.838 74.7643 394.758 74.793 395.933V401.282C74.793 402.349 74.929 403.198 75.2012 403.828V404H73.1172ZM69.8193 402.485C70.4424 402.485 71.0332 402.324 71.5918 402.002C72.1504 401.68 72.555 401.261 72.8057 400.745V398.36H71.248C68.8132 398.36 67.5957 399.073 67.5957 400.498C67.5957 401.121 67.8034 401.608 68.2188 401.959C68.6341 402.31 69.1676 402.485 69.8193 402.485ZM80.6045 389.562V392.377H82.7744V393.913H80.6045V401.121C80.6045 401.587 80.7012 401.938 80.8945 402.174C81.0879 402.403 81.4173 402.518 81.8828 402.518C82.112 402.518 82.4271 402.475 82.8281 402.389V404C82.3053 404.143 81.7969 404.215 81.3027 404.215C80.4147 404.215 79.7451 403.946 79.2939 403.409C78.8428 402.872 78.6172 402.109 78.6172 401.121V393.913H76.501V392.377H78.6172V389.562H80.6045ZM92.2812 404C92.1667 403.771 92.0736 403.363 92.002 402.775C91.0781 403.735 89.9753 404.215 88.6934 404.215C87.5475 404.215 86.6058 403.893 85.8682 403.248C85.1377 402.596 84.7725 401.773 84.7725 400.777C84.7725 399.567 85.2308 398.629 86.1475 397.963C87.0713 397.29 88.3675 396.953 90.0361 396.953H91.9697V396.04C91.9697 395.345 91.762 394.794 91.3467 394.386C90.9313 393.97 90.319 393.763 89.5098 393.763C88.8008 393.763 88.2064 393.942 87.7266 394.3C87.2467 394.658 87.0068 395.091 87.0068 395.6H85.0088C85.0088 395.02 85.2129 394.461 85.6211 393.924C86.0365 393.38 86.5951 392.95 87.2969 392.635C88.0059 392.32 88.7829 392.162 89.6279 392.162C90.9671 392.162 92.0163 392.499 92.7754 393.172C93.5345 393.838 93.9284 394.758 93.957 395.933V401.282C93.957 402.349 94.0931 403.198 94.3652 403.828V404H92.2812ZM88.9834 402.485C89.6064 402.485 90.1973 402.324 90.7559 402.002C91.3145 401.68 91.7191 401.261 91.9697 400.745V398.36H90.4121C87.9772 398.36 86.7598 399.073 86.7598 400.498C86.7598 401.121 86.9674 401.608 87.3828 401.959C87.7982 402.31 88.3317 402.485 88.9834 402.485ZM104.914 402.313H112.326V404H102.841V388.359H104.914V402.313ZM121.543 404C121.428 403.771 121.335 403.363 121.264 402.775C120.34 403.735 119.237 404.215 117.955 404.215C116.809 404.215 115.868 403.893 115.13 403.248C114.399 402.596 114.034 401.773 114.034 400.777C114.034 399.567 114.493 398.629 115.409 397.963C116.333 397.29 117.629 396.953 119.298 396.953H121.231V396.04C121.231 395.345 121.024 394.794 120.608 394.386C120.193 393.97 119.581 393.763 118.771 393.763C118.062 393.763 117.468 393.942 116.988 394.3C116.508 394.658 116.269 395.091 116.269 395.6H114.271C114.271 395.02 114.475 394.461 114.883 393.924C115.298 393.38 115.857 392.95 116.559 392.635C117.268 392.32 118.045 392.162 118.89 392.162C120.229 392.162 121.278 392.499 122.037 393.172C122.796 393.838 123.19 394.758 123.219 395.933V401.282C123.219 402.349 123.355 403.198 123.627 403.828V404H121.543ZM118.245 402.485C118.868 402.485 119.459 402.324 120.018 402.002C120.576 401.68 120.981 401.261 121.231 400.745V398.36H119.674C117.239 398.36 116.021 399.073 116.021 400.498C116.021 401.121 116.229 401.608 116.645 401.959C117.06 402.31 117.593 402.485 118.245 402.485ZM129.965 401.089L132.672 392.377H134.799L130.126 405.794C129.403 407.728 128.253 408.694 126.678 408.694L126.302 408.662L125.561 408.522V406.911L126.098 406.954C126.771 406.954 127.294 406.818 127.666 406.546C128.046 406.274 128.357 405.776 128.601 405.053L129.041 403.871L124.895 392.377H127.064L129.965 401.089ZM141.255 404.215C139.679 404.215 138.397 403.699 137.409 402.668C136.421 401.63 135.927 400.244 135.927 398.511V398.146C135.927 396.993 136.145 395.965 136.582 395.062C137.026 394.153 137.642 393.444 138.43 392.936C139.225 392.42 140.084 392.162 141.008 392.162C142.519 392.162 143.693 392.66 144.531 393.655C145.369 394.651 145.788 396.076 145.788 397.931V398.758H137.914C137.943 399.904 138.276 400.831 138.913 401.54C139.558 402.242 140.374 402.593 141.362 402.593C142.064 402.593 142.659 402.45 143.146 402.163C143.632 401.877 144.059 401.497 144.424 401.024L145.638 401.97C144.664 403.466 143.203 404.215 141.255 404.215ZM141.008 393.795C140.206 393.795 139.533 394.089 138.988 394.676C138.444 395.256 138.107 396.072 137.979 397.125H143.801V396.975C143.743 395.965 143.471 395.184 142.984 394.633C142.497 394.074 141.839 393.795 141.008 393.795ZM153.716 394.16C153.415 394.11 153.089 394.085 152.738 394.085C151.435 394.085 150.55 394.64 150.085 395.75V404H148.098V392.377H150.031L150.063 393.72C150.715 392.681 151.639 392.162 152.835 392.162C153.222 392.162 153.515 392.212 153.716 392.312V394.16Z" fill="black"/>
<path d="M107.061 264.939C106.475 264.354 105.525 264.354 104.939 264.939L95.3934 274.485C94.8076 275.071 94.8076 276.021 95.3934 276.607C95.9792 277.192 96.9289 277.192 97.5147 276.607L106 268.121L114.485 276.607C115.071 277.192 116.021 277.192 116.607 276.607C117.192 276.021 117.192 275.071 116.607 274.485L107.061 264.939ZM104.939 359.061C105.525 359.646 106.475 359.646 107.061 359.061L116.607 349.515C117.192 348.929 117.192 347.979 116.607 347.393C116.021 346.808 115.071 346.808 114.485 347.393L106 355.879L97.5147 347.393C96.9289 346.808 95.9792 346.808 95.3934 347.393C94.8076 347.979 94.8076 348.929 95.3934 349.515L104.939 359.061ZM104.5 266V358H107.5V266H104.5Z" fill="black"/>
<rect x="2" y="186" width="212" height="80" fill="#EEEEEE"/>
<rect x="59" y="300" width="105" height="33" fill="white"/>
<path d="M42.8398 315.662C41.2318 315.2 40.0599 314.633 39.3242 313.963C38.5951 313.286 38.2305 312.452 38.2305 311.463C38.2305 310.343 38.6764 309.419 39.5684 308.689C40.4668 307.954 41.6322 307.586 43.0645 307.586C44.041 307.586 44.9102 307.775 45.6719 308.152C46.4401 308.53 47.0326 309.051 47.4492 309.715C47.8724 310.379 48.084 311.105 48.084 311.893H46.1992C46.1992 311.033 45.9258 310.359 45.3789 309.871C44.832 309.376 44.0605 309.129 43.0645 309.129C42.14 309.129 41.4173 309.334 40.8965 309.744C40.3822 310.148 40.125 310.711 40.125 311.434C40.125 312.013 40.3691 312.505 40.8574 312.908C41.3522 313.305 42.1888 313.67 43.3672 314.002C44.5521 314.334 45.4766 314.702 46.1406 315.105C46.8112 315.503 47.306 315.968 47.625 316.502C47.9505 317.036 48.1133 317.664 48.1133 318.387C48.1133 319.539 47.6641 320.464 46.7656 321.16C45.8672 321.85 44.666 322.195 43.1621 322.195C42.1855 322.195 41.2741 322.01 40.4277 321.639C39.5814 321.261 38.9271 320.747 38.4648 320.096C38.0091 319.445 37.7812 318.706 37.7812 317.879H39.666C39.666 318.738 39.9818 319.419 40.6133 319.92C41.2513 320.415 42.1009 320.662 43.1621 320.662C44.1517 320.662 44.9102 320.46 45.4375 320.057C45.9648 319.653 46.2285 319.103 46.2285 318.406C46.2285 317.71 45.9844 317.173 45.4961 316.795C45.0078 316.411 44.1224 316.033 42.8398 315.662ZM54.627 322.195C53.1947 322.195 52.0293 321.727 51.1309 320.789C50.2324 319.845 49.7832 318.585 49.7832 317.01V316.678C49.7832 315.63 49.9818 314.695 50.3789 313.875C50.7826 313.048 51.3424 312.404 52.0586 311.941C52.7812 311.473 53.5625 311.238 54.4023 311.238C55.776 311.238 56.8438 311.691 57.6055 312.596C58.3672 313.501 58.748 314.796 58.748 316.482V317.234H51.5898C51.6159 318.276 51.9186 319.119 52.498 319.764C53.084 320.402 53.8262 320.721 54.7246 320.721C55.3626 320.721 55.903 320.59 56.3457 320.33C56.7884 320.07 57.1758 319.725 57.5078 319.295L58.6113 320.154C57.7259 321.515 56.3978 322.195 54.627 322.195ZM54.4023 312.723C53.6732 312.723 53.0612 312.99 52.5664 313.523C52.0716 314.051 51.7656 314.793 51.6484 315.75H56.9414V315.613C56.8893 314.695 56.6419 313.986 56.1992 313.484C55.7565 312.977 55.1576 312.723 54.4023 312.723ZM65.9551 313.055C65.6816 313.009 65.3854 312.986 65.0664 312.986C63.8815 312.986 63.0775 313.491 62.6543 314.5V322H60.8477V311.434H62.6055L62.6348 312.654C63.2272 311.71 64.0671 311.238 65.1543 311.238C65.5059 311.238 65.7728 311.284 65.9551 311.375V313.055ZM71.2871 319.549L73.9043 311.434H75.75L71.9609 322H70.584L66.7559 311.434H68.6016L71.2871 319.549ZM79.4512 322H77.6445V311.434H79.4512V322ZM77.498 308.631C77.498 308.338 77.5859 308.09 77.7617 307.889C77.944 307.687 78.2109 307.586 78.5625 307.586C78.9141 307.586 79.181 307.687 79.3633 307.889C79.5456 308.09 79.6367 308.338 79.6367 308.631C79.6367 308.924 79.5456 309.168 79.3633 309.363C79.181 309.559 78.9141 309.656 78.5625 309.656C78.2109 309.656 77.944 309.559 77.7617 309.363C77.5859 309.168 77.498 308.924 77.498 308.631ZM86.5898 320.721C87.2344 320.721 87.7975 320.525 88.2793 320.135C88.7611 319.744 89.028 319.256 89.0801 318.67H90.7891C90.7565 319.275 90.5482 319.852 90.1641 320.398C89.7799 320.945 89.2656 321.382 88.6211 321.707C87.9831 322.033 87.306 322.195 86.5898 322.195C85.151 322.195 84.0052 321.717 83.1523 320.76C82.306 319.796 81.8828 318.481 81.8828 316.814V316.512C81.8828 315.483 82.0716 314.568 82.4492 313.768C82.8268 312.967 83.3672 312.345 84.0703 311.902C84.7799 311.46 85.6165 311.238 86.5801 311.238C87.765 311.238 88.748 311.593 89.5293 312.303C90.3171 313.012 90.737 313.934 90.7891 315.066H89.0801C89.028 314.383 88.7676 313.823 88.2988 313.387C87.8366 312.944 87.2637 312.723 86.5801 312.723C85.6621 312.723 84.9492 313.055 84.4414 313.719C83.9401 314.376 83.6895 315.33 83.6895 316.58V316.922C83.6895 318.139 83.9401 319.077 84.4414 319.734C84.9427 320.392 85.6589 320.721 86.5898 320.721ZM97.2051 322.195C95.7728 322.195 94.6074 321.727 93.709 320.789C92.8105 319.845 92.3613 318.585 92.3613 317.01V316.678C92.3613 315.63 92.5599 314.695 92.957 313.875C93.3607 313.048 93.9206 312.404 94.6367 311.941C95.3594 311.473 96.1406 311.238 96.9805 311.238C98.3542 311.238 99.4219 311.691 100.184 312.596C100.945 313.501 101.326 314.796 101.326 316.482V317.234H94.168C94.194 318.276 94.4967 319.119 95.0762 319.764C95.6621 320.402 96.4043 320.721 97.3027 320.721C97.9408 320.721 98.4811 320.59 98.9238 320.33C99.3665 320.07 99.7539 319.725 100.086 319.295L101.189 320.154C100.304 321.515 98.9759 322.195 97.2051 322.195ZM96.9805 312.723C96.2513 312.723 95.6393 312.99 95.1445 313.523C94.6497 314.051 94.3438 314.793 94.2266 315.75H99.5195V315.613C99.4674 314.695 99.2201 313.986 98.7773 313.484C98.3346 312.977 97.7357 312.723 96.9805 312.723ZM119.129 317.488C118.953 318.992 118.396 320.154 117.459 320.975C116.528 321.788 115.288 322.195 113.738 322.195C112.059 322.195 110.711 321.593 109.695 320.389C108.686 319.184 108.182 317.573 108.182 315.555V314.188C108.182 312.866 108.416 311.704 108.885 310.701C109.36 309.699 110.031 308.93 110.896 308.396C111.762 307.856 112.765 307.586 113.904 307.586C115.415 307.586 116.626 308.009 117.537 308.855C118.449 309.695 118.979 310.861 119.129 312.352H117.244C117.081 311.219 116.727 310.398 116.18 309.891C115.639 309.383 114.881 309.129 113.904 309.129C112.706 309.129 111.766 309.572 111.082 310.457C110.405 311.342 110.066 312.602 110.066 314.236V315.613C110.066 317.156 110.389 318.383 111.033 319.295C111.678 320.206 112.579 320.662 113.738 320.662C114.78 320.662 115.577 320.428 116.131 319.959C116.691 319.484 117.062 318.66 117.244 317.488H119.129ZM120.936 316.619C120.936 315.584 121.137 314.653 121.541 313.826C121.951 312.999 122.518 312.361 123.24 311.912C123.969 311.463 124.799 311.238 125.73 311.238C127.169 311.238 128.331 311.736 129.217 312.732C130.109 313.729 130.555 315.053 130.555 316.707V316.834C130.555 317.863 130.356 318.787 129.959 319.607C129.568 320.421 129.005 321.056 128.27 321.512C127.54 321.967 126.701 322.195 125.75 322.195C124.318 322.195 123.156 321.697 122.264 320.701C121.378 319.705 120.936 318.387 120.936 316.746V316.619ZM122.752 316.834C122.752 318.006 123.022 318.947 123.562 319.656C124.109 320.366 124.839 320.721 125.75 320.721C126.668 320.721 127.397 320.363 127.938 319.646C128.478 318.924 128.748 317.915 128.748 316.619C128.748 315.46 128.471 314.523 127.918 313.807C127.371 313.084 126.642 312.723 125.73 312.723C124.839 312.723 124.119 313.077 123.572 313.787C123.025 314.497 122.752 315.512 122.752 316.834ZM134.529 311.434L134.588 312.762C135.395 311.746 136.45 311.238 137.752 311.238C139.985 311.238 141.111 312.498 141.131 315.018V322H139.324V315.008C139.318 314.246 139.142 313.683 138.797 313.318C138.458 312.954 137.928 312.771 137.205 312.771C136.619 312.771 136.105 312.928 135.662 313.24C135.219 313.553 134.874 313.963 134.627 314.471V322H132.82V311.434H134.529ZM146.307 308.875V311.434H148.279V312.83H146.307V319.383C146.307 319.806 146.395 320.125 146.57 320.34C146.746 320.548 147.046 320.652 147.469 320.652C147.677 320.652 147.964 320.613 148.328 320.535V322C147.853 322.13 147.391 322.195 146.941 322.195C146.134 322.195 145.525 321.951 145.115 321.463C144.705 320.975 144.5 320.281 144.5 319.383V312.83H142.576V311.434H144.5V308.875H146.307ZM154.783 322.195C153.351 322.195 152.186 321.727 151.287 320.789C150.389 319.845 149.939 318.585 149.939 317.01V316.678C149.939 315.63 150.138 314.695 150.535 313.875C150.939 313.048 151.499 312.404 152.215 311.941C152.938 311.473 153.719 311.238 154.559 311.238C155.932 311.238 157 311.691 157.762 312.596C158.523 313.501 158.904 314.796 158.904 316.482V317.234H151.746C151.772 318.276 152.075 319.119 152.654 319.764C153.24 320.402 153.982 320.721 154.881 320.721C155.519 320.721 156.059 320.59 156.502 320.33C156.945 320.07 157.332 319.725 157.664 319.295L158.768 320.154C157.882 321.515 156.554 322.195 154.783 322.195ZM154.559 312.723C153.829 312.723 153.217 312.99 152.723 313.523C152.228 314.051 151.922 314.793 151.805 315.75H157.098V315.613C157.046 314.695 156.798 313.986 156.355 313.484C155.913 312.977 155.314 312.723 154.559 312.723ZM164.549 315.291L166.893 311.434H169.002L165.545 316.658L169.109 322H167.02L164.578 318.045L162.137 322H160.037L163.602 316.658L160.145 311.434H162.234L164.549 315.291ZM173.377 308.875V311.434H175.35V312.83H173.377V319.383C173.377 319.806 173.465 320.125 173.641 320.34C173.816 320.548 174.116 320.652 174.539 320.652C174.747 320.652 175.034 320.613 175.398 320.535V322C174.923 322.13 174.461 322.195 174.012 322.195C173.204 322.195 172.596 321.951 172.186 321.463C171.775 320.975 171.57 320.281 171.57 319.383V312.83H169.646V311.434H171.57V308.875H173.377Z" fill="black"/>
<path d="M51.3633 229.948C50.8333 230.707 50.0921 231.277 49.1396 231.656C48.1943 232.029 47.0915 232.215 45.8311 232.215C44.5563 232.215 43.4248 231.918 42.4365 231.323C41.4482 230.722 40.682 229.869 40.1377 228.767C39.6006 227.664 39.3249 226.385 39.3105 224.932V223.567C39.3105 221.211 39.8584 219.385 40.9541 218.089C42.057 216.793 43.6038 216.145 45.5947 216.145C47.2275 216.145 48.5417 216.563 49.5371 217.401C50.5326 218.232 51.1413 219.414 51.3633 220.946H49.3008C48.9141 218.877 47.6823 217.842 45.6055 217.842C44.2233 217.842 43.1742 218.329 42.458 219.303C41.749 220.27 41.391 221.673 41.3838 223.514V224.792C41.3838 226.547 41.7848 227.943 42.5869 228.981C43.389 230.013 44.474 230.528 45.8418 230.528C46.6152 230.528 47.292 230.442 47.8721 230.271C48.4521 230.099 48.932 229.809 49.3115 229.4V225.888H45.6914V224.212H51.3633V229.948ZM60.1182 222.16C59.8174 222.11 59.4915 222.085 59.1406 222.085C57.8372 222.085 56.9528 222.64 56.4873 223.75V232H54.5V220.377H56.4336L56.4658 221.72C57.1175 220.681 58.0413 220.162 59.2373 220.162C59.624 220.162 59.9176 220.212 60.1182 220.312V222.16ZM68.7012 232C68.5866 231.771 68.4935 231.363 68.4219 230.775C67.498 231.735 66.3952 232.215 65.1133 232.215C63.9674 232.215 63.0257 231.893 62.2881 231.248C61.5576 230.596 61.1924 229.773 61.1924 228.777C61.1924 227.567 61.6507 226.629 62.5674 225.963C63.4912 225.29 64.7874 224.953 66.4561 224.953H68.3896V224.04C68.3896 223.345 68.182 222.794 67.7666 222.386C67.3512 221.97 66.7389 221.763 65.9297 221.763C65.2207 221.763 64.6263 221.942 64.1465 222.3C63.6667 222.658 63.4268 223.091 63.4268 223.6H61.4287C61.4287 223.02 61.6328 222.461 62.041 221.924C62.4564 221.38 63.015 220.95 63.7168 220.635C64.4258 220.32 65.2028 220.162 66.0479 220.162C67.387 220.162 68.4362 220.499 69.1953 221.172C69.9544 221.838 70.3483 222.758 70.377 223.933V229.282C70.377 230.349 70.513 231.198 70.7852 231.828V232H68.7012ZM65.4033 230.485C66.0264 230.485 66.6172 230.324 67.1758 230.002C67.7344 229.68 68.139 229.261 68.3896 228.745V226.36H66.832C64.3971 226.36 63.1797 227.073 63.1797 228.498C63.1797 229.121 63.3874 229.608 63.8027 229.959C64.2181 230.31 64.7516 230.485 65.4033 230.485ZM83.3105 226.317C83.3105 228.086 82.9059 229.511 82.0967 230.593C81.2874 231.674 80.1917 232.215 78.8096 232.215C77.3988 232.215 76.2887 231.767 75.4795 230.872V236.469H73.4922V220.377H75.3076L75.4043 221.666C76.2135 220.663 77.3379 220.162 78.7773 220.162C80.1738 220.162 81.2767 220.688 82.0859 221.741C82.9023 222.794 83.3105 224.258 83.3105 226.135V226.317ZM81.3232 226.092C81.3232 224.781 81.0439 223.746 80.4854 222.987C79.9268 222.228 79.1605 221.849 78.1865 221.849C76.9834 221.849 76.0811 222.382 75.4795 223.449V229.003C76.0739 230.063 76.9834 230.593 78.208 230.593C79.1605 230.593 79.916 230.217 80.4746 229.465C81.0404 228.706 81.3232 227.581 81.3232 226.092ZM87.833 221.784C88.7139 220.703 89.8597 220.162 91.2705 220.162C93.7269 220.162 94.9658 221.548 94.9873 224.319V232H93V224.309C92.9928 223.471 92.7995 222.851 92.4199 222.45C92.0475 222.049 91.4639 221.849 90.6689 221.849C90.0244 221.849 89.4587 222.021 88.9717 222.364C88.4847 222.708 88.1051 223.159 87.833 223.718V232H85.8457V215.5H87.833V221.784ZM110.22 224.685C110.22 226.196 109.98 227.499 109.5 228.595C109.02 229.683 108.347 230.535 107.48 231.151L110.273 233.343L108.866 234.643L105.568 232.021C105.053 232.15 104.508 232.215 103.936 232.215C102.704 232.215 101.612 231.914 100.659 231.312C99.7067 230.704 98.9655 229.841 98.4355 228.724C97.9128 227.599 97.6442 226.299 97.6299 224.824V223.696C97.6299 222.192 97.8913 220.864 98.4141 219.711C98.9368 218.558 99.6745 217.677 100.627 217.068C101.587 216.452 102.682 216.145 103.914 216.145C105.174 216.145 106.281 216.449 107.233 217.058C108.193 217.666 108.931 218.544 109.446 219.689C109.962 220.828 110.22 222.16 110.22 223.686V224.685ZM108.157 223.675C108.157 221.834 107.788 220.416 107.051 219.421C106.32 218.418 105.275 217.917 103.914 217.917C102.618 217.917 101.594 218.415 100.842 219.41C100.097 220.398 99.7139 221.773 99.6924 223.535V224.685C99.6924 226.475 100.065 227.886 100.81 228.917C101.562 229.948 102.604 230.464 103.936 230.464C105.268 230.464 106.299 229.98 107.029 229.014C107.76 228.04 108.136 226.647 108.157 224.835V223.675ZM115.473 230.313H122.885V232H113.399V216.359H115.473V230.313ZM132.768 230.313H140.18V232H130.694V216.359H132.768V230.313ZM149.396 232C149.282 231.771 149.189 231.363 149.117 230.775C148.193 231.735 147.09 232.215 145.809 232.215C144.663 232.215 143.721 231.893 142.983 231.248C142.253 230.596 141.888 229.773 141.888 228.777C141.888 227.567 142.346 226.629 143.263 225.963C144.187 225.29 145.483 224.953 147.151 224.953H149.085V224.04C149.085 223.345 148.877 222.794 148.462 222.386C148.047 221.97 147.434 221.763 146.625 221.763C145.916 221.763 145.322 221.942 144.842 222.3C144.362 222.658 144.122 223.091 144.122 223.6H142.124C142.124 223.02 142.328 222.461 142.736 221.924C143.152 221.38 143.71 220.95 144.412 220.635C145.121 220.32 145.898 220.162 146.743 220.162C148.082 220.162 149.132 220.499 149.891 221.172C150.65 221.838 151.044 222.758 151.072 223.933V229.282C151.072 230.349 151.208 231.198 151.48 231.828V232H149.396ZM146.099 230.485C146.722 230.485 147.312 230.324 147.871 230.002C148.43 229.68 148.834 229.261 149.085 228.745V226.36H147.527C145.092 226.36 143.875 227.073 143.875 228.498C143.875 229.121 144.083 229.608 144.498 229.959C144.913 230.31 145.447 230.485 146.099 230.485ZM157.818 229.089L160.525 220.377H162.652L157.979 233.794C157.256 235.728 156.107 236.694 154.531 236.694L154.155 236.662L153.414 236.522V234.911L153.951 234.954C154.624 234.954 155.147 234.818 155.52 234.546C155.899 234.274 156.211 233.776 156.454 233.053L156.895 231.871L152.748 220.377H154.918L157.818 229.089ZM169.108 232.215C167.533 232.215 166.251 231.699 165.263 230.668C164.274 229.63 163.78 228.244 163.78 226.511V226.146C163.78 224.993 163.999 223.965 164.436 223.062C164.88 222.153 165.495 221.444 166.283 220.936C167.078 220.42 167.938 220.162 168.861 220.162C170.372 220.162 171.547 220.66 172.385 221.655C173.223 222.651 173.642 224.076 173.642 225.931V226.758H165.768C165.796 227.904 166.129 228.831 166.767 229.54C167.411 230.242 168.228 230.593 169.216 230.593C169.918 230.593 170.512 230.45 170.999 230.163C171.486 229.877 171.912 229.497 172.277 229.024L173.491 229.97C172.517 231.466 171.056 232.215 169.108 232.215ZM168.861 221.795C168.059 221.795 167.386 222.089 166.842 222.676C166.298 223.256 165.961 224.072 165.832 225.125H171.654V224.975C171.597 223.965 171.325 223.184 170.838 222.633C170.351 222.074 169.692 221.795 168.861 221.795ZM181.569 222.16C181.269 222.11 180.943 222.085 180.592 222.085C179.288 222.085 178.404 222.64 177.938 223.75V232H175.951V220.377H177.885L177.917 221.72C178.569 220.681 179.493 220.162 180.688 220.162C181.075 220.162 181.369 220.212 181.569 220.312V222.16Z" fill="black"/>
</svg>
