<svg width="281" height="586" viewBox="0 0 281 586" fill="none" xmlns="http://www.w3.org/2000/svg">
<rect x="39" y="185" width="178" height="81" fill="#EEEEEE"/>
<path opacity="0.4" d="M148.714 21.75C148.714 33.7619 138.993 43.5 127 43.5C115.008 43.5 105.286 33.7619 105.286 21.75C105.286 9.73805 115.008 0 127 0C138.993 0 148.714 9.73805 148.714 21.75Z" fill="#495561"/>
<path d="M135.595 51.6564H118.405C102.166 51.6564 89 64.8425 89 81.1093C89 84.3623 91.6334 87.0002 94.8805 87.0002H159.119C162.367 87.0002 165 84.3623 165 81.1093C165 64.8425 151.835 51.6564 135.595 51.6564Z" fill="#495561"/>
<path d="M67.4414 226.093H60.8779V233H58.8154V217.359H68.5049V219.057H60.8779V224.406H67.4414V226.093ZM76.0029 223.16C75.7021 223.11 75.3763 223.085 75.0254 223.085C73.722 223.085 72.8376 223.64 72.3721 224.75V233H70.3848V221.377H72.3184L72.3506 222.72C73.0023 221.681 73.9261 221.162 75.1221 221.162C75.5088 221.162 75.8024 221.212 76.0029 221.312V223.16ZM77.0986 227.081C77.0986 225.942 77.3206 224.918 77.7646 224.009C78.2158 223.099 78.8389 222.397 79.6338 221.903C80.4359 221.409 81.349 221.162 82.373 221.162C83.9557 221.162 85.234 221.71 86.208 222.806C87.1891 223.901 87.6797 225.359 87.6797 227.178V227.317C87.6797 228.449 87.4613 229.466 87.0244 230.368C86.5947 231.263 85.9753 231.962 85.166 232.463C84.3639 232.964 83.4401 233.215 82.3945 233.215C80.819 233.215 79.5407 232.667 78.5596 231.571C77.5856 230.476 77.0986 229.025 77.0986 227.221V227.081ZM79.0967 227.317C79.0967 228.606 79.3939 229.641 79.9883 230.422C80.5898 231.202 81.3919 231.593 82.3945 231.593C83.4043 231.593 84.2064 231.199 84.8008 230.411C85.3952 229.616 85.6924 228.506 85.6924 227.081C85.6924 225.806 85.388 224.775 84.7793 223.987C84.1777 223.192 83.3757 222.795 82.373 222.795C81.3919 222.795 80.6006 223.185 79.999 223.966C79.3975 224.746 79.0967 225.864 79.0967 227.317ZM92.0518 221.377L92.1162 222.838C93.0042 221.721 94.1644 221.162 95.5967 221.162C98.0531 221.162 99.292 222.548 99.3135 225.319V233H97.3262V225.309C97.319 224.471 97.1257 223.851 96.7461 223.45C96.3737 223.049 95.79 222.849 94.9951 222.849C94.3506 222.849 93.7848 223.021 93.2979 223.364C92.8109 223.708 92.4313 224.159 92.1592 224.718V233H90.1719V221.377H92.0518ZM105.007 218.562V221.377H107.177V222.913H105.007V230.121C105.007 230.587 105.104 230.938 105.297 231.174C105.49 231.403 105.82 231.518 106.285 231.518C106.514 231.518 106.829 231.475 107.23 231.389V233C106.708 233.143 106.199 233.215 105.705 233.215C104.817 233.215 104.147 232.946 103.696 232.409C103.245 231.872 103.02 231.109 103.02 230.121V222.913H100.903V221.377H103.02V218.562H105.007ZM114.331 233.215C112.756 233.215 111.474 232.699 110.485 231.668C109.497 230.63 109.003 229.244 109.003 227.511V227.146C109.003 225.993 109.221 224.965 109.658 224.062C110.102 223.153 110.718 222.444 111.506 221.936C112.301 221.42 113.16 221.162 114.084 221.162C115.595 221.162 116.77 221.66 117.607 222.655C118.445 223.651 118.864 225.076 118.864 226.931V227.758H110.99C111.019 228.904 111.352 229.831 111.989 230.54C112.634 231.242 113.45 231.593 114.438 231.593C115.14 231.593 115.735 231.45 116.222 231.163C116.709 230.877 117.135 230.497 117.5 230.024L118.714 230.97C117.74 232.466 116.279 233.215 114.331 233.215ZM114.084 222.795C113.282 222.795 112.609 223.089 112.064 223.676C111.52 224.256 111.184 225.072 111.055 226.125H116.877V225.975C116.82 224.965 116.548 224.184 116.061 223.633C115.574 223.074 114.915 222.795 114.084 222.795ZM123.054 221.377L123.118 222.838C124.006 221.721 125.166 221.162 126.599 221.162C129.055 221.162 130.294 222.548 130.315 225.319V233H128.328V225.309C128.321 224.471 128.128 223.851 127.748 223.45C127.376 223.049 126.792 222.849 125.997 222.849C125.353 222.849 124.787 223.021 124.3 223.364C123.813 223.708 123.433 224.159 123.161 224.718V233H121.174V221.377H123.054ZM132.829 227.092C132.829 225.309 133.252 223.876 134.097 222.795C134.942 221.706 136.048 221.162 137.416 221.162C138.777 221.162 139.854 221.628 140.649 222.559V216.5H142.637V233H140.811L140.714 231.754C139.919 232.728 138.812 233.215 137.395 233.215C136.048 233.215 134.949 232.663 134.097 231.561C133.252 230.458 132.829 229.018 132.829 227.242V227.092ZM134.816 227.317C134.816 228.635 135.089 229.666 135.633 230.411C136.177 231.156 136.929 231.528 137.889 231.528C139.149 231.528 140.069 230.963 140.649 229.831V224.492C140.055 223.396 139.142 222.849 137.91 222.849C136.936 222.849 136.177 223.225 135.633 223.977C135.089 224.729 134.816 225.842 134.816 227.317ZM163.004 228.037C162.811 229.691 162.198 230.97 161.167 231.872C160.143 232.767 158.779 233.215 157.074 233.215C155.227 233.215 153.744 232.552 152.627 231.228C151.517 229.903 150.962 228.13 150.962 225.91V224.406C150.962 222.952 151.22 221.674 151.735 220.571C152.258 219.468 152.996 218.623 153.948 218.036C154.901 217.442 156.004 217.145 157.257 217.145C158.918 217.145 160.25 217.61 161.253 218.541C162.256 219.465 162.839 220.747 163.004 222.387H160.931C160.752 221.141 160.361 220.238 159.76 219.68C159.165 219.121 158.331 218.842 157.257 218.842C155.939 218.842 154.904 219.329 154.152 220.303C153.408 221.277 153.035 222.662 153.035 224.46V225.975C153.035 227.672 153.39 229.022 154.099 230.024C154.808 231.027 155.799 231.528 157.074 231.528C158.22 231.528 159.097 231.271 159.706 230.755C160.322 230.232 160.73 229.326 160.931 228.037H163.004ZM164.991 227.081C164.991 225.942 165.213 224.918 165.657 224.009C166.108 223.099 166.731 222.397 167.526 221.903C168.328 221.409 169.242 221.162 170.266 221.162C171.848 221.162 173.127 221.71 174.101 222.806C175.082 223.901 175.572 225.359 175.572 227.178V227.317C175.572 228.449 175.354 229.466 174.917 230.368C174.487 231.263 173.868 231.962 173.059 232.463C172.257 232.964 171.333 233.215 170.287 233.215C168.712 233.215 167.433 232.667 166.452 231.571C165.478 230.476 164.991 229.025 164.991 227.221V227.081ZM166.989 227.317C166.989 228.606 167.286 229.641 167.881 230.422C168.482 231.202 169.285 231.593 170.287 231.593C171.297 231.593 172.099 231.199 172.693 230.411C173.288 229.616 173.585 228.506 173.585 227.081C173.585 225.806 173.281 224.775 172.672 223.987C172.07 223.192 171.268 222.795 170.266 222.795C169.285 222.795 168.493 223.185 167.892 223.966C167.29 224.746 166.989 225.864 166.989 227.317ZM177.581 227.092C177.581 225.309 178.004 223.876 178.849 222.795C179.694 221.706 180.8 221.162 182.168 221.162C183.529 221.162 184.606 221.628 185.401 222.559V216.5H187.389V233H185.562L185.466 231.754C184.671 232.728 183.564 233.215 182.146 233.215C180.8 233.215 179.701 232.663 178.849 231.561C178.004 230.458 177.581 229.018 177.581 227.242V227.092ZM179.568 227.317C179.568 228.635 179.84 229.666 180.385 230.411C180.929 231.156 181.681 231.528 182.641 231.528C183.901 231.528 184.821 230.963 185.401 229.831V224.492C184.807 223.396 183.894 222.849 182.662 222.849C181.688 222.849 180.929 223.225 180.385 223.977C179.84 224.729 179.568 225.842 179.568 227.317ZM195.306 233.215C193.73 233.215 192.448 232.699 191.46 231.668C190.472 230.63 189.978 229.244 189.978 227.511V227.146C189.978 225.993 190.196 224.965 190.633 224.062C191.077 223.153 191.693 222.444 192.48 221.936C193.275 221.42 194.135 221.162 195.059 221.162C196.57 221.162 197.744 221.66 198.582 222.655C199.42 223.651 199.839 225.076 199.839 226.931V227.758H191.965C191.993 228.904 192.326 229.831 192.964 230.54C193.608 231.242 194.425 231.593 195.413 231.593C196.115 231.593 196.709 231.45 197.196 231.163C197.683 230.877 198.109 230.497 198.475 230.024L199.688 230.97C198.715 232.466 197.254 233.215 195.306 233.215ZM195.059 222.795C194.257 222.795 193.583 223.089 193.039 223.676C192.495 224.256 192.158 225.072 192.029 226.125H197.852V225.975C197.794 224.965 197.522 224.184 197.035 223.633C196.548 223.074 195.889 222.795 195.059 222.795Z" fill="black"/>
<path d="M176.32 133H174.624V127.085H168.173V133H166.485V120.203H168.173V125.705H174.624V120.203H176.32V133ZM187.896 121.592H183.782V133H182.104V121.592H177.999V120.203H187.896V121.592ZM198.776 121.592H194.663V133H192.984V121.592H188.88V120.203H198.776V121.592ZM202.362 127.99V133H200.675V120.203H205.395C206.795 120.203 207.891 120.561 208.682 121.275C209.479 121.99 209.877 122.937 209.877 124.114C209.877 125.356 209.487 126.314 208.708 126.988C207.935 127.656 206.824 127.99 205.377 127.99H202.362ZM202.362 126.61H205.395C206.297 126.61 206.988 126.399 207.469 125.978C207.949 125.55 208.189 124.935 208.189 124.132C208.189 123.37 207.949 122.761 207.469 122.304C206.988 121.847 206.329 121.609 205.491 121.592H202.362V126.61ZM221.188 127.823H218.183V133H216.486V120.203H220.723C222.164 120.203 223.271 120.531 224.045 121.188C224.824 121.844 225.214 122.799 225.214 124.053C225.214 124.85 224.997 125.544 224.563 126.136C224.136 126.728 223.538 127.17 222.771 127.463L225.776 132.895V133H223.966L221.188 127.823ZM218.183 126.443H220.775C221.613 126.443 222.278 126.227 222.771 125.793C223.269 125.359 223.518 124.779 223.518 124.053C223.518 123.262 223.28 122.655 222.806 122.233C222.337 121.812 221.657 121.598 220.767 121.592H218.183V126.443ZM231.278 133.176C229.989 133.176 228.94 132.754 228.132 131.91C227.323 131.061 226.919 129.927 226.919 128.509V128.21C226.919 127.267 227.098 126.426 227.455 125.688C227.818 124.943 228.322 124.363 228.967 123.947C229.617 123.525 230.32 123.314 231.076 123.314C232.312 123.314 233.273 123.722 233.959 124.536C234.645 125.351 234.987 126.517 234.987 128.034V128.711H228.545C228.568 129.648 228.841 130.407 229.362 130.987C229.89 131.562 230.558 131.849 231.366 131.849C231.94 131.849 232.427 131.731 232.825 131.497C233.224 131.263 233.572 130.952 233.871 130.565L234.864 131.339C234.067 132.563 232.872 133.176 231.278 133.176ZM231.076 124.65C230.42 124.65 229.869 124.891 229.424 125.371C228.979 125.846 228.703 126.514 228.598 127.375H233.361V127.252C233.314 126.426 233.092 125.787 232.693 125.336C232.295 124.879 231.756 124.65 231.076 124.65ZM236.481 128.166C236.481 126.672 236.824 125.491 237.51 124.624C238.195 123.751 239.115 123.314 240.27 123.314C241.395 123.314 242.282 123.692 242.933 124.448L243.003 123.49H244.497V136.656H242.871V132.121C242.215 132.824 241.342 133.176 240.252 133.176C239.104 133.176 238.187 132.73 237.501 131.84C236.821 130.943 236.481 129.757 236.481 128.28V128.166ZM238.107 128.351C238.107 129.44 238.336 130.296 238.793 130.917C239.256 131.538 239.877 131.849 240.656 131.849C241.623 131.849 242.361 131.421 242.871 130.565V125.907C242.355 125.069 241.623 124.65 240.674 124.65C239.889 124.65 239.265 124.964 238.802 125.591C238.339 126.212 238.107 127.132 238.107 128.351ZM252.979 132.06C252.346 132.804 251.417 133.176 250.192 133.176C249.179 133.176 248.405 132.883 247.872 132.297C247.345 131.705 247.078 130.832 247.072 129.678V123.49H248.698V129.634C248.698 131.075 249.284 131.796 250.456 131.796C251.698 131.796 252.524 131.333 252.935 130.407V123.49H254.561V133H253.014L252.979 132.06ZM260.985 133.176C259.696 133.176 258.647 132.754 257.839 131.91C257.03 131.061 256.626 129.927 256.626 128.509V128.21C256.626 127.267 256.805 126.426 257.162 125.688C257.525 124.943 258.029 124.363 258.674 123.947C259.324 123.525 260.027 123.314 260.783 123.314C262.02 123.314 262.98 123.722 263.666 124.536C264.352 125.351 264.694 126.517 264.694 128.034V128.711H258.252C258.275 129.648 258.548 130.407 259.069 130.987C259.597 131.562 260.265 131.849 261.073 131.849C261.647 131.849 262.134 131.731 262.532 131.497C262.931 131.263 263.279 130.952 263.578 130.565L264.571 131.339C263.774 132.563 262.579 133.176 260.985 133.176ZM260.783 124.65C260.127 124.65 259.576 124.891 259.131 125.371C258.686 125.846 258.41 126.514 258.305 127.375H263.068V127.252C263.021 126.426 262.799 125.787 262.4 125.336C262.002 124.879 261.463 124.65 260.783 124.65ZM272.121 130.478C272.121 130.038 271.954 129.698 271.62 129.458C271.292 129.212 270.715 129.001 269.889 128.825C269.068 128.649 268.415 128.438 267.929 128.192C267.448 127.946 267.091 127.653 266.856 127.313C266.628 126.974 266.514 126.569 266.514 126.101C266.514 125.321 266.842 124.662 267.498 124.123C268.16 123.584 269.004 123.314 270.029 123.314C271.107 123.314 271.98 123.593 272.648 124.149C273.322 124.706 273.659 125.418 273.659 126.285H272.024C272.024 125.84 271.834 125.456 271.453 125.134C271.078 124.812 270.604 124.65 270.029 124.65C269.438 124.65 268.975 124.779 268.641 125.037C268.307 125.295 268.14 125.632 268.14 126.048C268.14 126.44 268.295 126.736 268.605 126.936C268.916 127.135 269.476 127.325 270.284 127.507C271.099 127.688 271.758 127.905 272.262 128.157C272.766 128.409 273.138 128.714 273.378 129.071C273.624 129.423 273.747 129.854 273.747 130.363C273.747 131.213 273.407 131.896 272.728 132.411C272.048 132.921 271.166 133.176 270.082 133.176C269.32 133.176 268.646 133.041 268.061 132.771C267.475 132.502 267.015 132.127 266.681 131.646C266.353 131.16 266.188 130.636 266.188 130.073H267.814C267.844 130.618 268.061 131.052 268.465 131.374C268.875 131.69 269.414 131.849 270.082 131.849C270.697 131.849 271.189 131.726 271.559 131.479C271.934 131.228 272.121 130.894 272.121 130.478ZM278.071 121.188V123.49H279.847V124.747H278.071V130.645C278.071 131.025 278.15 131.312 278.309 131.506C278.467 131.693 278.736 131.787 279.117 131.787C279.305 131.787 279.562 131.752 279.891 131.682V133C279.463 133.117 279.047 133.176 278.643 133.176C277.916 133.176 277.368 132.956 276.999 132.517C276.63 132.077 276.445 131.453 276.445 130.645V124.747H274.714V123.49H276.445V121.188H278.071Z" fill="black"/>
<path d="M4.24512 128.966L4.49121 130.653L4.85156 129.133L7.38281 120.203H8.80664L11.2764 129.133L11.6279 130.68L11.9004 128.957L13.8867 120.203H15.583L12.4805 133H10.9424L8.30566 123.675L8.10352 122.699L7.90137 123.675L5.16797 133H3.62988L0.536133 120.203H2.22363L4.24512 128.966ZM20.874 133.176C19.585 133.176 18.5361 132.754 17.7275 131.91C16.9189 131.061 16.5146 129.927 16.5146 128.509V128.21C16.5146 127.267 16.6934 126.426 17.0508 125.688C17.4141 124.943 17.918 124.363 18.5625 123.947C19.2129 123.525 19.916 123.314 20.6719 123.314C21.9082 123.314 22.8691 123.722 23.5547 124.536C24.2402 125.351 24.583 126.517 24.583 128.034V128.711H18.1406C18.1641 129.648 18.4365 130.407 18.958 130.987C19.4854 131.562 20.1533 131.849 20.9619 131.849C21.5361 131.849 22.0225 131.731 22.4209 131.497C22.8193 131.263 23.168 130.952 23.4668 130.565L24.46 131.339C23.6631 132.563 22.4678 133.176 20.874 133.176ZM20.6719 124.65C20.0156 124.65 19.4648 124.891 19.0195 125.371C18.5742 125.846 18.2988 126.514 18.1934 127.375H22.957V127.252C22.9102 126.426 22.6875 125.787 22.2891 125.336C21.8906 124.879 21.3516 124.65 20.6719 124.65ZM34.5234 128.351C34.5234 129.804 34.1895 130.973 33.5215 131.857C32.8535 132.736 31.957 133.176 30.832 133.176C29.6309 133.176 28.7021 132.751 28.0459 131.901L27.9668 133H26.4727V119.5H28.0986V124.536C28.7549 123.722 29.6602 123.314 30.8145 123.314C31.9688 123.314 32.874 123.751 33.5303 124.624C34.1924 125.497 34.5234 126.692 34.5234 128.21V128.351ZM32.8975 128.166C32.8975 127.059 32.6836 126.203 32.2559 125.6C31.8281 124.996 31.2129 124.694 30.4102 124.694C29.3379 124.694 28.5674 125.192 28.0986 126.188V130.302C28.5967 131.298 29.373 131.796 30.4277 131.796C31.207 131.796 31.8135 131.494 32.2471 130.891C32.6807 130.287 32.8975 129.379 32.8975 128.166ZM45.0703 127.296C43.623 126.88 42.5684 126.37 41.9062 125.767C41.25 125.157 40.9219 124.407 40.9219 123.517C40.9219 122.509 41.3232 121.677 42.126 121.021C42.9346 120.358 43.9834 120.027 45.2725 120.027C46.1514 120.027 46.9336 120.197 47.6191 120.537C48.3105 120.877 48.8438 121.346 49.2188 121.943C49.5996 122.541 49.79 123.194 49.79 123.903H48.0938C48.0938 123.13 47.8477 122.523 47.3555 122.084C46.8633 121.639 46.1689 121.416 45.2725 121.416C44.4404 121.416 43.79 121.601 43.3213 121.97C42.8584 122.333 42.627 122.84 42.627 123.49C42.627 124.012 42.8467 124.454 43.2861 124.817C43.7314 125.175 44.4844 125.503 45.5449 125.802C46.6113 126.101 47.4434 126.432 48.041 126.795C48.6445 127.152 49.0898 127.571 49.377 128.052C49.6699 128.532 49.8164 129.098 49.8164 129.748C49.8164 130.785 49.4121 131.617 48.6035 132.244C47.7949 132.865 46.7139 133.176 45.3604 133.176C44.4814 133.176 43.6611 133.009 42.8994 132.675C42.1377 132.335 41.5488 131.872 41.1328 131.286C40.7227 130.7 40.5176 130.035 40.5176 129.291H42.2139C42.2139 130.064 42.498 130.677 43.0664 131.128C43.6406 131.573 44.4053 131.796 45.3604 131.796C46.251 131.796 46.9336 131.614 47.4082 131.251C47.8828 130.888 48.1201 130.393 48.1201 129.766C48.1201 129.139 47.9004 128.655 47.4609 128.315C47.0215 127.97 46.2246 127.63 45.0703 127.296ZM51.3018 128.157C51.3018 127.226 51.4834 126.388 51.8467 125.644C52.2158 124.899 52.7256 124.325 53.376 123.921C54.0322 123.517 54.7793 123.314 55.6172 123.314C56.9121 123.314 57.958 123.763 58.7549 124.659C59.5576 125.556 59.959 126.748 59.959 128.236V128.351C59.959 129.276 59.7803 130.108 59.4229 130.847C59.0713 131.579 58.5645 132.15 57.9023 132.561C57.2461 132.971 56.4902 133.176 55.6348 133.176C54.3457 133.176 53.2998 132.728 52.4971 131.831C51.7002 130.935 51.3018 129.748 51.3018 128.271V128.157ZM52.9365 128.351C52.9365 129.405 53.1797 130.252 53.666 130.891C54.1582 131.529 54.8145 131.849 55.6348 131.849C56.4609 131.849 57.1172 131.526 57.6035 130.882C58.0898 130.231 58.333 129.323 58.333 128.157C58.333 127.114 58.084 126.271 57.5859 125.626C57.0938 124.976 56.4375 124.65 55.6172 124.65C54.8145 124.65 54.167 124.97 53.6748 125.608C53.1826 126.247 52.9365 127.161 52.9365 128.351ZM65.8125 131.849C66.3926 131.849 66.8994 131.673 67.333 131.321C67.7666 130.97 68.0068 130.53 68.0537 130.003H69.5918C69.5625 130.548 69.375 131.066 69.0293 131.559C68.6836 132.051 68.2207 132.443 67.6406 132.736C67.0664 133.029 66.457 133.176 65.8125 133.176C64.5176 133.176 63.4863 132.745 62.7188 131.884C61.957 131.017 61.5762 129.833 61.5762 128.333V128.061C61.5762 127.135 61.7461 126.312 62.0859 125.591C62.4258 124.87 62.9121 124.311 63.5449 123.912C64.1836 123.514 64.9365 123.314 65.8037 123.314C66.8701 123.314 67.7549 123.634 68.458 124.272C69.167 124.911 69.5449 125.74 69.5918 126.76H68.0537C68.0068 126.145 67.7725 125.641 67.3506 125.248C66.9346 124.85 66.4189 124.65 65.8037 124.65C64.9775 124.65 64.3359 124.949 63.8789 125.547C63.4277 126.139 63.2021 126.997 63.2021 128.122V128.43C63.2021 129.525 63.4277 130.369 63.8789 130.961C64.3301 131.553 64.9746 131.849 65.8125 131.849ZM74.0742 128.597L73.0547 129.66V133H71.4287V119.5H73.0547V127.665L73.9248 126.619L76.8867 123.49H78.8643L75.1641 127.463L79.2949 133H77.3877L74.0742 128.597ZM84.3135 133.176C83.0244 133.176 81.9756 132.754 81.167 131.91C80.3584 131.061 79.9541 129.927 79.9541 128.509V128.21C79.9541 127.267 80.1328 126.426 80.4902 125.688C80.8535 124.943 81.3574 124.363 82.002 123.947C82.6523 123.525 83.3555 123.314 84.1113 123.314C85.3477 123.314 86.3086 123.722 86.9941 124.536C87.6797 125.351 88.0225 126.517 88.0225 128.034V128.711H81.5801C81.6035 129.648 81.876 130.407 82.3975 130.987C82.9248 131.562 83.5928 131.849 84.4014 131.849C84.9756 131.849 85.4619 131.731 85.8604 131.497C86.2588 131.263 86.6074 130.952 86.9062 130.565L87.8994 131.339C87.1025 132.563 85.9072 133.176 84.3135 133.176ZM84.1113 124.65C83.4551 124.65 82.9043 124.891 82.459 125.371C82.0137 125.846 81.7383 126.514 81.6328 127.375H86.3965V127.252C86.3496 126.426 86.127 125.787 85.7285 125.336C85.3301 124.879 84.791 124.65 84.1113 124.65ZM92.1182 121.188V123.49H93.8936V124.747H92.1182V130.645C92.1182 131.025 92.1973 131.312 92.3555 131.506C92.5137 131.693 92.7832 131.787 93.1641 131.787C93.3516 131.787 93.6094 131.752 93.9375 131.682V133C93.5098 133.117 93.0938 133.176 92.6895 133.176C91.9629 133.176 91.415 132.956 91.0459 132.517C90.6768 132.077 90.4922 131.453 90.4922 130.645V124.747H88.7607V123.49H90.4922V121.188H92.1182Z" fill="black"/>
<path d="M144 84.5C141.5 84.5 139.5 86.5 139.5 89C139.5 91.5 141.5 93.5 144 93.5C146.5 93.5 148.5 91.5 148.5 89C148.5 86.5 146.5 84.5 144 84.5Z" fill="white"/>
<path d="M142.939 181.061C143.525 181.646 144.475 181.646 145.061 181.061L154.607 171.515C155.192 170.929 155.192 169.979 154.607 169.393C154.021 168.808 153.071 168.808 152.485 169.393L144 177.879L135.515 169.393C134.929 168.808 133.979 168.808 133.393 169.393C132.808 169.979 132.808 170.929 133.393 171.515L142.939 181.061ZM141 89C141 87.3284 142.328 86 144 86V83C140.672 83 138 85.6716 138 89H141ZM144 86C145.672 86 147 87.3284 147 89H150C150 85.6716 147.328 83 144 83V86ZM147 89C147 90.6716 145.672 92 144 92V95C147.328 95 150 92.3284 150 89H147ZM144 92C142.328 92 141 90.6716 141 89H138C138 92.3284 140.672 95 144 95V92ZM142.5 93.5V180H145.5V93.5H142.5Z" fill="black"/>
<path d="M111.061 84.9393C110.475 84.3536 109.525 84.3536 108.939 84.9393L99.3934 94.4853C98.8076 95.0711 98.8076 96.0208 99.3934 96.6066C99.9792 97.1924 100.929 97.1924 101.515 96.6066L110 88.1213L118.485 96.6066C119.071 97.1924 120.021 97.1924 120.607 96.6066C121.192 96.0208 121.192 95.0711 120.607 94.4853L111.061 84.9393ZM108.939 181.061C109.525 181.646 110.475 181.646 111.061 181.061L120.607 171.515C121.192 170.929 121.192 169.979 120.607 169.393C120.021 168.808 119.071 168.808 118.485 169.393L110 177.879L101.515 169.393C100.929 168.808 99.9792 168.808 99.3934 169.393C98.8076 169.979 98.8076 170.929 99.3934 171.515L108.939 181.061ZM108.5 86L108.5 180L111.5 180L111.5 86L108.5 86Z" fill="black"/>
<path d="M130.061 260.939C129.475 260.354 128.525 260.354 127.939 260.939L118.393 270.485C117.808 271.071 117.808 272.021 118.393 272.607C118.979 273.192 119.929 273.192 120.515 272.607L129 264.121L137.485 272.607C138.071 273.192 139.021 273.192 139.607 272.607C140.192 272.021 140.192 271.071 139.607 270.485L130.061 260.939ZM127.939 319.061C128.525 319.646 129.475 319.646 130.061 319.061L139.607 309.515C140.192 308.929 140.192 307.979 139.607 307.393C139.021 306.808 138.071 306.808 137.485 307.393L129 315.879L120.515 307.393C119.929 306.808 118.979 306.808 118.393 307.393C117.808 307.979 117.808 308.929 118.393 309.515L127.939 319.061ZM127.5 262L127.5 318L130.5 318L130.5 262L127.5 262Z" fill="black"/>
<rect x="38" y="320" width="178" height="81" fill="#EEEEEE"/>
<path d="M81.1885 366.069L81.4893 368.132L81.9297 366.273L85.0234 355.359H86.7637L89.7822 366.273L90.2119 368.164L90.5449 366.059L92.9727 355.359H95.0459L91.2539 371H89.374L86.1514 359.603L85.9043 358.41L85.6572 359.603L82.3164 371H80.4365L76.6553 355.359H78.7178L81.1885 366.069ZM101.513 371.215C99.9372 371.215 98.6553 370.699 97.667 369.668C96.6787 368.63 96.1846 367.244 96.1846 365.511V365.146C96.1846 363.993 96.403 362.965 96.8398 362.062C97.2839 361.153 97.8997 360.444 98.6875 359.936C99.4824 359.42 100.342 359.162 101.266 359.162C102.777 359.162 103.951 359.66 104.789 360.655C105.627 361.651 106.046 363.076 106.046 364.931V365.758H98.1719C98.2005 366.904 98.5335 367.831 99.1709 368.54C99.8154 369.242 100.632 369.593 101.62 369.593C102.322 369.593 102.916 369.45 103.403 369.163C103.89 368.877 104.316 368.497 104.682 368.024L105.896 368.97C104.922 370.466 103.461 371.215 101.513 371.215ZM101.266 360.795C100.464 360.795 99.7904 361.089 99.2461 361.676C98.7018 362.256 98.3652 363.072 98.2363 364.125H104.059V363.975C104.001 362.965 103.729 362.184 103.242 361.633C102.755 361.074 102.096 360.795 101.266 360.795ZM118.195 365.317C118.195 367.093 117.787 368.522 116.971 369.604C116.154 370.678 115.059 371.215 113.684 371.215C112.215 371.215 111.08 370.696 110.278 369.657L110.182 371H108.355V354.5H110.343V360.655C111.145 359.66 112.251 359.162 113.662 359.162C115.073 359.162 116.179 359.696 116.981 360.763C117.791 361.83 118.195 363.291 118.195 365.146V365.317ZM116.208 365.092C116.208 363.738 115.947 362.693 115.424 361.955C114.901 361.217 114.149 360.849 113.168 360.849C111.857 360.849 110.916 361.457 110.343 362.675V367.702C110.951 368.92 111.9 369.528 113.189 369.528C114.142 369.528 114.883 369.16 115.413 368.422C115.943 367.684 116.208 366.574 116.208 365.092ZM128.551 369.313H135.963V371H126.478V355.359H128.551V369.313ZM145.18 371C145.065 370.771 144.972 370.363 144.9 369.775C143.977 370.735 142.874 371.215 141.592 371.215C140.446 371.215 139.504 370.893 138.767 370.248C138.036 369.596 137.671 368.773 137.671 367.777C137.671 366.567 138.129 365.629 139.046 364.963C139.97 364.29 141.266 363.953 142.935 363.953H144.868V363.04C144.868 362.345 144.66 361.794 144.245 361.386C143.83 360.97 143.217 360.763 142.408 360.763C141.699 360.763 141.105 360.942 140.625 361.3C140.145 361.658 139.905 362.091 139.905 362.6H137.907C137.907 362.02 138.111 361.461 138.52 360.924C138.935 360.38 139.493 359.95 140.195 359.635C140.904 359.32 141.681 359.162 142.526 359.162C143.866 359.162 144.915 359.499 145.674 360.172C146.433 360.838 146.827 361.758 146.855 362.933V368.282C146.855 369.349 146.992 370.198 147.264 370.828V371H145.18ZM141.882 369.485C142.505 369.485 143.096 369.324 143.654 369.002C144.213 368.68 144.618 368.261 144.868 367.745V365.36H143.311C140.876 365.36 139.658 366.073 139.658 367.498C139.658 368.121 139.866 368.608 140.281 368.959C140.697 369.31 141.23 369.485 141.882 369.485ZM153.602 368.089L156.309 359.377H158.436L153.763 372.794C153.039 374.728 151.89 375.694 150.314 375.694L149.938 375.662L149.197 375.522V373.911L149.734 373.954C150.408 373.954 150.93 373.818 151.303 373.546C151.682 373.274 151.994 372.776 152.237 372.053L152.678 370.871L148.531 359.377H150.701L153.602 368.089ZM164.892 371.215C163.316 371.215 162.034 370.699 161.046 369.668C160.058 368.63 159.563 367.244 159.563 365.511V365.146C159.563 363.993 159.782 362.965 160.219 362.062C160.663 361.153 161.279 360.444 162.066 359.936C162.861 359.42 163.721 359.162 164.645 359.162C166.156 359.162 167.33 359.66 168.168 360.655C169.006 361.651 169.425 363.076 169.425 364.931V365.758H161.551C161.579 366.904 161.912 367.831 162.55 368.54C163.194 369.242 164.011 369.593 164.999 369.593C165.701 369.593 166.295 369.45 166.782 369.163C167.269 368.877 167.695 368.497 168.061 368.024L169.274 368.97C168.3 370.466 166.84 371.215 164.892 371.215ZM164.645 360.795C163.842 360.795 163.169 361.089 162.625 361.676C162.081 362.256 161.744 363.072 161.615 364.125H167.438V363.975C167.38 362.965 167.108 362.184 166.621 361.633C166.134 361.074 165.475 360.795 164.645 360.795ZM177.353 361.16C177.052 361.11 176.726 361.085 176.375 361.085C175.072 361.085 174.187 361.64 173.722 362.75V371H171.734V359.377H173.668L173.7 360.72C174.352 359.681 175.276 359.162 176.472 359.162C176.858 359.162 177.152 359.212 177.353 359.312V361.16Z" fill="black"/>
<path d="M126.061 403.939C125.475 403.354 124.525 403.354 123.939 403.939L114.393 413.485C113.808 414.071 113.808 415.021 114.393 415.607C114.979 416.192 115.929 416.192 116.515 415.607L125 407.121L133.485 415.607C134.071 416.192 135.021 416.192 135.607 415.607C136.192 415.021 136.192 414.071 135.607 413.485L126.061 403.939ZM123.939 504.061C124.525 504.646 125.475 504.646 126.061 504.061L135.607 494.515C136.192 493.929 136.192 492.979 135.607 492.393C135.021 491.808 134.071 491.808 133.485 492.393L125 500.879L116.515 492.393C115.929 491.808 114.979 491.808 114.393 492.393C113.808 492.979 113.808 493.929 114.393 494.515L123.939 504.061ZM123.5 405V503H126.5V405H123.5Z" fill="black"/>
<rect x="73" y="438" width="105" height="33" fill="white"/>
<path d="M41.1484 460.135C40.6667 460.825 39.9928 461.342 39.127 461.688C38.2676 462.026 37.265 462.195 36.1191 462.195C34.9603 462.195 33.9316 461.925 33.0332 461.385C32.1348 460.838 31.4382 460.063 30.9434 459.061C30.4551 458.058 30.2044 456.896 30.1914 455.574V454.334C30.1914 452.192 30.6895 450.532 31.6855 449.354C32.6882 448.175 34.0944 447.586 35.9043 447.586C37.3887 447.586 38.5833 447.967 39.4883 448.729C40.3932 449.484 40.9466 450.558 41.1484 451.951H39.2734C38.9219 450.07 37.8021 449.129 35.9141 449.129C34.6576 449.129 33.7038 449.572 33.0527 450.457C32.4082 451.336 32.0827 452.612 32.0762 454.285V455.447C32.0762 457.042 32.4408 458.312 33.1699 459.256C33.8991 460.193 34.8854 460.662 36.1289 460.662C36.832 460.662 37.4473 460.584 37.9746 460.428C38.502 460.271 38.9382 460.008 39.2832 459.637V456.443H35.9922V454.92H41.1484V460.135ZM49.1074 453.055C48.834 453.009 48.5378 452.986 48.2188 452.986C47.0339 452.986 46.2298 453.491 45.8066 454.5V462H44V451.434H45.7578L45.7871 452.654C46.3796 451.71 47.2194 451.238 48.3066 451.238C48.6582 451.238 48.9251 451.284 49.1074 451.375V453.055ZM56.9102 462C56.806 461.792 56.7214 461.421 56.6562 460.887C55.8164 461.759 54.8138 462.195 53.6484 462.195C52.6068 462.195 51.7507 461.902 51.0801 461.316C50.416 460.724 50.084 459.975 50.084 459.07C50.084 457.97 50.5007 457.117 51.334 456.512C52.1738 455.9 53.3522 455.594 54.8691 455.594H56.627V454.764C56.627 454.132 56.4382 453.631 56.0605 453.26C55.6829 452.882 55.1263 452.693 54.3906 452.693C53.7461 452.693 53.2057 452.856 52.7695 453.182C52.3333 453.507 52.1152 453.901 52.1152 454.363H50.2988C50.2988 453.836 50.4844 453.328 50.8555 452.84C51.2331 452.345 51.7409 451.954 52.3789 451.668C53.0234 451.382 53.7298 451.238 54.498 451.238C55.7155 451.238 56.6693 451.544 57.3594 452.156C58.0495 452.762 58.4076 453.598 58.4336 454.666V459.529C58.4336 460.499 58.5573 461.271 58.8047 461.844V462H56.9102ZM53.9121 460.623C54.4785 460.623 55.0156 460.477 55.5234 460.184C56.0312 459.891 56.3991 459.51 56.627 459.041V456.873H55.2109C52.9974 456.873 51.8906 457.521 51.8906 458.816C51.8906 459.383 52.0794 459.826 52.457 460.145C52.8346 460.464 53.3197 460.623 53.9121 460.623ZM70.1914 456.834C70.1914 458.442 69.8236 459.738 69.0879 460.721C68.3522 461.704 67.3561 462.195 66.0996 462.195C64.8171 462.195 63.8079 461.788 63.0723 460.975V466.062H61.2656V451.434H62.916L63.0039 452.605C63.7396 451.694 64.7617 451.238 66.0703 451.238C67.3398 451.238 68.3424 451.717 69.0781 452.674C69.8203 453.631 70.1914 454.962 70.1914 456.668V456.834ZM68.3848 456.629C68.3848 455.438 68.1309 454.497 67.623 453.807C67.1152 453.117 66.4186 452.771 65.5332 452.771C64.4395 452.771 63.6191 453.257 63.0723 454.227V459.275C63.6126 460.239 64.4395 460.721 65.5527 460.721C66.4186 460.721 67.1055 460.379 67.6133 459.695C68.1276 459.005 68.3848 457.983 68.3848 456.629ZM74.3027 452.713C75.1035 451.73 76.1452 451.238 77.4277 451.238C79.6608 451.238 80.7871 452.498 80.8066 455.018V462H79V455.008C78.9935 454.246 78.8177 453.683 78.4727 453.318C78.1341 452.954 77.6035 452.771 76.8809 452.771C76.2949 452.771 75.7806 452.928 75.3379 453.24C74.8952 453.553 74.5501 453.963 74.3027 454.471V462H72.4961V447H74.3027V452.713ZM94.6543 455.35C94.6543 456.723 94.4362 457.908 94 458.904C93.5638 459.894 92.9518 460.669 92.1641 461.229L94.7031 463.221L93.4238 464.402L90.4258 462.02C89.957 462.137 89.4622 462.195 88.9414 462.195C87.8216 462.195 86.8288 461.922 85.9629 461.375C85.097 460.822 84.4232 460.037 83.9414 459.021C83.4661 457.999 83.222 456.818 83.209 455.477V454.451C83.209 453.084 83.4466 451.876 83.9219 450.828C84.3971 449.78 85.0677 448.979 85.9336 448.426C86.806 447.866 87.8021 447.586 88.9219 447.586C90.0677 447.586 91.0736 447.863 91.9395 448.416C92.8118 448.969 93.4824 449.767 93.9512 450.809C94.4199 451.844 94.6543 453.055 94.6543 454.441V455.35ZM92.7793 454.432C92.7793 452.758 92.444 451.469 91.7734 450.564C91.1094 449.653 90.1589 449.197 88.9219 449.197C87.7435 449.197 86.8125 449.65 86.1289 450.555C85.4518 451.453 85.1035 452.703 85.084 454.305V455.35C85.084 456.977 85.4225 458.26 86.0996 459.197C86.7832 460.135 87.7305 460.604 88.9414 460.604C90.1523 460.604 91.0898 460.164 91.7539 459.285C92.418 458.4 92.7598 457.133 92.7793 455.486V454.432ZM99.4297 460.467H106.168V462H97.5449V447.781H99.4297V460.467ZM119.137 459.197C119.137 458.709 118.951 458.331 118.58 458.064C118.215 457.791 117.574 457.557 116.656 457.361C115.745 457.166 115.019 456.932 114.479 456.658C113.945 456.385 113.548 456.059 113.287 455.682C113.033 455.304 112.906 454.855 112.906 454.334C112.906 453.468 113.271 452.736 114 452.137C114.736 451.538 115.673 451.238 116.812 451.238C118.01 451.238 118.98 451.548 119.723 452.166C120.471 452.785 120.846 453.576 120.846 454.539H119.029C119.029 454.044 118.818 453.618 118.395 453.26C117.978 452.902 117.451 452.723 116.812 452.723C116.155 452.723 115.641 452.866 115.27 453.152C114.898 453.439 114.713 453.813 114.713 454.275C114.713 454.712 114.885 455.04 115.23 455.262C115.576 455.483 116.197 455.695 117.096 455.896C118.001 456.098 118.733 456.339 119.293 456.619C119.853 456.899 120.266 457.238 120.533 457.635C120.807 458.025 120.943 458.504 120.943 459.07C120.943 460.014 120.566 460.773 119.811 461.346C119.055 461.912 118.076 462.195 116.871 462.195C116.025 462.195 115.276 462.046 114.625 461.746C113.974 461.447 113.463 461.03 113.092 460.496C112.727 459.956 112.545 459.373 112.545 458.748H114.352C114.384 459.354 114.625 459.835 115.074 460.193C115.53 460.545 116.129 460.721 116.871 460.721C117.555 460.721 118.102 460.584 118.512 460.311C118.928 460.031 119.137 459.66 119.137 459.197ZM125.748 448.875V451.434H127.721V452.83H125.748V459.383C125.748 459.806 125.836 460.125 126.012 460.34C126.188 460.548 126.487 460.652 126.91 460.652C127.118 460.652 127.405 460.613 127.77 460.535V462C127.294 462.13 126.832 462.195 126.383 462.195C125.576 462.195 124.967 461.951 124.557 461.463C124.146 460.975 123.941 460.281 123.941 459.383V452.83H122.018V451.434H123.941V448.875H125.748ZM134.947 453.055C134.674 453.009 134.378 452.986 134.059 452.986C132.874 452.986 132.07 453.491 131.646 454.5V462H129.84V451.434H131.598L131.627 452.654C132.219 451.71 133.059 451.238 134.146 451.238C134.498 451.238 134.765 451.284 134.947 451.375V453.055ZM138.58 462H136.773V451.434H138.58V462ZM136.627 448.631C136.627 448.338 136.715 448.09 136.891 447.889C137.073 447.687 137.34 447.586 137.691 447.586C138.043 447.586 138.31 447.687 138.492 447.889C138.674 448.09 138.766 448.338 138.766 448.631C138.766 448.924 138.674 449.168 138.492 449.363C138.31 449.559 138.043 449.656 137.691 449.656C137.34 449.656 137.073 449.559 136.891 449.363C136.715 449.168 136.627 448.924 136.627 448.631ZM143.189 451.434L143.248 452.762C144.055 451.746 145.11 451.238 146.412 451.238C148.645 451.238 149.771 452.498 149.791 455.018V462H147.984V455.008C147.978 454.246 147.802 453.683 147.457 453.318C147.118 452.954 146.588 452.771 145.865 452.771C145.279 452.771 144.765 452.928 144.322 453.24C143.88 453.553 143.535 453.963 143.287 454.471V462H141.48V451.434H143.189ZM152.086 456.629C152.086 454.982 152.467 453.673 153.229 452.703C153.99 451.727 154.999 451.238 156.256 451.238C157.545 451.238 158.551 451.694 159.273 452.605L159.361 451.434H161.012V461.746C161.012 463.113 160.605 464.191 159.791 464.979C158.984 465.766 157.896 466.16 156.529 466.16C155.768 466.16 155.022 465.997 154.293 465.672C153.564 465.346 153.007 464.9 152.623 464.334L153.561 463.25C154.335 464.207 155.283 464.686 156.402 464.686C157.281 464.686 157.965 464.438 158.453 463.943C158.948 463.449 159.195 462.752 159.195 461.854V460.945C158.473 461.779 157.486 462.195 156.236 462.195C154.999 462.195 153.997 461.697 153.229 460.701C152.467 459.705 152.086 458.348 152.086 456.629ZM153.902 456.834C153.902 458.025 154.146 458.963 154.635 459.646C155.123 460.324 155.807 460.662 156.686 460.662C157.825 460.662 158.661 460.145 159.195 459.109V454.285C158.642 453.276 157.812 452.771 156.705 452.771C155.826 452.771 155.139 453.113 154.645 453.797C154.15 454.48 153.902 455.493 153.902 456.834ZM170.67 462H168.863V451.434H170.67V462ZM168.717 448.631C168.717 448.338 168.805 448.09 168.98 447.889C169.163 447.687 169.43 447.586 169.781 447.586C170.133 447.586 170.4 447.687 170.582 447.889C170.764 448.09 170.855 448.338 170.855 448.631C170.855 448.924 170.764 449.168 170.582 449.363C170.4 449.559 170.133 449.656 169.781 449.656C169.43 449.656 169.163 449.559 168.98 449.363C168.805 449.168 168.717 448.924 168.717 448.631ZM175.279 451.434L175.338 452.762C176.145 451.746 177.2 451.238 178.502 451.238C180.735 451.238 181.861 452.498 181.881 455.018V462H180.074V455.008C180.068 454.246 179.892 453.683 179.547 453.318C179.208 452.954 178.678 452.771 177.955 452.771C177.369 452.771 176.855 452.928 176.412 453.24C175.969 453.553 175.624 453.963 175.377 454.471V462H173.57V451.434H175.279ZM195.807 447.781H197.691V457.85C197.691 459.21 197.281 460.275 196.461 461.043C195.647 461.811 194.56 462.195 193.199 462.195C191.786 462.195 190.686 461.834 189.898 461.111C189.111 460.389 188.717 459.376 188.717 458.074H190.592C190.592 458.888 190.813 459.523 191.256 459.979C191.705 460.434 192.353 460.662 193.199 460.662C193.974 460.662 194.599 460.418 195.074 459.93C195.556 459.441 195.8 458.758 195.807 457.879V447.781ZM205.074 455.662C203.466 455.2 202.294 454.633 201.559 453.963C200.829 453.286 200.465 452.452 200.465 451.463C200.465 450.343 200.911 449.419 201.803 448.689C202.701 447.954 203.867 447.586 205.299 447.586C206.275 447.586 207.145 447.775 207.906 448.152C208.674 448.53 209.267 449.051 209.684 449.715C210.107 450.379 210.318 451.105 210.318 451.893H208.434C208.434 451.033 208.16 450.359 207.613 449.871C207.066 449.376 206.295 449.129 205.299 449.129C204.374 449.129 203.652 449.334 203.131 449.744C202.617 450.148 202.359 450.711 202.359 451.434C202.359 452.013 202.604 452.505 203.092 452.908C203.587 453.305 204.423 453.67 205.602 454.002C206.786 454.334 207.711 454.702 208.375 455.105C209.046 455.503 209.54 455.968 209.859 456.502C210.185 457.036 210.348 457.664 210.348 458.387C210.348 459.539 209.898 460.464 209 461.16C208.102 461.85 206.9 462.195 205.396 462.195C204.42 462.195 203.508 462.01 202.662 461.639C201.816 461.261 201.161 460.747 200.699 460.096C200.243 459.445 200.016 458.706 200.016 457.879H201.9C201.9 458.738 202.216 459.419 202.848 459.92C203.486 460.415 204.335 460.662 205.396 460.662C206.386 460.662 207.145 460.46 207.672 460.057C208.199 459.653 208.463 459.103 208.463 458.406C208.463 457.71 208.219 457.173 207.73 456.795C207.242 456.411 206.357 456.033 205.074 455.662ZM223.697 455.35C223.697 456.743 223.463 457.96 222.994 459.002C222.525 460.037 221.861 460.828 221.002 461.375C220.143 461.922 219.14 462.195 217.994 462.195C216.874 462.195 215.882 461.922 215.016 461.375C214.15 460.822 213.476 460.037 212.994 459.021C212.519 457.999 212.275 456.818 212.262 455.477V454.451C212.262 453.084 212.499 451.876 212.975 450.828C213.45 449.78 214.12 448.979 214.986 448.426C215.859 447.866 216.855 447.586 217.975 447.586C219.114 447.586 220.117 447.863 220.982 448.416C221.855 448.963 222.525 449.76 222.994 450.809C223.463 451.85 223.697 453.064 223.697 454.451V455.35ZM221.832 454.432C221.832 452.745 221.493 451.453 220.816 450.555C220.139 449.65 219.192 449.197 217.975 449.197C216.79 449.197 215.855 449.65 215.172 450.555C214.495 451.453 214.146 452.703 214.127 454.305V455.35C214.127 456.984 214.469 458.27 215.152 459.207C215.842 460.138 216.79 460.604 217.994 460.604C219.205 460.604 220.143 460.164 220.807 459.285C221.471 458.4 221.812 457.133 221.832 455.486V454.432ZM237.438 462H235.553L228.395 451.043V462H226.51V447.781H228.395L235.572 458.787V447.781H237.438V462Z" fill="black"/>
<rect x="21" y="506" width="212" height="80" fill="#EEEEEE"/>
<path d="M70.3633 549.948C69.8333 550.707 69.0921 551.277 68.1396 551.656C67.1943 552.029 66.0915 552.215 64.8311 552.215C63.5563 552.215 62.4248 551.918 61.4365 551.323C60.4482 550.722 59.682 549.869 59.1377 548.767C58.6006 547.664 58.3249 546.385 58.3105 544.932V543.567C58.3105 541.211 58.8584 539.385 59.9541 538.089C61.057 536.793 62.6038 536.145 64.5947 536.145C66.2275 536.145 67.5417 536.563 68.5371 537.401C69.5326 538.232 70.1413 539.414 70.3633 540.946H68.3008C67.9141 538.877 66.6823 537.842 64.6055 537.842C63.2233 537.842 62.1742 538.329 61.458 539.303C60.749 540.27 60.391 541.673 60.3838 543.514V544.792C60.3838 546.547 60.7848 547.943 61.5869 548.981C62.389 550.013 63.474 550.528 64.8418 550.528C65.6152 550.528 66.292 550.442 66.8721 550.271C67.4521 550.099 67.932 549.809 68.3115 549.4V545.888H64.6914V544.212H70.3633V549.948ZM79.1182 542.16C78.8174 542.11 78.4915 542.085 78.1406 542.085C76.8372 542.085 75.9528 542.64 75.4873 543.75V552H73.5V540.377H75.4336L75.4658 541.72C76.1175 540.681 77.0413 540.162 78.2373 540.162C78.624 540.162 78.9176 540.212 79.1182 540.312V542.16ZM87.7012 552C87.5866 551.771 87.4935 551.363 87.4219 550.775C86.498 551.735 85.3952 552.215 84.1133 552.215C82.9674 552.215 82.0257 551.893 81.2881 551.248C80.5576 550.596 80.1924 549.773 80.1924 548.777C80.1924 547.567 80.6507 546.629 81.5674 545.963C82.4912 545.29 83.7874 544.953 85.4561 544.953H87.3896V544.04C87.3896 543.345 87.182 542.794 86.7666 542.386C86.3512 541.97 85.7389 541.763 84.9297 541.763C84.2207 541.763 83.6263 541.942 83.1465 542.3C82.6667 542.658 82.4268 543.091 82.4268 543.6H80.4287C80.4287 543.02 80.6328 542.461 81.041 541.924C81.4564 541.38 82.015 540.95 82.7168 540.635C83.4258 540.32 84.2028 540.162 85.0479 540.162C86.387 540.162 87.4362 540.499 88.1953 541.172C88.9544 541.838 89.3483 542.758 89.377 543.933V549.282C89.377 550.349 89.513 551.198 89.7852 551.828V552H87.7012ZM84.4033 550.485C85.0264 550.485 85.6172 550.324 86.1758 550.002C86.7344 549.68 87.139 549.261 87.3896 548.745V546.36H85.832C83.3971 546.36 82.1797 547.073 82.1797 548.498C82.1797 549.121 82.3874 549.608 82.8027 549.959C83.2181 550.31 83.7516 550.485 84.4033 550.485ZM102.311 546.317C102.311 548.086 101.906 549.511 101.097 550.593C100.287 551.674 99.1917 552.215 97.8096 552.215C96.3988 552.215 95.2887 551.767 94.4795 550.872V556.469H92.4922V540.377H94.3076L94.4043 541.666C95.2135 540.663 96.3379 540.162 97.7773 540.162C99.1738 540.162 100.277 540.688 101.086 541.741C101.902 542.794 102.311 544.258 102.311 546.135V546.317ZM100.323 546.092C100.323 544.781 100.044 543.746 99.4854 542.987C98.9268 542.228 98.1605 541.849 97.1865 541.849C95.9834 541.849 95.0811 542.382 94.4795 543.449V549.003C95.0739 550.063 95.9834 550.593 97.208 550.593C98.1605 550.593 98.916 550.217 99.4746 549.465C100.04 548.706 100.323 547.581 100.323 546.092ZM106.833 541.784C107.714 540.703 108.86 540.162 110.271 540.162C112.727 540.162 113.966 541.548 113.987 544.319V552H112V544.309C111.993 543.471 111.799 542.851 111.42 542.45C111.048 542.049 110.464 541.849 109.669 541.849C109.024 541.849 108.459 542.021 107.972 542.364C107.485 542.708 107.105 543.159 106.833 543.718V552H104.846V535.5H106.833V541.784ZM129.22 544.685C129.22 546.196 128.98 547.499 128.5 548.595C128.02 549.683 127.347 550.535 126.48 551.151L129.273 553.343L127.866 554.643L124.568 552.021C124.053 552.15 123.508 552.215 122.936 552.215C121.704 552.215 120.612 551.914 119.659 551.312C118.707 550.704 117.965 549.841 117.436 548.724C116.913 547.599 116.644 546.299 116.63 544.824V543.696C116.63 542.192 116.891 540.864 117.414 539.711C117.937 538.558 118.674 537.677 119.627 537.068C120.587 536.452 121.682 536.145 122.914 536.145C124.174 536.145 125.281 536.449 126.233 537.058C127.193 537.666 127.931 538.544 128.446 539.689C128.962 540.828 129.22 542.16 129.22 543.686V544.685ZM127.157 543.675C127.157 541.834 126.788 540.416 126.051 539.421C125.32 538.418 124.275 537.917 122.914 537.917C121.618 537.917 120.594 538.415 119.842 539.41C119.097 540.398 118.714 541.773 118.692 543.535V544.685C118.692 546.475 119.065 547.886 119.81 548.917C120.562 549.948 121.604 550.464 122.936 550.464C124.268 550.464 125.299 549.98 126.029 549.014C126.76 548.04 127.136 546.647 127.157 544.835V543.675ZM134.473 550.313H141.885V552H132.399V536.359H134.473V550.313ZM151.768 550.313H159.18V552H149.694V536.359H151.768V550.313ZM168.396 552C168.282 551.771 168.189 551.363 168.117 550.775C167.193 551.735 166.09 552.215 164.809 552.215C163.663 552.215 162.721 551.893 161.983 551.248C161.253 550.596 160.888 549.773 160.888 548.777C160.888 547.567 161.346 546.629 162.263 545.963C163.187 545.29 164.483 544.953 166.151 544.953H168.085V544.04C168.085 543.345 167.877 542.794 167.462 542.386C167.047 541.97 166.434 541.763 165.625 541.763C164.916 541.763 164.322 541.942 163.842 542.3C163.362 542.658 163.122 543.091 163.122 543.6H161.124C161.124 543.02 161.328 542.461 161.736 541.924C162.152 541.38 162.71 540.95 163.412 540.635C164.121 540.32 164.898 540.162 165.743 540.162C167.082 540.162 168.132 540.499 168.891 541.172C169.65 541.838 170.044 542.758 170.072 543.933V549.282C170.072 550.349 170.208 551.198 170.48 551.828V552H168.396ZM165.099 550.485C165.722 550.485 166.312 550.324 166.871 550.002C167.43 549.68 167.834 549.261 168.085 548.745V546.36H166.527C164.092 546.36 162.875 547.073 162.875 548.498C162.875 549.121 163.083 549.608 163.498 549.959C163.913 550.31 164.447 550.485 165.099 550.485ZM176.818 549.089L179.525 540.377H181.652L176.979 553.794C176.256 555.728 175.107 556.694 173.531 556.694L173.155 556.662L172.414 556.522V554.911L172.951 554.954C173.624 554.954 174.147 554.818 174.52 554.546C174.899 554.274 175.211 553.776 175.454 553.053L175.895 551.871L171.748 540.377H173.918L176.818 549.089ZM188.108 552.215C186.533 552.215 185.251 551.699 184.263 550.668C183.274 549.63 182.78 548.244 182.78 546.511V546.146C182.78 544.993 182.999 543.965 183.436 543.062C183.88 542.153 184.495 541.444 185.283 540.936C186.078 540.42 186.938 540.162 187.861 540.162C189.372 540.162 190.547 540.66 191.385 541.655C192.223 542.651 192.642 544.076 192.642 545.931V546.758H184.768C184.796 547.904 185.129 548.831 185.767 549.54C186.411 550.242 187.228 550.593 188.216 550.593C188.918 550.593 189.512 550.45 189.999 550.163C190.486 549.877 190.912 549.497 191.277 549.024L192.491 549.97C191.517 551.466 190.056 552.215 188.108 552.215ZM187.861 541.795C187.059 541.795 186.386 542.089 185.842 542.676C185.298 543.256 184.961 544.072 184.832 545.125H190.654V544.975C190.597 543.965 190.325 543.184 189.838 542.633C189.351 542.074 188.692 541.795 187.861 541.795ZM200.569 542.16C200.269 542.11 199.943 542.085 199.592 542.085C198.288 542.085 197.404 542.64 196.938 543.75V552H194.951V540.377H196.885L196.917 541.72C197.569 540.681 198.493 540.162 199.688 540.162C200.075 540.162 200.369 540.212 200.569 540.312V542.16Z" fill="black"/>
</svg>
