<svg width="16" height="18" viewBox="0 0 16 18" fill="none" xmlns="http://www.w3.org/2000/svg">
<g clip-path="url(#clip0)">
<path d="M5.3608 13.9319L6.05077 13.2419C6.21787 13.0748 6.21513 12.803 6.04469 12.6393L3.20695 9.91406H15.3281C15.5611 9.91406 15.75 9.72516 15.75 9.49218V8.50781C15.75 8.27483 15.5611 8.08593 15.3281 8.08593H3.20695L6.04466 5.36069C6.21513 5.197 6.21787 4.92521 6.05074 4.75811L5.36076 4.06814C5.19602 3.90339 4.9289 3.90339 4.76412 4.06814L0.130637 8.7017C-0.0341055 8.86644 -0.0341055 9.13355 0.130637 9.29833L4.7642 13.9319C4.92894 14.0966 5.19605 14.0966 5.3608 13.9319Z" fill="#484E56"/>
</g>
<defs>
<clipPath id="clip0">
<rect width="15.75" height="18" fill="white"/>
</clipPath>
</defs>
</svg>
