<svg width="448" height="512" viewBox="0 0 448 512" fill="none" xmlns="http://www.w3.org/2000/svg">
<path d="M436 124H12C5.373 124 0 118.627 0 112V80C0 73.373 5.373 68 12 68H436C442.627 68 448 73.373 448 80V112C448 118.627 442.627 124 436 124ZM436 284H12C5.373 284 0 278.627 0 272V240C0 233.373 5.373 228 12 228H436C442.627 228 448 233.373 448 240V272C448 278.627 442.627 284 436 284ZM436 444H12C5.373 444 0 438.627 0 432V400C0 393.373 5.373 388 12 388H436C442.627 388 448 393.373 448 400V432C448 438.627 442.627 444 436 444Z" fill="#EBEFF4"/>
</svg>
