<svg width="16" height="18" viewBox="0 0 16 18" fill="none" xmlns="http://www.w3.org/2000/svg">
<g clip-path="url(#clip0)">
<path d="M2.02852 1.3395L9.39023 8.70122C9.55547 8.86646 9.55547 9.13364 9.39023 9.29888L2.02852 16.6606C1.86328 16.8258 1.59609 16.8258 1.43086 16.6606L0.734766 15.9645C0.569531 15.7993 0.569531 15.5321 0.734766 15.3668L7.0875 9.00005L0.734766 2.63325C0.569531 2.46802 0.569531 2.20083 0.734766 2.0356L1.43086 1.3395C1.59609 1.17427 1.86328 1.17427 2.02852 1.3395V1.3395ZM7.05586 1.3395L6.35977 2.0356C6.19453 2.20083 6.19453 2.46802 6.35977 2.63325L12.7125 9.00005L6.35977 15.3668C6.19453 15.5321 6.19453 15.7993 6.35977 15.9645L7.05586 16.6606C7.22109 16.8258 7.48828 16.8258 7.65352 16.6606L15.0152 9.29888C15.1805 9.13364 15.1805 8.86646 15.0152 8.70122L7.65352 1.3395C7.48828 1.17427 7.22109 1.17427 7.05586 1.3395Z" fill="#232528"/>
</g>
<defs>
<clipPath id="clip0">
<rect width="15.75" height="18" fill="white"/>
</clipPath>
</defs>
</svg>
