<svg width="16" height="18" viewBox="0 0 16 18" fill="none" xmlns="http://www.w3.org/2000/svg">
<g clip-path="url(#clip0)">
<path d="M13.7215 16.6606L6.35977 9.29888C6.19453 9.13364 6.19453 8.86646 6.35977 8.70122L13.7215 1.3395C13.8867 1.17427 14.1539 1.17427 14.3191 1.3395L15.0152 2.0356C15.1805 2.20083 15.1805 2.46802 15.0152 2.63325L8.6625 9.00005L15.0152 15.3668C15.1805 15.5321 15.1805 15.7993 15.0152 15.9645L14.3191 16.6606C14.1539 16.8258 13.8867 16.8258 13.7215 16.6606V16.6606ZM8.69414 16.6606L9.39023 15.9645C9.55547 15.7993 9.55547 15.5321 9.39023 15.3668L3.0375 9.00005L9.39023 2.63325C9.55547 2.46802 9.55547 2.20083 9.39023 2.0356L8.69414 1.3395C8.52891 1.17427 8.26172 1.17427 8.09648 1.3395L0.734766 8.70122C0.569531 8.86646 0.569531 9.13364 0.734766 9.29888L8.09648 16.6606C8.26172 16.8258 8.52891 16.8258 8.69414 16.6606Z" fill="#232528"/>
</g>
<defs>
<clipPath id="clip0">
<rect width="15.75" height="18" fill="white"/>
</clipPath>
</defs>
</svg>
