<svg width="21" height="18" viewBox="0 0 21 18" fill="none" xmlns="http://www.w3.org/2000/svg">
<g clip-path="url(#clip0)">
<path d="M20.1338 10.2689L17.5876 14.6337C17.3895 14.9734 17.1058 15.2552 16.7648 15.4511C16.4238 15.6469 16.0374 15.75 15.6441 15.75H1.58291C0.931711 15.75 0.525973 15.0436 0.854086 14.4811L3.40024 10.1163C3.59839 9.7766 3.88211 9.49479 4.22311 9.29892C4.56412 9.10306 4.9505 9 5.34375 9H19.405C20.0562 9 20.4619 9.70639 20.1338 10.2689ZM5.34375 7.875H16.875V6.1875C16.875 5.25551 16.1195 4.5 15.1875 4.5H9.5625L7.3125 2.25H1.6875C0.755508 2.25 0 3.00551 0 3.9375V13.7126L2.42849 9.54942C3.03096 8.5166 4.14805 7.875 5.34375 7.875Z" fill="#232528"/>
</g>
<defs>
<clipPath id="clip0">
<rect width="20.25" height="18" fill="white"/>
</clipPath>
</defs>
</svg>
