<svg width="400" height="600" viewBox="0 0 400 600" fill="none" xmlns="http://www.w3.org/2000/svg">
<path d="M360 384.001C369.334 480.001 288 564 200 564C110.667 564 40 492.001 40 404.001C40 393.334 40.0013 393.334 41.3346 384.001C41.3346 384.001 115.999 447.999 198.666 385.332C214.666 371.999 248.001 354.668 281.334 354.668C320.001 352.001 360 376.001 360 384.001ZM200 198.666C89.3335 198.666 0 287.999 0 398.665C0 509.33 89.3335 598.665 200 598.665C310.667 598.665 400 509.33 400 398.665C400 289.332 310.667 198.666 200 198.666Z" fill="#0685FB"/>
<path d="M140.001 50C172.001 137.797 115.998 215.839 77.3315 242.666H323.998C283.998 215.839 228.001 136.578 260.001 50H140.001Z" fill="#0685FB"/>
<path d="M98.601 21C98.601 11.6666 106.234 5 116.921 5H280.28C290.967 5 298.601 11.6666 298.601 21C298.601 30.3333 290.967 37 280.28 37H116.921C107.761 37 98.601 29 98.601 21Z" fill="#0685FB"/>
</svg>
