<svg width="80" height="120" viewBox="0 0 80 120" fill="none" xmlns="http://www.w3.org/2000/svg">
<path d="M72 76.8001C73.8667 96.0001 57.6 112.8 40 112.8C22.1333 112.8 8 98.4001 8 80.8001C8 78.6668 8.00026 78.6668 8.26693 76.8001C8.26693 76.8001 23.1997 89.5997 39.7331 77.0664C42.9331 74.3997 49.6003 70.9336 56.2669 70.9336C64.0003 70.4002 72 75.2001 72 76.8001ZM40 39.7331C17.8667 39.7331 0 57.5997 0 79.733C0 101.866 17.8667 119.733 40 119.733C62.1333 119.733 80 101.866 80 79.733C80 57.8664 62.1333 39.7331 40 39.7331Z" fill="#1C90FD"/>
<path d="M28.0002 10C34.4002 27.5594 23.1996 43.1678 15.4663 48.5332H64.7996C56.7996 43.1678 45.6002 27.3155 52.0002 10H28.0002Z" fill="#1C90FD"/>
<path d="M19.7202 4.2C19.7202 2.33333 21.2469 1 23.3843 1L56.0561 1C58.1935 1 59.7202 2.33333 59.7202 4.2C59.7202 6.06666 58.1935 7.4 56.0561 7.4H23.3843C21.5523 7.4 19.7202 5.8 19.7202 4.2Z" fill="#1C90FD"/>
</svg>
