<svg width="18" height="18" viewBox="0 0 18 18" fill="none" xmlns="http://www.w3.org/2000/svg">
<g clip-path="url(#clip0)">
<path d="M17.877 16.4848L13.609 12.2168C13.5281 12.1359 13.4227 12.0938 13.3102 12.0938H12.8461C13.9535 10.8105 14.625 9.14062 14.625 7.3125C14.625 3.27305 11.352 0 7.3125 0C3.27305 0 0 3.27305 0 7.3125C0 11.352 3.27305 14.625 7.3125 14.625C9.14062 14.625 10.8105 13.9535 12.0938 12.8461V13.3102C12.0938 13.4227 12.1395 13.5281 12.2168 13.609L16.4848 17.877C16.65 18.0422 16.9172 18.0422 17.0824 17.877L17.877 17.0824C18.0422 16.9172 18.0422 16.65 17.877 16.4848ZM7.3125 12.9375C4.20469 12.9375 1.6875 10.4203 1.6875 7.3125C1.6875 4.20469 4.20469 1.6875 7.3125 1.6875C10.4203 1.6875 12.9375 4.20469 12.9375 7.3125C12.9375 10.4203 10.4203 12.9375 7.3125 12.9375Z" fill="#232528"/>
</g>
<defs>
<clipPath id="clip0">
<rect width="18" height="18" fill="white"/>
</clipPath>
</defs>
</svg>
