<svg width="16" height="18" viewBox="0 0 16 18" fill="none" xmlns="http://www.w3.org/2000/svg">
<g clip-path="url(#clip0)">
<path opacity="0.4" d="M10.6875 3.375H11.25V5.625H10.6875C10.5383 5.625 10.3952 5.68426 10.2897 5.78975C10.1842 5.89524 10.125 6.03832 10.125 6.1875V7.3125C10.125 7.46168 10.1842 7.60476 10.2897 7.71025C10.3952 7.81574 10.5383 7.875 10.6875 7.875H14.0625C14.2117 7.875 14.3547 7.81574 14.4602 7.71025C14.5657 7.60476 14.625 7.46168 14.625 7.3125V6.1875C14.625 6.03832 14.5657 5.89524 14.4602 5.78975C14.3547 5.68426 14.2117 5.625 14.0625 5.625H13.5V1.6875C13.5 1.53832 13.4407 1.39524 13.3352 1.28975C13.2297 1.18426 13.0867 1.125 12.9375 1.125H11.25C11.1457 1.12509 11.0435 1.15417 10.9548 1.20898C10.8661 1.2638 10.7943 1.3422 10.7476 1.43543L10.1851 2.56043C10.1421 2.64615 10.1218 2.74144 10.126 2.83724C10.1302 2.93303 10.1589 3.02616 10.2092 3.10778C10.2595 3.18939 10.3299 3.25679 10.4136 3.30356C10.4973 3.35033 10.5916 3.37492 10.6875 3.375V3.375ZM11.6068 9.1023C11.1485 9.22782 10.7301 9.46882 10.3916 9.80225C10.053 10.1357 9.8057 10.5504 9.67323 11.0067C9.17225 12.8014 10.4189 14.4439 12.0937 14.6113C11.8729 14.7976 11.6259 14.9505 11.3607 15.0652C11.0946 15.1847 10.981 15.5036 11.0731 15.7802L11.4212 16.4834C11.5221 16.7868 11.8617 16.9576 12.156 16.8318C14.195 15.9613 15.1882 14.6658 15.1882 12.1911V11.8125C15.1875 10.0121 13.4866 8.60133 11.6075 9.1023H11.6068ZM12.375 12.5156C12.2359 12.5156 12.1 12.4744 11.9843 12.3971C11.8687 12.3199 11.7786 12.2101 11.7254 12.0816C11.6722 11.9531 11.6582 11.8117 11.6854 11.6753C11.7125 11.5389 11.7795 11.4136 11.8778 11.3153C11.9761 11.217 12.1014 11.15 12.2378 11.1229C12.3742 11.0958 12.5156 11.1097 12.6441 11.1629C12.7725 11.2161 12.8824 11.3062 12.9596 11.4219C13.0369 11.5375 13.0781 11.6734 13.0781 11.8125C13.0781 11.999 13.004 12.1778 12.8722 12.3097C12.7403 12.4415 12.5615 12.5156 12.375 12.5156Z" fill="#6E7A8A"/>
<path d="M6.18749 12.375H4.49999V1.6875C4.49999 1.53832 4.44073 1.39524 4.33524 1.28975C4.22975 1.18426 4.08668 1.125 3.93749 1.125H2.81249C2.66331 1.125 2.52023 1.18426 2.41475 1.28975C2.30926 1.39524 2.24999 1.53832 2.24999 1.6875V12.375H0.562493C0.0636259 12.375 -0.188444 12.9811 0.165579 13.3351L2.97808 16.7101C3.08356 16.8155 3.22658 16.8747 3.3757 16.8747C3.52482 16.8747 3.66783 16.8155 3.77331 16.7101L6.58581 13.3351C6.93808 12.9818 6.68741 12.375 6.18749 12.375Z" fill="#6E7A8A"/>
</g>
<defs>
<clipPath id="clip0">
<rect width="15.75" height="18" fill="white"/>
</clipPath>
</defs>
</svg>
