<svg width="12" height="18" viewBox="0 0 12 18" fill="none" xmlns="http://www.w3.org/2000/svg">
<g clip-path="url(#clip0)">
<path d="M7.29842 8.99997L11.0854 5.21293C11.3045 4.99391 11.3045 4.63848 11.0854 4.41911L10.2055 3.53915C9.98646 3.32012 9.63103 3.32012 9.41166 3.53915L5.62498 7.32653L1.83795 3.5395C1.61893 3.32047 1.2635 3.32047 1.04412 3.5395L0.164512 4.41911C-0.0545117 4.63813 -0.0545117 4.99356 0.164512 5.21293L3.95154 8.99997L0.164512 12.787C-0.0545117 13.006 -0.0545117 13.3614 0.164512 13.5808L1.04447 14.4608C1.2635 14.6798 1.61893 14.6798 1.8383 14.4608L5.62498 10.6734L9.41201 14.4604C9.63103 14.6795 9.98646 14.6795 10.2058 14.4604L11.0858 13.5805C11.3048 13.3615 11.3048 13.006 11.0858 12.7866L7.29842 8.99997Z" fill="#232528"/>
</g>
<defs>
<clipPath id="clip0">
<rect width="11.25" height="18" fill="white"/>
</clipPath>
</defs>
</svg>
